<svg version="1.1" xmlns="http://www.w3.org/2000/svg" xmlns:xlink="http://www.w3.org/1999/xlink" width="177" height="180"><defs/><g><g transform="translate(-222,-230) scale(1,1)"><rect fill="#C0C0C0" stroke="none" x="239" y="247" width="157" height="160" opacity="0.2"/></g><g transform="translate(-222,-230) scale(1,1)"><rect fill="#ffffff" stroke="none" x="232" y="240" width="157" height="160"/></g><g transform="translate(-222,-230) scale(1,1)"><path fill="none" stroke="#000000" d="M 232 240 L 389 240 L 389 400 L 232 400 L 232 240 Z Z" stroke-miterlimit="10"/></g><g transform="translate(-222,-230) scale(1,1)"><path fill="none" stroke="#000000" d="M 232 265 L 389 265" stroke-miterlimit="10"/></g><g transform="translate(-222,-230) scale(1,1)"><path fill="none" stroke="#000000" d="M 232 303 L 389 303" stroke-miterlimit="10"/></g><g transform="translate(-222,-230) scale(1,1)"><g><path fill="none" stroke="none"/><text fill="#000000" stroke="none" font-family="Arial" font-size="13px" font-style="normal" font-weight="bold" text-decoration="none" x="285" y="259.5">Catalogo</text></g></g><g transform="translate(-222,-230) scale(1,1)"><g><path fill="none" stroke="none"/><text fill="#000000" stroke="none" font-family="Arial" font-size="13px" font-style="normal" font-weight="normal" text-decoration="none" x="237" y="282.5">-products: List&lt;Product&gt;</text></g></g><g transform="translate(-222,-230) scale(1,1)"><g><path fill="none" stroke="none"/><text fill="#000000" stroke="none" font-family="Arial" font-size="13px" font-style="normal" font-weight="normal" text-decoration="none" x="237" y="297.5">-product_map Map</text></g></g><g transform="translate(-222,-230) scale(1,1)"><g><path fill="none" stroke="none"/><text fill="#000000" stroke="none" font-family="Arial" font-size="13px" font-style="normal" font-weight="normal" text-decoration="none" x="237" y="320.5">-Catalogo()</text></g></g><g transform="translate(-222,-230) scale(1,1)"><g><path fill="none" stroke="none"/><text fill="#000000" stroke="none" font-family="Arial" font-size="13px" font-style="normal" font-weight="normal" text-decoration="none" x="237" y="335.5">+getIstance(): Catalogo</text></g></g><g transform="translate(-222,-230) scale(1,1)"><g><path fill="none" stroke="none"/><text fill="#000000" stroke="none" font-family="Arial" font-size="13px" font-style="normal" font-weight="normal" text-decoration="none" x="237" y="350.5">+sortByID(): void</text></g></g><g transform="translate(-222,-230) scale(1,1)"><g><path fill="none" stroke="none"/><text fill="#000000" stroke="none" font-family="Arial" font-size="13px" font-style="normal" font-weight="normal" text-decoration="none" x="237" y="365.5">+sortByAuthor(): void</text></g></g><g transform="translate(-222,-230) scale(1,1)"><g><path fill="none" stroke="none"/><text fill="#000000" stroke="none" font-family="Arial" font-size="13px" font-style="normal" font-weight="normal" text-decoration="none" x="237" y="380.5">+sortByTitle(): void</text></g></g><g transform="translate(-222,-230) scale(1,1)"><g><path fill="none" stroke="none"/><text fill="#000000" stroke="none" font-family="Arial" font-size="13px" font-style="normal" font-weight="normal" text-decoration="none" x="237" y="395.5">+sortByPrice(): void</text></g></g></g></svg>