<svg xmlns="http://www.w3.org/2000/svg" width="512" height="512" viewBox="0 0 512 512"><path fill="#D10024" d="M512 472c0 22.1-17.9 40-40 40H40c-22.1 0-40-17.9-40-40V40C0 17.9 17.9 0 40 0h432c22.1 0 40 17.9 40 40v432z"/><path fill="#FFF" d="M356.3 205.1h-33v-41.5h104.4v41.5h-34.6v143.3h-36.8zM179.9 230.8v-37.7s-6.3-29.5-29.5-29.5h-66v184.9h74.2s21.4-11.3 21.4-29.6v-39s-3.1-23.9-22.6-23.9c-.1 0 22.5-.6 22.5-25.2zm-38.7 55.4v21.7c0 4.1-4.1 4.1-4.1 4.1h-17v-30.2h17c5.7 0 4.1 4.4 4.1 4.4zm0-73v21.7c0 4.1-4.1 4.1-4.1 4.1h-17v-30.2h17c5.7 0 4.1 4.4 4.1 4.4zM276.1 256s23-3.2 23-23v-42.4s-3.5-27-33.6-27H202v184.9h35.2V283h17.9s6.6-1.9 6.6 5.7v59.7h37.7v-72.3s-8.2-20.1-23.3-20.1zm-21-19.5h-17.3v-27.7h17.3s7.2 1.3 7.2 4.4v17.6s.6 5.7-7.2 5.7z"/></svg>