<svg xmlns="http://www.w3.org/2000/svg" width="512" height="512" viewBox="0 0 512 512"><path fill="#0D006A" d="M512 472c0 22.1-17.9 40-40 40H40c-22.1 0-40-17.9-40-40V40C0 17.9 17.9 0 40 0h432c22.1 0 40 17.9 40 40v432z"/><path fill-rule="evenodd" clip-rule="evenodd" fill="#FFF" d="M378.2 288.6l13.6-70H368l-18 93.3 43.4.1 4.3-23.4zM448 239.2c3.9 0 9.5.9 12.9 2.1l4-21.5c-5-.8-10.3-1.3-16.2-1.3-25.8 0-37.9 15.4-37.9 32.6 0 22.6 22.9 22.3 22.9 31.9 0 4.8-3.4 7.5-10.7 7.5-5.1 0-12.1-1.2-16.3-2.8l-4.4 23.1c4.8.9 11.6 1.6 18.4 1.6 23.1 0 39.2-15.4 39.2-33.9 0-21.9-23.1-22.3-23.1-31.9.1-4.3 3-7.4 11.2-7.4M331.3 218.6c-35.4 0-58.2 26.5-58.2 59.1 0 20.4 10.7 34.4 37.8 34.4 10.7 0 22-2 31-5.9l8.7-45.1h-23.8l-5.1 27.5c-2.1.5-4.6.7-6.5.7-11.9 0-16.2-6.6-16.2-15.3 0-16.2 9.9-33 30.2-33 5.7 0 11.9 1.1 17.5 2.8.6.2 1.2.3 1.8.5 2 .7 3.7 1.4 5 2.1l4.8-24.4c-8.1-2-17.9-3.4-27-3.4"/><path fill-rule="evenodd" clip-rule="evenodd" fill="#FDBD10" d="M153.3 218.9l-6.4 31h44c-36.5 54-108.9 44.9-128 22.5-16.5-19.3-2.2-52.3 46.6-72.7C61.2 214.3 34 252.9 50 279c18.1 29.5 74.5 41.8 124.6 27.5 33.5-11.8 47.8-28.3 53-37.1l-8.2 42.9h32.9l17.9-93.3H153.3z"/></svg>