<svg version="1.1" xmlns="http://www.w3.org/2000/svg" xmlns:xlink="http://www.w3.org/1999/xlink" width="1044" height="660"><defs></defs><g><g transform="translate(-14,-126) scale(1,1)"><path fill="#ffffff" stroke="none" d="M 53.53490909090909 267.03999999999996 C 53.53490909090909 261.49506060799996 57.99643176029091 257 63.5 257 C 69.0035682397091 257 73.4650909090909 261.49506060799996 73.4650909090909 267.03999999999996 C 73.4650909090909 272.58493939199997 69.0035682397091 277.08 63.5 277.08 C 57.99643176029091 277.08 53.53490909090909 272.58493939199997 53.53490909090909 267.03999999999996 Z"></path></g><g transform="translate(-14,-126) scale(1,1)"><path fill="none" stroke="#000000" d="M 53.53490909090909 267.03999999999996 C 53.53490909090909 261.49506060799996 57.99643176029091 257 63.5 257 C 69.0035682397091 257 73.4650909090909 261.49506060799996 73.4650909090909 267.03999999999996 C 73.4650909090909 272.58493939199997 69.0035682397091 277.08 63.5 277.08 C 57.99643176029091 277.08 53.53490909090909 272.58493939199997 53.53490909090909 267.03999999999996 Z" stroke-miterlimit="10"></path></g><g transform="translate(-14,-126) scale(1,1)"><path fill="none" stroke="#000000" d="M 63.5 277.08 L 63.5 296.92" stroke-miterlimit="10"></path></g><g transform="translate(-14,-126) scale(1,1)"><path fill="none" stroke="#000000" d="M 52.94872727272727 284.52 L 74.05127272727273 284.52" stroke-miterlimit="10"></path></g><g transform="translate(-14,-126) scale(1,1)"><path fill="none" stroke="#000000" d="M 63.5 296.92 L 48.845454545454544 317" stroke-miterlimit="10"></path></g><g transform="translate(-14,-126) scale(1,1)"><path fill="none" stroke="#000000" d="M 63.5 296.92 L 78.15454545454546 317" stroke-miterlimit="10"></path></g><g transform="translate(-14,-126) scale(1,1)"><g><path fill="none" stroke="none"></path><text fill="#000000" stroke="none" font-family="Arial" font-size="13px" font-style="normal" font-weight="bold" text-decoration="none" x="37" y="337.5">CLIENTE</text></g></g><g transform="translate(-14,-126) scale(1,1)"><path fill="#C0C0C0" stroke="none" d="M 239 194.5 C 239 166.05733279999998 280.8613712 143 332.5 143 C 384.1386288 143 426 166.05733279999998 426 194.5 C 426 222.94266720000002 384.1386288 246 332.5 246 C 280.8613712 246 239 222.94266720000002 239 194.5 Z" opacity="0.2"></path></g><g transform="translate(-14,-126) scale(1,1)"><path fill="#ffffff" stroke="none" d="M 232 187.5 C 232 159.05733279999998 273.8613712 136 325.5 136 C 377.1386288 136 419 159.05733279999998 419 187.5 C 419 215.94266720000002 377.1386288 239 325.5 239 C 273.8613712 239 232 215.94266720000002 232 187.5 Z"></path></g><g transform="translate(-14,-126) scale(1,1)"><path fill="none" stroke="#000000" d="M 232 187.5 C 232 159.05733279999998 273.8613712 136 325.5 136 C 377.1386288 136 419 159.05733279999998 419 187.5 C 419 215.94266720000002 377.1386288 239 325.5 239 C 273.8613712 239 232 215.94266720000002 232 187.5 Z" stroke-miterlimit="10"></path></g><g transform="translate(-14,-126) scale(1,1)"><g><path fill="none" stroke="none"></path><text fill="#000000" stroke="none" font-family="Arial" font-size="13px" font-style="normal" font-weight="bold" text-decoration="none" x="273.5" y="194.5">Consulta catalogo</text></g></g><g transform="translate(-14,-126) scale(1,1)"><path fill="#C0C0C0" stroke="none" d="M 831 190.5 C 831 164.266472 881.1441024 143 943 143 C 1004.8558976 143 1055 164.266472 1055 190.5 C 1055 216.733528 1004.8558976 238 943 238 C 881.1441024 238 831 216.733528 831 190.5 Z" opacity="0.2"></path></g><g transform="translate(-14,-126) scale(1,1)"><path fill="#ffffff" stroke="none" d="M 824 183.5 C 824 157.266472 874.1441024 136 936 136 C 997.8558976 136 1048 157.266472 1048 183.5 C 1048 209.733528 997.8558976 231 936 231 C 874.1441024 231 824 209.733528 824 183.5 Z"></path></g><g transform="translate(-14,-126) scale(1,1)"><path fill="none" stroke="#000000" d="M 824 183.5 C 824 157.266472 874.1441024 136 936 136 C 997.8558976 136 1048 157.266472 1048 183.5 C 1048 209.733528 997.8558976 231 936 231 C 874.1441024 231 824 209.733528 824 183.5 Z" stroke-miterlimit="10"></path></g><g transform="translate(-14,-126) scale(1,1)"><g><path fill="none" stroke="none"></path><text fill="#000000" stroke="none" font-family="Arial" font-size="13px" font-style="normal" font-weight="bold" text-decoration="none" x="887.5" y="190.5">Ricerca Prodotto</text></g></g><g transform="translate(-14,-126) scale(1,1)"><path fill="none" stroke="#000000" d="M 104 281 L 231 227" stroke-miterlimit="10"></path></g><g transform="translate(-14,-126) scale(1,1)"><path fill="#C0C0C0" stroke="none" d="M 239 330.5 C 239 302.0573328 281.9806592 279 335 279 C 388.0193408 279 431 302.0573328 431 330.5 C 431 358.9426672 388.0193408 382 335 382 C 281.9806592 382 239 358.9426672 239 330.5 Z" opacity="0.2"></path></g><g transform="translate(-14,-126) scale(1,1)"><path fill="#ffffff" stroke="none" d="M 232 323.5 C 232 295.0573328 274.9806592 272 328 272 C 381.0193408 272 424 295.0573328 424 323.5 C 424 351.9426672 381.0193408 375 328 375 C 274.9806592 375 232 351.9426672 232 323.5 Z"></path></g><g transform="translate(-14,-126) scale(1,1)"><path fill="none" stroke="#000000" d="M 232 323.5 C 232 295.0573328 274.9806592 272 328 272 C 381.0193408 272 424 295.0573328 424 323.5 C 424 351.9426672 381.0193408 375 328 375 C 274.9806592 375 232 351.9426672 232 323.5 Z" stroke-miterlimit="10"></path></g><g transform="translate(-14,-126) scale(1,1)"><g><path fill="none" stroke="none"></path><text fill="#000000" stroke="none" font-family="Arial" font-size="13px" font-style="normal" font-weight="bold" text-decoration="none" x="275.5" y="330.5">Visualizza Carrelo</text></g></g><g transform="translate(-14,-126) scale(1,1)"><path fill="none" stroke="#000000" d="M 104 303 L 231 314" stroke-miterlimit="10"></path></g><g transform="translate(-14,-126) scale(1,1)"><path fill="#C0C0C0" stroke="none" d="M 831 326.5 C 831 300.266472 881.1441024 279 943 279 C 1004.8558976 279 1055 300.266472 1055 326.5 C 1055 352.733528 1004.8558976 374 943 374 C 881.1441024 374 831 352.733528 831 326.5 Z" opacity="0.2"></path></g><g transform="translate(-14,-126) scale(1,1)"><path fill="#ffffff" stroke="none" d="M 824 319.5 C 824 293.266472 874.1441024 272 936 272 C 997.8558976 272 1048 293.266472 1048 319.5 C 1048 345.733528 997.8558976 367 936 367 C 874.1441024 367 824 345.733528 824 319.5 Z"></path></g><g transform="translate(-14,-126) scale(1,1)"><path fill="none" stroke="#000000" d="M 824 319.5 C 824 293.266472 874.1441024 272 936 272 C 997.8558976 272 1048 293.266472 1048 319.5 C 1048 345.733528 997.8558976 367 936 367 C 874.1441024 367 824 345.733528 824 319.5 Z" stroke-miterlimit="10"></path></g><g transform="translate(-14,-126) scale(1,1)"><g><path fill="none" stroke="none"></path><text fill="#000000" stroke="none" font-family="Arial" font-size="13px" font-style="normal" font-weight="bold" text-decoration="none" x="892.5" y="326.5">Ordina Prodotti</text></g></g><g transform="translate(-14,-126) scale(1,1)"><path fill="#C0C0C0" stroke="none" d="M 247 731 C 247 702.2811904 289.7568016 679 342.5 679 C 395.2431984 679 438 702.2811904 438 731 C 438 759.7188096 395.2431984 783 342.5 783 C 289.7568016 783 247 759.7188096 247 731 Z" opacity="0.2"></path></g><g transform="translate(-14,-126) scale(1,1)"><path fill="#ffffff" stroke="none" d="M 240 724 C 240 695.2811904 282.7568016 672 335.5 672 C 388.2431984 672 431 695.2811904 431 724 C 431 752.7188096 388.2431984 776 335.5 776 C 282.7568016 776 240 752.7188096 240 724 Z"></path></g><g transform="translate(-14,-126) scale(1,1)"><path fill="none" stroke="#000000" d="M 240 724 C 240 695.2811904 282.7568016 672 335.5 672 C 388.2431984 672 431 695.2811904 431 724 C 431 752.7188096 388.2431984 776 335.5 776 C 282.7568016 776 240 752.7188096 240 724 Z" stroke-miterlimit="10"></path></g><g transform="translate(-14,-126) scale(1,1)"><g><path fill="none" stroke="none"></path><text fill="#000000" stroke="none" font-family="Arial" font-size="13px" font-style="normal" font-weight="bold" text-decoration="none" x="315.5" y="731">Accedi</text></g></g><g transform="translate(-14,-126) scale(1,1)"><path fill="#C0C0C0" stroke="none" d="M 247 535 C 247 504.0720512 288.1897984 479 339 479 C 389.8102016 479 431 504.0720512 431 535 C 431 565.9279488 389.8102016 591 339 591 C 288.1897984 591 247 565.9279488 247 535 Z" opacity="0.2"></path></g><g transform="translate(-14,-126) scale(1,1)"><path fill="#ffffff" stroke="none" d="M 240 528 C 240 497.0720512 281.1897984 472 332 472 C 382.8102016 472 424 497.0720512 424 528 C 424 558.9279488 382.8102016 584 332 584 C 281.1897984 584 240 558.9279488 240 528 Z"></path></g><g transform="translate(-14,-126) scale(1,1)"><path fill="none" stroke="#000000" d="M 240 528 C 240 497.0720512 281.1897984 472 332 472 C 382.8102016 472 424 497.0720512 424 528 C 424 558.9279488 382.8102016 584 332 584 C 281.1897984 584 240 558.9279488 240 528 Z" stroke-miterlimit="10"></path></g><g transform="translate(-14,-126) scale(1,1)"><g><path fill="none" stroke="none"></path><text fill="#000000" stroke="none" font-family="Arial" font-size="13px" font-style="normal" font-weight="bold" text-decoration="none" x="280" y="535">Acquista Prodotto</text></g></g><g transform="translate(-14,-126) scale(1,1)"><path fill="#C0C0C0" stroke="none" d="M 839 491 C 839 466.6994688 887.3532416 447 947 447 C 1006.6467584 447 1055 466.6994688 1055 491 C 1055 515.3005312 1006.6467584 535 947 535 C 887.3532416 535 839 515.3005312 839 491 Z" opacity="0.2"></path></g><g transform="translate(-14,-126) scale(1,1)"><path fill="#ffffff" stroke="none" d="M 832 484 C 832 459.6994688 880.3532416 440 940 440 C 999.6467584 440 1048 459.6994688 1048 484 C 1048 508.3005312 999.6467584 528 940 528 C 880.3532416 528 832 508.3005312 832 484 Z"></path></g><g transform="translate(-14,-126) scale(1,1)"><path fill="none" stroke="#000000" d="M 832 484 C 832 459.6994688 880.3532416 440 940 440 C 999.6467584 440 1048 459.6994688 1048 484 C 1048 508.3005312 999.6467584 528 940 528 C 880.3532416 528 832 508.3005312 832 484 Z" stroke-miterlimit="10"></path></g><g transform="translate(-14,-126) scale(1,1)"><g><path fill="none" stroke="none"></path><text fill="#000000" stroke="none" font-family="Arial" font-size="13px" font-style="normal" font-weight="bold" text-decoration="none" x="892" y="491">Modifica Carrello</text></g></g><g transform="translate(-14,-126) scale(1,1)"><path fill="none" stroke="#000000" d="M 104 334 L 265 471" stroke-miterlimit="10"></path></g><g transform="translate(-14,-126) scale(1,1)"><path fill="none" stroke="#000000" d="M 823 184 L 420 186" stroke-miterlimit="10" stroke-dasharray="3"></path></g><g transform="translate(-14,-126) scale(1,1)"><path fill="none" stroke="#000000" d="M 430.14165906105757 181.74009959162555 L 420 186 L 430.1834403604967 190.1590314286149" stroke-miterlimit="10"></path></g><g transform="translate(-14,-126) scale(1,1)"><g><path fill="none" stroke="none"></path><text fill="#000000" stroke="none" font-family="Arial" font-size="13px" font-style="normal" font-weight="normal" text-decoration="none" x="594.59619140625" y="220.5">«extend»</text></g></g><g transform="translate(-14,-126) scale(1,1)"><path fill="none" stroke="#000000" d="M 823 295 L 420 208" stroke-miterlimit="10" stroke-dasharray="3"></path></g><g transform="translate(-14,-126) scale(1,1)"><path fill="none" stroke="#000000" d="M 430.82212087048475 206.02979699913482 L 420 208 L 429.0455389565661 214.2592511521144" stroke-miterlimit="10"></path></g><g transform="translate(-14,-126) scale(1,1)"><g><path fill="none" stroke="none"></path><text fill="#000000" stroke="none" font-family="Arial" font-size="13px" font-style="normal" font-weight="normal" text-decoration="none" x="587.59619140625" y="286.5">«extend»</text></g></g><g transform="translate(-14,-126) scale(1,1)"><path fill="none" stroke="#000000" d="M 831 455 L 425 349" stroke-miterlimit="10" stroke-dasharray="3"></path></g><g transform="translate(-14,-126) scale(1,1)"><path fill="none" stroke="#000000" d="M 435.896456335218 347.4942645203463 L 425 349 L 433.76967393387207 355.6402423971994" stroke-miterlimit="10"></path></g><g transform="translate(-14,-126) scale(1,1)"><g><path fill="none" stroke="none"></path><text fill="#000000" stroke="none" font-family="Arial" font-size="13px" font-style="normal" font-weight="normal" text-decoration="none" x="593.5" y="437.5">«extend»</text></g></g><g transform="translate(-14,-126) scale(1,1)"><path fill="none" stroke="#000000" d="M 301 671 L 92 344" stroke-miterlimit="10"></path></g><g transform="translate(-14,-126) scale(1,1)"><path fill="#C0C0C0" stroke="none" d="M 847 731 C 847 706.6994688 893.5623808 687 951 687 C 1008.4376192 687 1055 706.6994688 1055 731 C 1055 755.3005312 1008.4376192 775 951 775 C 893.5623808 775 847 755.3005312 847 731 Z" opacity="0.2"></path></g><g transform="translate(-14,-126) scale(1,1)"><path fill="#ffffff" stroke="none" d="M 840 724 C 840 699.6994688 886.5623808 680 944 680 C 1001.4376192 680 1048 699.6994688 1048 724 C 1048 748.3005312 1001.4376192 768 944 768 C 886.5623808 768 840 748.3005312 840 724 Z"></path></g><g transform="translate(-14,-126) scale(1,1)"><path fill="none" stroke="#000000" d="M 840 724 C 840 699.6994688 886.5623808 680 944 680 C 1001.4376192 680 1048 699.6994688 1048 724 C 1048 748.3005312 1001.4376192 768 944 768 C 886.5623808 768 840 748.3005312 840 724 Z" stroke-miterlimit="10"></path></g><g transform="translate(-14,-126) scale(1,1)"><g><path fill="none" stroke="none"></path><text fill="#000000" stroke="none" font-family="Arial" font-size="13px" font-style="normal" font-weight="bold" text-decoration="none" x="916.5" y="731">Registrati</text></g></g><g transform="translate(-14,-126) scale(1,1)"><path fill="none" stroke="#000000" d="M 839 724 L 432 724" stroke-miterlimit="10" stroke-dasharray="3"></path></g><g transform="translate(-14,-126) scale(1,1)"><path fill="none" stroke="#000000" d="M 442.16267485762415 719.790482243984 L 432 724 L 442.16267485762415 728.209517756016" stroke-miterlimit="10"></path></g><g transform="translate(-14,-126) scale(1,1)"><g><path fill="none" stroke="none"></path><text fill="#000000" stroke="none" font-family="Arial" font-size="13px" font-style="normal" font-weight="normal" text-decoration="none" x="607.5" y="760.5">«extend»</text></g></g><g transform="translate(-14,-126) scale(1,1)"><path fill="none" stroke="#000000" d="M 333 585 L 334 671" stroke-miterlimit="10" stroke-dasharray="3"></path></g><g transform="translate(-14,-126) scale(1,1)"><path fill="none" stroke="#000000" d="M 329.6726041459633 660.8869566834476 L 334 671 L 338.0910705542996 660.7890675391645" stroke-miterlimit="10"></path></g><g transform="translate(-14,-126) scale(1,1)"><g><path fill="none" stroke="none"></path><text fill="#000000" stroke="none" font-family="Arial" font-size="13px" font-style="normal" font-weight="normal" text-decoration="none" x="334.5" y="633.5">«include»</text></g></g><g transform="translate(-14,-126) scale(1,1)"><path fill="none" stroke="#000000" d="M 331 471 L 329 376" stroke-miterlimit="10" stroke-dasharray="3"></path></g><g transform="translate(-14,-126) scale(1,1)"><path fill="none" stroke="#000000" d="M 333.422488861286 386.07182169579073 L 329 376 L 325.00531844354185 386.2490252835327" stroke-miterlimit="10"></path></g><g transform="translate(-14,-126) scale(1,1)"><g><path fill="none" stroke="none"></path><text fill="#000000" stroke="none" font-family="Arial" font-size="13px" font-style="normal" font-weight="normal" text-decoration="none" x="272.5" y="429.5">«include»</text></g></g></g></svg>