<svg version="1.1" xmlns="http://www.w3.org/2000/svg" xmlns:xlink="http://www.w3.org/1999/xlink" width="1797" height="1716"><defs></defs><g><g transform="translate(-22,-30) scale(1,1)"><rect fill="#C0C0C0" stroke="none" x="71" y="47" width="74" height="39" opacity="0.2"></rect></g><g transform="translate(-22,-30) scale(1,1)"><rect fill="#ffffff" stroke="none" x="64" y="40" width="74" height="39"></rect></g><g transform="translate(-22,-30) scale(1,1)"><path fill="none" stroke="#000000" d="M 64 40 L 138 40 L 138 79 L 64 79 L 64 40 Z Z" stroke-miterlimit="10"></path></g><g transform="translate(-22,-30) scale(1,1)"><g><path fill="none" stroke="none"></path><text fill="#000000" stroke="none" font-family="Arial" font-size="13px" font-style="normal" font-weight="bold" text-decoration="none" x="87.5" y="59.5">User</text></g></g><g transform="translate(-22,-30) scale(1,1)"><path fill="none" stroke="#000000" d="M 102.5 80 L 102.5 1736" stroke-miterlimit="10" stroke-dasharray="3"></path></g><g transform="translate(-22,-30) scale(1,1)"><rect fill="#C0C0C0" stroke="none" x="1023" y="47" width="102" height="39" opacity="0.2"></rect></g><g transform="translate(-22,-30) scale(1,1)"><rect fill="#ffffff" stroke="none" x="1016" y="40" width="102" height="39"></rect></g><g transform="translate(-22,-30) scale(1,1)"><path fill="none" stroke="#000000" d="M 1016 40 L 1118 40 L 1118 79 L 1016 79 L 1016 40 Z Z" stroke-miterlimit="10"></path></g><g transform="translate(-22,-30) scale(1,1)"><g><path fill="none" stroke="none"></path><text fill="#000000" stroke="none" font-family="Arial" font-size="13px" font-style="normal" font-weight="bold" text-decoration="none" x="1031" y="59.5">CarrelloView</text></g></g><g transform="translate(-22,-30) scale(1,1)"><path fill="none" stroke="#000000" d="M 1068.5 80 L 1068.5 1736" stroke-miterlimit="10" stroke-dasharray="3"></path></g><g transform="translate(-22,-30) scale(1,1)"><rect fill="#C0C0C0" stroke="none" x="1191" y="47" width="116" height="39" opacity="0.2"></rect></g><g transform="translate(-22,-30) scale(1,1)"><rect fill="#ffffff" stroke="none" x="1184" y="40" width="116" height="39"></rect></g><g transform="translate(-22,-30) scale(1,1)"><path fill="none" stroke="#000000" d="M 1184 40 L 1300 40 L 1300 79 L 1184 79 L 1184 40 Z Z" stroke-miterlimit="10"></path></g><g transform="translate(-22,-30) scale(1,1)"><g><path fill="none" stroke="none"></path><text fill="#000000" stroke="none" font-family="Arial" font-size="13px" font-style="normal" font-weight="bold" text-decoration="none" x="1199" y="59.5">CarrelloActivity</text></g></g><g transform="translate(-22,-30) scale(1,1)"><path fill="none" stroke="#000000" d="M 1243.5 80 L 1243.5 1736" stroke-miterlimit="10" stroke-dasharray="3"></path></g><g transform="translate(-22,-30) scale(1,1)"><rect fill="#C0C0C0" stroke="none" x="1511" y="47" width="74" height="39" opacity="0.2"></rect></g><g transform="translate(-22,-30) scale(1,1)"><rect fill="#ffffff" stroke="none" x="1504" y="40" width="74" height="39"></rect></g><g transform="translate(-22,-30) scale(1,1)"><path fill="none" stroke="#000000" d="M 1504 40 L 1578 40 L 1578 79 L 1504 79 L 1504 40 Z Z" stroke-miterlimit="10"></path></g><g transform="translate(-22,-30) scale(1,1)"><g><path fill="none" stroke="none"></path><text fill="#000000" stroke="none" font-family="Arial" font-size="13px" font-style="normal" font-weight="bold" text-decoration="none" x="1519" y="59.5">Carrello</text></g></g><g transform="translate(-22,-30) scale(1,1)"><path fill="none" stroke="#000000" d="M 1542.5 80 L 1542.5 1736" stroke-miterlimit="10" stroke-dasharray="3"></path></g><g transform="translate(-22,-30) scale(1,1)"><rect fill="#C0C0C0" stroke="none" x="1663" y="47" width="153" height="39" opacity="0.2"></rect></g><g transform="translate(-22,-30) scale(1,1)"><rect fill="#ffffff" stroke="none" x="1656" y="40" width="153" height="39"></rect></g><g transform="translate(-22,-30) scale(1,1)"><path fill="none" stroke="#000000" d="M 1656 40 L 1809 40 L 1809 79 L 1656 79 L 1656 40 Z Z" stroke-miterlimit="10"></path></g><g transform="translate(-22,-30) scale(1,1)"><g><path fill="none" stroke="none"></path><text fill="#000000" stroke="none" font-family="Arial" font-size="13px" font-style="normal" font-weight="bold" text-decoration="none" x="1710.5" y="59.5">Vendite</text></g></g><g transform="translate(-22,-30) scale(1,1)"><path fill="none" stroke="#000000" d="M 1733.5 80 L 1733.5 1736" stroke-miterlimit="10" stroke-dasharray="3"></path></g><g transform="translate(-22,-30) scale(1,1)"><path fill="none" stroke="#000000" d="M 32 160 L 1615 160 L 1615 464 L 32 464 L 32 160" stroke-miterlimit="10"></path></g><g transform="translate(-22,-30) scale(1,1)"><path fill="#ffffff" stroke="none" d="M 32 160 L 32 182 L 62 182 L 73 171 L 73 160 L 32 160"></path></g><g transform="translate(-22,-30) scale(1,1)"><path fill="none" stroke="#000000" d="M 32 160 L 32 182 L 62 182 L 73 171 L 73 160 L 32 160 L 32 160" stroke-miterlimit="10"></path></g><g transform="translate(-22,-30) scale(1,1)"><g><path fill="none" stroke="none"></path><text fill="#000000" stroke="none" font-family="Arial" font-size="13px" font-style="normal" font-weight="bold" text-decoration="none" x="37" y="177.5">alt</text></g></g><g transform="translate(-22,-30) scale(1,1)"><g><path fill="none" stroke="none"></path><text fill="#000000" stroke="none" font-family="Arial" font-size="13px" font-style="normal" font-weight="normal" text-decoration="none" x="51.5" y="210.5">[user is not logged]</text></g></g><g transform="translate(-22,-30) scale(1,1)"><path fill="none" stroke="#000000" d="M 32 353 L 1615 353" stroke-miterlimit="10" stroke-dasharray="10,3"></path></g><g transform="translate(-22,-30) scale(1,1)"><g><path fill="none" stroke="none"></path><text fill="#000000" stroke="none" font-family="Arial" font-size="13px" font-style="normal" font-weight="normal" text-decoration="none" x="51.5" y="380.5">[carrello empty]</text></g></g><g transform="translate(-22,-30) scale(1,1)"><rect fill="#C0C0C0" stroke="none" x="271" y="47" width="161" height="39" opacity="0.2"></rect></g><g transform="translate(-22,-30) scale(1,1)"><rect fill="#ffffff" stroke="none" x="264" y="40" width="161" height="39"></rect></g><g transform="translate(-22,-30) scale(1,1)"><path fill="none" stroke="#000000" d="M 264 40 L 425 40 L 425 79 L 264 79 L 264 40 Z Z" stroke-miterlimit="10"></path></g><g transform="translate(-22,-30) scale(1,1)"><g><path fill="none" stroke="none"></path><text fill="#000000" stroke="none" font-family="Arial" font-size="13px" font-style="normal" font-weight="bold" text-decoration="none" x="280.5" y="59.5">SelectShipmentDialog</text></g></g><g transform="translate(-22,-30) scale(1,1)"><path fill="none" stroke="#000000" d="M 345.5 80 L 345.5 1728" stroke-miterlimit="10" stroke-dasharray="3"></path></g><g transform="translate(-22,-30) scale(1,1)"><path fill="none" stroke="#000000" d="M 40 640 L 1000 640 L 1000 1696 L 40 1696 L 40 640" stroke-miterlimit="10"></path></g><g transform="translate(-22,-30) scale(1,1)"><path fill="#ffffff" stroke="none" d="M 40 640 L 40 662 L 74 662 L 85 651 L 85 640 L 40 640"></path></g><g transform="translate(-22,-30) scale(1,1)"><path fill="none" stroke="#000000" d="M 40 640 L 40 662 L 74 662 L 85 651 L 85 640 L 40 640 L 40 640" stroke-miterlimit="10"></path></g><g transform="translate(-22,-30) scale(1,1)"><g><path fill="none" stroke="none"></path><text fill="#000000" stroke="none" font-family="Arial" font-size="13px" font-style="normal" font-weight="bold" text-decoration="none" x="45" y="657.5">opt</text></g></g><g transform="translate(-22,-30) scale(1,1)"><g><path fill="none" stroke="none"></path><text fill="#000000" stroke="none" font-family="Arial" font-size="13px" font-style="normal" font-weight="normal" text-decoration="none" x="59.5" y="690.5">[continua]</text></g></g><g transform="translate(-22,-30) scale(1,1)"><path fill="none" stroke="#000000" d="M 40 1585 L 1000 1585" stroke-miterlimit="10" stroke-dasharray="10,3"></path></g><g transform="translate(-22,-30) scale(1,1)"><g><path fill="none" stroke="none"></path><text fill="#000000" stroke="none" font-family="Arial" font-size="13px" font-style="normal" font-weight="normal" text-decoration="none" x="59.5" y="1612.5">[annulla]</text></g></g><g transform="translate(-22,-30) scale(1,1)"><rect fill="#C0C0C0" stroke="none" x="599" y="47" width="156" height="39" opacity="0.2"></rect></g><g transform="translate(-22,-30) scale(1,1)"><rect fill="#ffffff" stroke="none" x="592" y="40" width="156" height="39"></rect></g><g transform="translate(-22,-30) scale(1,1)"><path fill="none" stroke="#000000" d="M 592 40 L 748 40 L 748 79 L 592 79 L 592 40 Z Z" stroke-miterlimit="10"></path></g><g transform="translate(-22,-30) scale(1,1)"><g><path fill="none" stroke="none"></path><text fill="#000000" stroke="none" font-family="Arial" font-size="13px" font-style="normal" font-weight="bold" text-decoration="none" x="607.5" y="59.5">SelectPaymentDialog</text></g></g><g transform="translate(-22,-30) scale(1,1)"><path fill="none" stroke="#000000" d="M 671.5 80 L 671.5 1728" stroke-miterlimit="10" stroke-dasharray="3"></path></g><g transform="translate(-22,-30) scale(1,1)"><path fill="none" stroke="#000000" d="M 56 856 L 976 856 L 976 1560 L 56 1560 L 56 856" stroke-miterlimit="10"></path></g><g transform="translate(-22,-30) scale(1,1)"><path fill="#ffffff" stroke="none" d="M 56 856 L 56 878 L 86 878 L 97 867 L 97 856 L 56 856"></path></g><g transform="translate(-22,-30) scale(1,1)"><path fill="none" stroke="#000000" d="M 56 856 L 56 878 L 86 878 L 97 867 L 97 856 L 56 856 L 56 856" stroke-miterlimit="10"></path></g><g transform="translate(-22,-30) scale(1,1)"><g><path fill="none" stroke="none"></path><text fill="#000000" stroke="none" font-family="Arial" font-size="13px" font-style="normal" font-weight="bold" text-decoration="none" x="61" y="873.5">alt</text></g></g><g transform="translate(-22,-30) scale(1,1)"><g><path fill="none" stroke="none"></path><text fill="#000000" stroke="none" font-family="Arial" font-size="13px" font-style="normal" font-weight="normal" text-decoration="none" x="75.5" y="906.5">[change payment method]</text></g></g><g transform="translate(-22,-30) scale(1,1)"><path fill="none" stroke="#000000" d="M 56 985 L 976 985" stroke-miterlimit="10" stroke-dasharray="10,3"></path></g><g transform="translate(-22,-30) scale(1,1)"><g><path fill="none" stroke="none"></path><text fill="#000000" stroke="none" font-family="Arial" font-size="13px" font-style="normal" font-weight="normal" text-decoration="none" x="75.5" y="1012.5">[continua]</text></g></g><g transform="translate(-22,-30) scale(1,1)"><path fill="none" stroke="#000000" d="M 56 1457 L 976 1457" stroke-miterlimit="10" stroke-dasharray="10,3"></path></g><g transform="translate(-22,-30) scale(1,1)"><g><path fill="none" stroke="none"></path><text fill="#000000" stroke="none" font-family="Arial" font-size="13px" font-style="normal" font-weight="normal" text-decoration="none" x="75.5" y="1484.5">[indietro]</text></g></g><g transform="translate(-22,-30) scale(1,1)"><rect fill="#C0C0C0" stroke="none" x="823" y="1043" width="121" height="39" opacity="0.2"></rect></g><g transform="translate(-22,-30) scale(1,1)"><rect fill="#ffffff" stroke="none" x="816" y="1036" width="121" height="39"></rect></g><g transform="translate(-22,-30) scale(1,1)"><path fill="none" stroke="#000000" d="M 816 1036 L 937 1036 L 937 1075 L 816 1075 L 816 1036 Z Z" stroke-miterlimit="10"></path></g><g transform="translate(-22,-30) scale(1,1)"><g><path fill="none" stroke="none"></path><text fill="#000000" stroke="none" font-family="Arial" font-size="13px" font-style="normal" font-weight="bold" text-decoration="none" x="830.5" y="1055.5">SummaryDialog</text></g></g><g transform="translate(-22,-30) scale(1,1)"><path fill="none" stroke="#000000" d="M 877.5 1076 L 877.5 1728" stroke-miterlimit="10" stroke-dasharray="3"></path></g><g transform="translate(-22,-30) scale(1,1)"><path fill="none" stroke="#000000" d="M 64 1200 L 936 1200 L 936 1440 L 64 1440 L 64 1200" stroke-miterlimit="10"></path></g><g transform="translate(-22,-30) scale(1,1)"><path fill="#ffffff" stroke="none" d="M 64 1200 L 64 1222 L 98 1222 L 109 1211 L 109 1200 L 64 1200"></path></g><g transform="translate(-22,-30) scale(1,1)"><path fill="none" stroke="#000000" d="M 64 1200 L 64 1222 L 98 1222 L 109 1211 L 109 1200 L 64 1200 L 64 1200" stroke-miterlimit="10"></path></g><g transform="translate(-22,-30) scale(1,1)"><g><path fill="none" stroke="none"></path><text fill="#000000" stroke="none" font-family="Arial" font-size="13px" font-style="normal" font-weight="bold" text-decoration="none" x="69" y="1217.5">opt</text></g></g><g transform="translate(-22,-30) scale(1,1)"><g><path fill="none" stroke="none"></path><text fill="#000000" stroke="none" font-family="Arial" font-size="13px" font-style="normal" font-weight="normal" text-decoration="none" x="83.5" y="1250.5">[genera ordine]</text></g></g><g transform="translate(-22,-30) scale(1,1)"><path fill="none" stroke="#000000" d="M 64 1345 L 936 1345" stroke-miterlimit="10" stroke-dasharray="10,3"></path></g><g transform="translate(-22,-30) scale(1,1)"><g><path fill="none" stroke="none"></path><text fill="#000000" stroke="none" font-family="Arial" font-size="13px" font-style="normal" font-weight="normal" text-decoration="none" x="83.5" y="1372.5">[indietro]</text></g></g><g transform="translate(-22,-30) scale(1,1)"><rect fill="#C0C0C0" stroke="none" x="1351" y="1275" width="114" height="39" opacity="0.2"></rect></g><g transform="translate(-22,-30) scale(1,1)"><rect fill="#ffffff" stroke="none" x="1344" y="1268" width="114" height="39"></rect></g><g transform="translate(-22,-30) scale(1,1)"><path fill="none" stroke="#000000" d="M 1344 1268 L 1458 1268 L 1458 1307 L 1344 1307 L 1344 1268 Z Z" stroke-miterlimit="10"></path></g><g transform="translate(-22,-30) scale(1,1)"><g><path fill="none" stroke="none"></path><text fill="#000000" stroke="none" font-family="Arial" font-size="13px" font-style="normal" font-weight="bold" text-decoration="none" x="1358.5" y="1287.5">GenerateOrder</text></g></g><g transform="translate(-22,-30) scale(1,1)"><path fill="none" stroke="#000000" d="M 1402.5 1308 L 1402.5 1736" stroke-miterlimit="10" stroke-dasharray="3"></path></g><g transform="translate(-22,-30) scale(1,1)"><path fill="none" stroke="#000000" d="M 102 120 L 1061 120" stroke-miterlimit="10"></path></g><g transform="translate(-22,-30) scale(1,1)"><path fill="#000000" stroke="none" d="M 1050.837325142376 124.20951775601598 L 1061 120 L 1050.837325142376 115.79048224398402"></path></g><g transform="translate(-22,-30) scale(1,1)"><path fill="none" stroke="#000000" d="M 1050.837325142376 124.20951775601598 L 1061 120 L 1050.837325142376 115.79048224398402 L 1050.837325142376 124.20951775601598" stroke-miterlimit="10"></path></g><g transform="translate(-22,-30) scale(1,1)"><g><path fill="none" stroke="none"></path><text fill="#000000" stroke="none" font-family="Arial" font-size="13px" font-style="normal" font-weight="normal" text-decoration="none" x="502.5" y="116.5">1 : acquista[[press button]]</text></g></g><g transform="translate(-22,-30) scale(1,1)"><rect fill="#ffffff" stroke="none" x="1061" y="120" width="13" height="28"></rect></g><g transform="translate(-22,-30) scale(1,1)"><path fill="none" stroke="#000000" d="M 1061 120 L 1074 120 L 1074 148 L 1061 148 L 1061 120 Z Z" stroke-miterlimit="10"></path></g><g transform="translate(-22,-30) scale(1,1)"><path fill="none" stroke="#000000" d="M 1074 136 L 1236 136" stroke-miterlimit="10"></path></g><g transform="translate(-22,-30) scale(1,1)"><path fill="#000000" stroke="none" d="M 1225.837325142376 140.209517756016 L 1236 136 L 1225.837325142376 131.790482243984"></path></g><g transform="translate(-22,-30) scale(1,1)"><path fill="none" stroke="#000000" d="M 1225.837325142376 140.209517756016 L 1236 136 L 1225.837325142376 131.790482243984 L 1225.837325142376 140.209517756016" stroke-miterlimit="10"></path></g><g transform="translate(-22,-30) scale(1,1)"><g><path fill="none" stroke="none"></path><text fill="#000000" stroke="none" font-family="Arial" font-size="13px" font-style="normal" font-weight="normal" text-decoration="none" x="1094.5" y="132.5">2 : [[pressed button]]</text></g></g><g transform="translate(-22,-30) scale(1,1)"><rect fill="#ffffff" stroke="none" x="1236" y="136" width="13" height="287"></rect></g><g transform="translate(-22,-30) scale(1,1)"><path fill="none" stroke="#000000" d="M 1236 136 L 1249 136 L 1249 423 L 1236 423 L 1236 136 Z Z" stroke-miterlimit="10"></path></g><g transform="translate(-22,-30) scale(1,1)"><rect fill="#ffffff" stroke="none" x="80" y="224" width="1512" height="103"></rect></g><g transform="translate(-22,-30) scale(1,1)"><path fill="none" stroke="#000000" d="M 80 224 L 1592 224 L 1592 327 L 80 327 L 80 224 Z Z" stroke-miterlimit="10"></path></g><g transform="translate(-22,-30) scale(1,1)"><path fill="none" stroke="#000000" d="M 80 224 L 80 246 L 104 246 L 115 235 L 115 224 L 80 224 L 80 224" stroke-miterlimit="10"></path></g><g transform="translate(-22,-30) scale(1,1)"><g><path fill="none" stroke="none"></path><text fill="#000000" stroke="none" font-family="Arial" font-size="13px" font-style="normal" font-weight="normal" text-decoration="none" x="745.5" y="282">(Login | Signup): Authentication</text></g></g><g transform="translate(-22,-30) scale(1,1)"><g><path fill="none" stroke="none"></path><text fill="#000000" stroke="none" font-family="Arial" font-size="13px" font-style="normal" font-weight="normal" text-decoration="none" x="85" y="241.5">ref</text></g></g><g transform="translate(-22,-30) scale(1,1)"><path fill="none" stroke="#000000" d="M 1236 400 L 1074 400" stroke-miterlimit="10"></path></g><g transform="translate(-22,-30) scale(1,1)"><path fill="#000000" stroke="none" d="M 1084.162674857624 395.790482243984 L 1074 400 L 1084.162674857624 404.209517756016"></path></g><g transform="translate(-22,-30) scale(1,1)"><path fill="none" stroke="#000000" d="M 1084.162674857624 395.790482243984 L 1074 400 L 1084.162674857624 404.209517756016 L 1084.162674857624 395.790482243984" stroke-miterlimit="10"></path></g><g transform="translate(-22,-30) scale(1,1)"><g><path fill="none" stroke="none"></path><text fill="#000000" stroke="none" font-family="Arial" font-size="13px" font-style="normal" font-weight="normal" text-decoration="none" x="1096.5" y="416.5">3 : no product found</text></g></g><g transform="translate(-22,-30) scale(1,1)"><rect fill="#ffffff" stroke="none" x="1061" y="400" width="13" height="32"></rect></g><g transform="translate(-22,-30) scale(1,1)"><path fill="none" stroke="#000000" d="M 1061 400 L 1074 400 L 1074 432 L 1061 432 L 1061 400 Z Z" stroke-miterlimit="10"></path></g><g transform="translate(-22,-30) scale(1,1)"><path fill="none" stroke="#000000" d="M 1061 424 L 102 424" stroke-miterlimit="10" stroke-dasharray="3"></path></g><g transform="translate(-22,-30) scale(1,1)"><path fill="none" stroke="#000000" d="M 112.16267485762415 419.790482243984 L 102 424 L 112.16267485762415 428.209517756016" stroke-miterlimit="10"></path></g><g transform="translate(-22,-30) scale(1,1)"><g><path fill="none" stroke="none"></path><text fill="#000000" stroke="none" font-family="Arial" font-size="13px" font-style="normal" font-weight="normal" text-decoration="none" x="500.5" y="440.5">4 : Carrello empty feedback</text></g></g><g transform="translate(-22,-30) scale(1,1)"><path fill="none" stroke="#000000" d="M 1243 496 L 351 496" stroke-miterlimit="10"></path></g><g transform="translate(-22,-30) scale(1,1)"><path fill="#000000" stroke="none" d="M 361.16267485762415 491.790482243984 L 351 496 L 361.16267485762415 500.209517756016"></path></g><g transform="translate(-22,-30) scale(1,1)"><path fill="none" stroke="#000000" d="M 361.16267485762415 491.790482243984 L 351 496 L 361.16267485762415 500.209517756016 L 361.16267485762415 491.790482243984" stroke-miterlimit="10"></path></g><g transform="translate(-22,-30) scale(1,1)"><g><path fill="none" stroke="none"></path><text fill="#000000" stroke="none" font-family="Arial" font-size="13px" font-style="normal" font-weight="normal" text-decoration="none" x="738.5" y="512.5">5 : Dialog Fragment</text></g></g><g transform="translate(-22,-30) scale(1,1)"><g><path fill="none" stroke="none"></path><text fill="#000000" stroke="none" font-family="Arial" font-size="13px" font-style="normal" font-weight="normal" text-decoration="none" x="770.5" y="527.5">«create»</text></g></g><g transform="translate(-22,-30) scale(1,1)"><rect fill="#ffffff" stroke="none" x="338" y="496" width="13" height="1200"></rect></g><g transform="translate(-22,-30) scale(1,1)"><path fill="none" stroke="#000000" d="M 338 496 L 351 496 L 351 1696 L 338 1696 L 338 496 Z Z" stroke-miterlimit="10"></path></g><g transform="translate(-22,-30) scale(1,1)"><path fill="none" stroke="#000000" d="M 102 536 L 345 536" stroke-miterlimit="10"></path></g><g transform="translate(-22,-30) scale(1,1)"><path fill="#000000" stroke="none" d="M 334.83732514237585 540.209517756016 L 345 536 L 334.83732514237585 531.790482243984"></path></g><g transform="translate(-22,-30) scale(1,1)"><path fill="none" stroke="#000000" d="M 334.83732514237585 540.209517756016 L 345 536 L 334.83732514237585 531.790482243984 L 334.83732514237585 540.209517756016" stroke-miterlimit="10"></path></g><g transform="translate(-22,-30) scale(1,1)"><g><path fill="none" stroke="none"></path><text fill="#000000" stroke="none" font-family="Arial" font-size="13px" font-style="normal" font-weight="normal" text-decoration="none" x="123" y="532.5">6 : select shipment[[press button]]</text></g></g><g transform="translate(-22,-30) scale(1,1)"><rect fill="#ffffff" stroke="none" x="345" y="536" width="13" height="72"></rect></g><g transform="translate(-22,-30) scale(1,1)"><path fill="none" stroke="#000000" d="M 345 536 L 358 536 L 358 608 L 345 608 L 345 536 Z Z" stroke-miterlimit="10"></path></g><g transform="translate(-22,-30) scale(1,1)"><path fill="none" stroke="#000000" d="M 358 720 L 664 720" stroke-miterlimit="10"></path></g><g transform="translate(-22,-30) scale(1,1)"><path fill="#000000" stroke="none" d="M 653.8373251423759 724.209517756016 L 664 720 L 653.8373251423758 715.790482243984"></path></g><g transform="translate(-22,-30) scale(1,1)"><path fill="none" stroke="#000000" d="M 653.8373251423759 724.209517756016 L 664 720 L 653.8373251423758 715.790482243984 L 653.8373251423759 724.209517756016" stroke-miterlimit="10"></path></g><g transform="translate(-22,-30) scale(1,1)"><g><path fill="none" stroke="none"></path><text fill="#000000" stroke="none" font-family="Arial" font-size="13px" font-style="normal" font-weight="normal" text-decoration="none" x="454" y="716.5">9 : Dialog Fragment</text></g></g><g transform="translate(-22,-30) scale(1,1)"><g><path fill="none" stroke="none"></path><text fill="#000000" stroke="none" font-family="Arial" font-size="13px" font-style="normal" font-weight="normal" text-decoration="none" x="485.5" y="701.5">«create»</text></g></g><g transform="translate(-22,-30) scale(1,1)"><rect fill="#ffffff" stroke="none" x="664" y="720" width="13" height="830"></rect></g><g transform="translate(-22,-30) scale(1,1)"><path fill="none" stroke="#000000" d="M 664 720 L 677 720 L 677 1550 L 664 1550 L 664 720 Z Z" stroke-miterlimit="10"></path></g><g transform="translate(-22,-30) scale(1,1)"><path fill="none" stroke="#000000" d="M 664 768 L 102 768" stroke-miterlimit="10" stroke-dasharray="3"></path></g><g transform="translate(-22,-30) scale(1,1)"><path fill="none" stroke="#000000" d="M 112.16267485762415 763.790482243984 L 102 768 L 112.16267485762415 772.209517756016" stroke-miterlimit="10"></path></g><g transform="translate(-22,-30) scale(1,1)"><g><path fill="none" stroke="none"></path><text fill="#000000" stroke="none" font-family="Arial" font-size="13px" font-style="normal" font-weight="normal" text-decoration="none" x="276.5" y="784.5">10 : show selected payment method</text></g></g><g transform="translate(-22,-30) scale(1,1)"><path fill="none" stroke="#000000" d="M 102 704 L 345 704" stroke-miterlimit="10"></path></g><g transform="translate(-22,-30) scale(1,1)"><path fill="#000000" stroke="none" d="M 334.83732514237585 708.209517756016 L 345 704 L 334.83732514237585 699.790482243984"></path></g><g transform="translate(-22,-30) scale(1,1)"><path fill="none" stroke="#000000" d="M 334.83732514237585 708.209517756016 L 345 704 L 334.83732514237585 699.790482243984 L 334.83732514237585 708.209517756016" stroke-miterlimit="10"></path></g><g transform="translate(-22,-30) scale(1,1)"><g><path fill="none" stroke="none"></path><text fill="#000000" stroke="none" font-family="Arial" font-size="13px" font-style="normal" font-weight="normal" text-decoration="none" x="169" y="700.5">8 : [[press button]]</text></g></g><g transform="translate(-22,-30) scale(1,1)"><rect fill="#ffffff" stroke="none" x="345" y="704" width="13" height="147"></rect></g><g transform="translate(-22,-30) scale(1,1)"><path fill="none" stroke="#000000" d="M 345 704 L 358 704 L 358 851 L 345 851 L 345 704 Z Z" stroke-miterlimit="10"></path></g><g transform="translate(-22,-30) scale(1,1)"><path fill="none" stroke="#000000" d="M 345 592 L 102 592" stroke-miterlimit="10" stroke-dasharray="3"></path></g><g transform="translate(-22,-30) scale(1,1)"><path fill="none" stroke="#000000" d="M 112.16267485762415 587.790482243984 L 102 592 L 112.16267485762415 596.209517756016" stroke-miterlimit="10"></path></g><g transform="translate(-22,-30) scale(1,1)"><g><path fill="none" stroke="none"></path><text fill="#000000" stroke="none" font-family="Arial" font-size="13px" font-style="normal" font-weight="normal" text-decoration="none" x="152.5" y="608.5">7 : show shipment price</text></g></g><g transform="translate(-22,-30) scale(1,1)"><path fill="none" stroke="#000000" d="M 358 800 L 388 800 L 388 820 L 365 820" stroke-miterlimit="10"></path></g><g transform="translate(-22,-30) scale(1,1)"><path fill="#000000" stroke="none" d="M 375.16267485762415 815.790482243984 L 365 820 L 375.16267485762415 824.209517756016"></path></g><g transform="translate(-22,-30) scale(1,1)"><path fill="none" stroke="#000000" d="M 375.16267485762415 815.790482243984 L 365 820 L 375.16267485762415 824.209517756016 L 375.16267485762415 815.790482243984" stroke-miterlimit="10"></path></g><g transform="translate(-22,-30) scale(1,1)"><path fill="none" stroke="#000000" d="M 335 1718 L 355 1738" stroke-miterlimit="10"></path></g><g transform="translate(-22,-30) scale(1,1)"><path fill="none" stroke="#000000" d="M 355 1718 L 335 1738" stroke-miterlimit="10"></path></g><g transform="translate(-22,-30) scale(1,1)"><g><path fill="none" stroke="none"></path><text fill="#000000" stroke="none" font-family="Arial" font-size="13px" font-style="normal" font-weight="normal" text-decoration="none" x="387.5" y="815.5">11 : </text></g></g><g transform="translate(-22,-30) scale(1,1)"><g><path fill="none" stroke="none"></path><text fill="#000000" stroke="none" font-family="Arial" font-size="13px" font-style="normal" font-weight="normal" text-decoration="none" x="416.5" y="812.5">«destroy»</text></g></g><g transform="translate(-22,-30) scale(1,1)"><rect fill="#ffffff" stroke="none" x="352" y="820" width="13" height="28"></rect></g><g transform="translate(-22,-30) scale(1,1)"><path fill="none" stroke="#000000" d="M 352 820 L 365 820 L 365 848 L 352 848 L 352 820 Z Z" stroke-miterlimit="10"></path></g><g transform="translate(-22,-30) scale(1,1)"><path fill="none" stroke="#000000" d="M 102 944 L 671 944" stroke-miterlimit="10"></path></g><g transform="translate(-22,-30) scale(1,1)"><path fill="#000000" stroke="none" d="M 660.8373251423759 948.209517756016 L 671 944 L 660.8373251423758 939.790482243984"></path></g><g transform="translate(-22,-30) scale(1,1)"><path fill="none" stroke="#000000" d="M 660.8373251423759 948.209517756016 L 671 944 L 660.8373251423758 939.790482243984 L 660.8373251423759 948.209517756016" stroke-miterlimit="10"></path></g><g transform="translate(-22,-30) scale(1,1)"><g><path fill="none" stroke="none"></path><text fill="#000000" stroke="none" font-family="Arial" font-size="13px" font-style="normal" font-weight="normal" text-decoration="none" x="317.5" y="940.5">12 : insert payment cod</text></g></g><g transform="translate(-22,-30) scale(1,1)"><rect fill="#ffffff" stroke="none" x="671" y="944" width="13" height="32"></rect></g><g transform="translate(-22,-30) scale(1,1)"><path fill="none" stroke="#000000" d="M 671 944 L 684 944 L 684 976 L 671 976 L 671 944 Z Z" stroke-miterlimit="10"></path></g><g transform="translate(-22,-30) scale(1,1)"><path fill="none" stroke="#000000" d="M 102 1040 L 671 1040" stroke-miterlimit="10"></path></g><g transform="translate(-22,-30) scale(1,1)"><path fill="#000000" stroke="none" d="M 660.8373251423759 1044.2095177560159 L 671 1040 L 660.8373251423758 1035.7904822439841"></path></g><g transform="translate(-22,-30) scale(1,1)"><path fill="none" stroke="#000000" d="M 660.8373251423759 1044.2095177560159 L 671 1040 L 660.8373251423758 1035.7904822439841 L 660.8373251423759 1044.2095177560159" stroke-miterlimit="10"></path></g><g transform="translate(-22,-30) scale(1,1)"><g><path fill="none" stroke="none"></path><text fill="#000000" stroke="none" font-family="Arial" font-size="13px" font-style="normal" font-weight="normal" text-decoration="none" x="328.5" y="1036.5">13 : [[press button]]</text></g></g><g transform="translate(-22,-30) scale(1,1)"><rect fill="#ffffff" stroke="none" x="671" y="1040" width="13" height="75"></rect></g><g transform="translate(-22,-30) scale(1,1)"><path fill="none" stroke="#000000" d="M 671 1040 L 684 1040 L 684 1115 L 671 1115 L 671 1040 Z Z" stroke-miterlimit="10"></path></g><g transform="translate(-22,-30) scale(1,1)"><path fill="none" stroke="#000000" d="M 684 1056 L 816 1056" stroke-miterlimit="10" stroke-dasharray="3"></path></g><g transform="translate(-22,-30) scale(1,1)"><path fill="none" stroke="#000000" d="M 805.8373251423759 1060.2095177560159 L 816 1056 L 805.8373251423758 1051.7904822439841" stroke-miterlimit="10"></path></g><g transform="translate(-22,-30) scale(1,1)"><g><path fill="none" stroke="none"></path><text fill="#000000" stroke="none" font-family="Arial" font-size="13px" font-style="normal" font-weight="normal" text-decoration="none" x="689.5" y="1052.5">14 : Dialog Fragment</text></g></g><g transform="translate(-22,-30) scale(1,1)"><g><path fill="none" stroke="none"></path><text fill="#000000" stroke="none" font-family="Arial" font-size="13px" font-style="normal" font-weight="normal" text-decoration="none" x="724.5" y="1037.5">«create»</text></g></g><g transform="translate(-22,-30) scale(1,1)"><path fill="none" stroke="#000000" d="M 684 1064 L 714 1064 L 714 1084 L 691 1084" stroke-miterlimit="10"></path></g><g transform="translate(-22,-30) scale(1,1)"><path fill="#000000" stroke="none" d="M 701.1626748576241 1079.7904822439841 L 691 1084 L 701.1626748576241 1088.2095177560159"></path></g><g transform="translate(-22,-30) scale(1,1)"><path fill="none" stroke="#000000" d="M 701.1626748576241 1079.7904822439841 L 691 1084 L 701.1626748576241 1088.2095177560159 L 701.1626748576241 1079.7904822439841" stroke-miterlimit="10"></path></g><g transform="translate(-22,-30) scale(1,1)"><path fill="none" stroke="#000000" d="M 661 1718 L 681 1738" stroke-miterlimit="10"></path></g><g transform="translate(-22,-30) scale(1,1)"><path fill="none" stroke="#000000" d="M 681 1718 L 661 1738" stroke-miterlimit="10"></path></g><g transform="translate(-22,-30) scale(1,1)"><g><path fill="none" stroke="none"></path><text fill="#000000" stroke="none" font-family="Arial" font-size="13px" font-style="normal" font-weight="normal" text-decoration="none" x="717.5" y="1076.5">15 : </text></g></g><g transform="translate(-22,-30) scale(1,1)"><g><path fill="none" stroke="none"></path><text fill="#000000" stroke="none" font-family="Arial" font-size="13px" font-style="normal" font-weight="normal" text-decoration="none" x="733.5" y="1076.5">«destroy»</text></g></g><g transform="translate(-22,-30) scale(1,1)"><rect fill="#ffffff" stroke="none" x="678" y="1084" width="13" height="28"></rect></g><g transform="translate(-22,-30) scale(1,1)"><path fill="none" stroke="#000000" d="M 678 1084 L 691 1084 L 691 1112 L 678 1112 L 678 1084 Z Z" stroke-miterlimit="10"></path></g><g transform="translate(-22,-30) scale(1,1)"><path fill="none" stroke="#000000" d="M 877 1128 L 102 1128" stroke-miterlimit="10" stroke-dasharray="3"></path></g><g transform="translate(-22,-30) scale(1,1)"><path fill="none" stroke="#000000" d="M 112.16267485762415 1123.7904822439841 L 102 1128 L 112.16267485762415 1132.2095177560159" stroke-miterlimit="10"></path></g><g transform="translate(-22,-30) scale(1,1)"><g><path fill="none" stroke="none"></path><text fill="#000000" stroke="none" font-family="Arial" font-size="13px" font-style="normal" font-weight="normal" text-decoration="none" x="414.5" y="1144.5">16 : show order summary</text></g></g><g transform="translate(-22,-30) scale(1,1)"><path fill="none" stroke="#000000" d="M 102 1256 L 870 1256" stroke-miterlimit="10"></path></g><g transform="translate(-22,-30) scale(1,1)"><path fill="#000000" stroke="none" d="M 859.8373251423759 1260.2095177560159 L 870 1256 L 859.8373251423758 1251.7904822439841"></path></g><g transform="translate(-22,-30) scale(1,1)"><path fill="none" stroke="#000000" d="M 859.8373251423759 1260.2095177560159 L 870 1256 L 859.8373251423758 1251.7904822439841 L 859.8373251423759 1260.2095177560159" stroke-miterlimit="10"></path></g><g transform="translate(-22,-30) scale(1,1)"><g><path fill="none" stroke="none"></path><text fill="#000000" stroke="none" font-family="Arial" font-size="13px" font-style="normal" font-weight="normal" text-decoration="none" x="428.5" y="1252.5">17 : [[press button]]</text></g></g><g transform="translate(-22,-30) scale(1,1)"><rect fill="#ffffff" stroke="none" x="870" y="1256" width="13" height="48"></rect></g><g transform="translate(-22,-30) scale(1,1)"><path fill="none" stroke="#000000" d="M 870 1256 L 883 1256 L 883 1304 L 870 1304 L 870 1256 Z Z" stroke-miterlimit="10"></path></g><g transform="translate(-22,-30) scale(1,1)"><path fill="none" stroke="#000000" d="M 883 1256 L 1726 1256" stroke-miterlimit="10"></path></g><g transform="translate(-22,-30) scale(1,1)"><path fill="#000000" stroke="none" d="M 1715.837325142376 1260.2095177560159 L 1726 1256 L 1715.837325142376 1251.7904822439841"></path></g><g transform="translate(-22,-30) scale(1,1)"><path fill="none" stroke="#000000" d="M 1715.837325142376 1260.2095177560159 L 1726 1256 L 1715.837325142376 1251.7904822439841 L 1715.837325142376 1260.2095177560159" stroke-miterlimit="10"></path></g><g transform="translate(-22,-30) scale(1,1)"><g><path fill="none" stroke="none"></path><text fill="#000000" stroke="none" font-family="Arial" font-size="13px" font-style="normal" font-weight="normal" text-decoration="none" x="1244.5" y="1244.5">18 : DB.putDocument(.)</text></g></g><g transform="translate(-22,-30) scale(1,1)"><rect fill="#ffffff" stroke="none" x="1726" y="1256" width="13" height="28"></rect></g><g transform="translate(-22,-30) scale(1,1)"><path fill="none" stroke="#000000" d="M 1726 1256 L 1739 1256 L 1739 1284 L 1726 1284 L 1726 1256 Z Z" stroke-miterlimit="10"></path></g><g transform="translate(-22,-30) scale(1,1)"><path fill="none" stroke="#000000" d="M 883 1288 L 1344 1288" stroke-miterlimit="10" stroke-dasharray="3"></path></g><g transform="translate(-22,-30) scale(1,1)"><path fill="none" stroke="#000000" d="M 1333.837325142376 1292.2095177560159 L 1344 1288 L 1333.837325142376 1283.7904822439841" stroke-miterlimit="10"></path></g><g transform="translate(-22,-30) scale(1,1)"><g><path fill="none" stroke="none"></path><text fill="#000000" stroke="none" font-family="Arial" font-size="13px" font-style="normal" font-weight="normal" text-decoration="none" x="1052.5" y="1284.5">19 : Dialog Fragment</text></g></g><g transform="translate(-22,-30) scale(1,1)"><g><path fill="none" stroke="none"></path><text fill="#000000" stroke="none" font-family="Arial" font-size="13px" font-style="normal" font-weight="normal" text-decoration="none" x="1087.5" y="1269.5">«create»</text></g></g><g transform="translate(-22,-30) scale(1,1)"><path fill="none" stroke="#000000" d="M 1402 1316 L 102 1316" stroke-miterlimit="10" stroke-dasharray="3"></path></g><g transform="translate(-22,-30) scale(1,1)"><path fill="none" stroke="#000000" d="M 112.16267485762415 1311.7904822439841 L 102 1316 L 112.16267485762415 1320.2095177560159" stroke-miterlimit="10"></path></g><g transform="translate(-22,-30) scale(1,1)"><g><path fill="none" stroke="none"></path><text fill="#000000" stroke="none" font-family="Arial" font-size="13px" font-style="normal" font-weight="normal" text-decoration="none" x="687.5" y="1312.5">20 : ordine confermato</text></g></g><g transform="translate(-22,-30) scale(1,1)"><path fill="none" stroke="#000000" d="M 1402 1336 L 1535 1336" stroke-miterlimit="10"></path></g><g transform="translate(-22,-30) scale(1,1)"><path fill="#000000" stroke="none" d="M 1524.837325142376 1340.2095177560159 L 1535 1336 L 1524.837325142376 1331.7904822439841"></path></g><g transform="translate(-22,-30) scale(1,1)"><path fill="none" stroke="#000000" d="M 1524.837325142376 1340.2095177560159 L 1535 1336 L 1524.837325142376 1331.7904822439841 L 1524.837325142376 1340.2095177560159" stroke-miterlimit="10"></path></g><g transform="translate(-22,-30) scale(1,1)"><g><path fill="none" stroke="none"></path><text fill="#000000" stroke="none" font-family="Arial" font-size="13px" font-style="normal" font-weight="normal" text-decoration="none" x="1420.5" y="1332.5">21 : removeAll(.)</text></g></g><g transform="translate(-22,-30) scale(1,1)"><rect fill="#ffffff" stroke="none" x="1535" y="1336" width="13" height="28"></rect></g><g transform="translate(-22,-30) scale(1,1)"><path fill="none" stroke="#000000" d="M 1535 1336 L 1548 1336 L 1548 1364 L 1535 1364 L 1535 1336 Z Z" stroke-miterlimit="10"></path></g><g transform="translate(-22,-30) scale(1,1)"><path fill="none" stroke="#000000" d="M 1402 1360 L 1249 1360" stroke-miterlimit="10"></path></g><g transform="translate(-22,-30) scale(1,1)"><path fill="#000000" stroke="none" d="M 1259.162674857624 1355.7904822439841 L 1249 1360 L 1259.162674857624 1364.2095177560159"></path></g><g transform="translate(-22,-30) scale(1,1)"><path fill="none" stroke="#000000" d="M 1259.162674857624 1355.7904822439841 L 1249 1360 L 1259.162674857624 1364.2095177560159 L 1259.162674857624 1355.7904822439841" stroke-miterlimit="10"></path></g><g transform="translate(-22,-30) scale(1,1)"><g><path fill="none" stroke="none"></path><text fill="#000000" stroke="none" font-family="Arial" font-size="13px" font-style="normal" font-weight="normal" text-decoration="none" x="1264.5" y="1376.5">22 : setFragments(.)</text></g></g><g transform="translate(-22,-30) scale(1,1)"><rect fill="#ffffff" stroke="none" x="1236" y="1360" width="13" height="28"></rect></g><g transform="translate(-22,-30) scale(1,1)"><path fill="none" stroke="#000000" d="M 1236 1360 L 1249 1360 L 1249 1388 L 1236 1388 L 1236 1360 Z Z" stroke-miterlimit="10"></path></g><g transform="translate(-22,-30) scale(1,1)"><path fill="none" stroke="#000000" d="M 102 1376 L 870 1376" stroke-miterlimit="10"></path></g><g transform="translate(-22,-30) scale(1,1)"><path fill="#000000" stroke="none" d="M 859.8373251423759 1380.2095177560159 L 870 1376 L 859.8373251423758 1371.7904822439841"></path></g><g transform="translate(-22,-30) scale(1,1)"><path fill="none" stroke="#000000" d="M 859.8373251423759 1380.2095177560159 L 870 1376 L 859.8373251423758 1371.7904822439841 L 859.8373251423759 1380.2095177560159" stroke-miterlimit="10"></path></g><g transform="translate(-22,-30) scale(1,1)"><g><path fill="none" stroke="none"></path><text fill="#000000" stroke="none" font-family="Arial" font-size="13px" font-style="normal" font-weight="normal" text-decoration="none" x="428.5" y="1372.5">23 : [[press button]]</text></g></g><g transform="translate(-22,-30) scale(1,1)"><rect fill="#ffffff" stroke="none" x="870" y="1376" width="13" height="59"></rect></g><g transform="translate(-22,-30) scale(1,1)"><path fill="none" stroke="#000000" d="M 870 1376 L 883 1376 L 883 1435 L 870 1435 L 870 1376 Z Z" stroke-miterlimit="10"></path></g><g transform="translate(-22,-30) scale(1,1)"><path fill="none" stroke="#000000" d="M 883 1384 L 913 1384 L 913 1404 L 890 1404" stroke-miterlimit="10"></path></g><g transform="translate(-22,-30) scale(1,1)"><path fill="#000000" stroke="none" d="M 900.1626748576241 1399.7904822439841 L 890 1404 L 900.1626748576241 1408.2095177560159"></path></g><g transform="translate(-22,-30) scale(1,1)"><path fill="none" stroke="#000000" d="M 900.1626748576241 1399.7904822439841 L 890 1404 L 900.1626748576241 1408.2095177560159 L 900.1626748576241 1399.7904822439841" stroke-miterlimit="10"></path></g><g transform="translate(-22,-30) scale(1,1)"><path fill="none" stroke="#000000" d="M 867 1718 L 887 1738" stroke-miterlimit="10"></path></g><g transform="translate(-22,-30) scale(1,1)"><path fill="none" stroke="#000000" d="M 887 1718 L 867 1738" stroke-miterlimit="10"></path></g><g transform="translate(-22,-30) scale(1,1)"><g><path fill="none" stroke="none"></path><text fill="#000000" stroke="none" font-family="Arial" font-size="13px" font-style="normal" font-weight="normal" text-decoration="none" x="781.5" y="1411.5">24 : </text></g></g><g transform="translate(-22,-30) scale(1,1)"><g><path fill="none" stroke="none"></path><text fill="#000000" stroke="none" font-family="Arial" font-size="13px" font-style="normal" font-weight="normal" text-decoration="none" x="806.5" y="1411.5">«destroy»</text></g></g><g transform="translate(-22,-30) scale(1,1)"><rect fill="#ffffff" stroke="none" x="877" y="1404" width="13" height="28"></rect></g><g transform="translate(-22,-30) scale(1,1)"><path fill="none" stroke="#000000" d="M 877 1404 L 890 1404 L 890 1432 L 877 1432 L 877 1404 Z Z" stroke-miterlimit="10"></path></g><g transform="translate(-22,-30) scale(1,1)"><path fill="none" stroke="#000000" d="M 102 1496 L 671 1496" stroke-miterlimit="10"></path></g><g transform="translate(-22,-30) scale(1,1)"><path fill="#000000" stroke="none" d="M 660.8373251423759 1500.2095177560159 L 671 1496 L 660.8373251423758 1491.7904822439841"></path></g><g transform="translate(-22,-30) scale(1,1)"><path fill="none" stroke="#000000" d="M 660.8373251423759 1500.2095177560159 L 671 1496 L 660.8373251423758 1491.7904822439841 L 660.8373251423759 1500.2095177560159" stroke-miterlimit="10"></path></g><g transform="translate(-22,-30) scale(1,1)"><g><path fill="none" stroke="none"></path><text fill="#000000" stroke="none" font-family="Arial" font-size="13px" font-style="normal" font-weight="normal" text-decoration="none" x="328.5" y="1492.5">25 : [[press button]]</text></g></g><g transform="translate(-22,-30) scale(1,1)"><rect fill="#ffffff" stroke="none" x="671" y="1496" width="13" height="51"></rect></g><g transform="translate(-22,-30) scale(1,1)"><path fill="none" stroke="#000000" d="M 671 1496 L 684 1496 L 684 1547 L 671 1547 L 671 1496 Z Z" stroke-miterlimit="10"></path></g><g transform="translate(-22,-30) scale(1,1)"><path fill="none" stroke="#000000" d="M 684 1496 L 714 1496 L 714 1516 L 691 1516" stroke-miterlimit="10"></path></g><g transform="translate(-22,-30) scale(1,1)"><path fill="#000000" stroke="none" d="M 701.1626748576241 1511.7904822439841 L 691 1516 L 701.1626748576241 1520.2095177560159"></path></g><g transform="translate(-22,-30) scale(1,1)"><path fill="none" stroke="#000000" d="M 701.1626748576241 1511.7904822439841 L 691 1516 L 701.1626748576241 1520.2095177560159 L 701.1626748576241 1511.7904822439841" stroke-miterlimit="10"></path></g><g transform="translate(-22,-30) scale(1,1)"><path fill="none" stroke="#000000" d="M 661 1718 L 681 1738" stroke-miterlimit="10"></path></g><g transform="translate(-22,-30) scale(1,1)"><path fill="none" stroke="#000000" d="M 681 1718 L 661 1738" stroke-miterlimit="10"></path></g><g transform="translate(-22,-30) scale(1,1)"><g><path fill="none" stroke="none"></path><text fill="#000000" stroke="none" font-family="Arial" font-size="13px" font-style="normal" font-weight="normal" text-decoration="none" x="718.5" y="1508.5">26 : </text></g></g><g transform="translate(-22,-30) scale(1,1)"><g><path fill="none" stroke="none"></path><text fill="#000000" stroke="none" font-family="Arial" font-size="13px" font-style="normal" font-weight="normal" text-decoration="none" x="735.5" y="1508.5">«destroy»</text></g></g><g transform="translate(-22,-30) scale(1,1)"><rect fill="#ffffff" stroke="none" x="678" y="1516" width="13" height="28"></rect></g><g transform="translate(-22,-30) scale(1,1)"><path fill="none" stroke="#000000" d="M 678 1516 L 691 1516 L 691 1544 L 678 1544 L 678 1516 Z Z" stroke-miterlimit="10"></path></g><g transform="translate(-22,-30) scale(1,1)"><path fill="none" stroke="#000000" d="M 102 1624 L 345 1624" stroke-miterlimit="10"></path></g><g transform="translate(-22,-30) scale(1,1)"><path fill="#000000" stroke="none" d="M 334.83732514237585 1628.2095177560159 L 345 1624 L 334.83732514237585 1619.7904822439841"></path></g><g transform="translate(-22,-30) scale(1,1)"><path fill="none" stroke="#000000" d="M 334.83732514237585 1628.2095177560159 L 345 1624 L 334.83732514237585 1619.7904822439841 L 334.83732514237585 1628.2095177560159" stroke-miterlimit="10"></path></g><g transform="translate(-22,-30) scale(1,1)"><g><path fill="none" stroke="none"></path><text fill="#000000" stroke="none" font-family="Arial" font-size="13px" font-style="normal" font-weight="normal" text-decoration="none" x="165.5" y="1620.5">27 : [[press button]]</text></g></g><g transform="translate(-22,-30) scale(1,1)"><rect fill="#ffffff" stroke="none" x="345" y="1624" width="13" height="67"></rect></g><g transform="translate(-22,-30) scale(1,1)"><path fill="none" stroke="#000000" d="M 345 1624 L 358 1624 L 358 1691 L 345 1691 L 345 1624 Z Z" stroke-miterlimit="10"></path></g><g transform="translate(-22,-30) scale(1,1)"><path fill="none" stroke="#000000" d="M 358 1640 L 388 1640 L 388 1660 L 365 1660" stroke-miterlimit="10"></path></g><g transform="translate(-22,-30) scale(1,1)"><path fill="#000000" stroke="none" d="M 375.16267485762415 1655.7904822439841 L 365 1660 L 375.16267485762415 1664.2095177560159"></path></g><g transform="translate(-22,-30) scale(1,1)"><path fill="none" stroke="#000000" d="M 375.16267485762415 1655.7904822439841 L 365 1660 L 375.16267485762415 1664.2095177560159 L 375.16267485762415 1655.7904822439841" stroke-miterlimit="10"></path></g><g transform="translate(-22,-30) scale(1,1)"><path fill="none" stroke="#000000" d="M 335 1718 L 355 1738" stroke-miterlimit="10"></path></g><g transform="translate(-22,-30) scale(1,1)"><path fill="none" stroke="#000000" d="M 355 1718 L 335 1738" stroke-miterlimit="10"></path></g><g transform="translate(-22,-30) scale(1,1)"><g><path fill="none" stroke="none"></path><text fill="#000000" stroke="none" font-family="Arial" font-size="13px" font-style="normal" font-weight="normal" text-decoration="none" x="387.5" y="1655.5">28 : </text></g></g><g transform="translate(-22,-30) scale(1,1)"><g><path fill="none" stroke="none"></path><text fill="#000000" stroke="none" font-family="Arial" font-size="13px" font-style="normal" font-weight="normal" text-decoration="none" x="415.5" y="1655.5">«destroy»</text></g></g><g transform="translate(-22,-30) scale(1,1)"><rect fill="#ffffff" stroke="none" x="352" y="1660" width="13" height="28"></rect></g><g transform="translate(-22,-30) scale(1,1)"><path fill="none" stroke="#000000" d="M 352 1660 L 365 1660 L 365 1688 L 352 1688 L 352 1660 Z Z" stroke-miterlimit="10"></path></g></g></svg>