<svg version="1.1" xmlns="http://www.w3.org/2000/svg" xmlns:xlink="http://www.w3.org/1999/xlink" width="1268" height="612"><defs></defs><g><g transform="translate(-30,-30) scale(1,1)"><rect fill="#C0C0C0" stroke="none" x="503" y="47" width="175" height="39" opacity="0.2"></rect></g><g transform="translate(-30,-30) scale(1,1)"><rect fill="#ffffff" stroke="none" x="496" y="40" width="175" height="39"></rect></g><g transform="translate(-30,-30) scale(1,1)"><path fill="none" stroke="#000000" d="M 496 40 L 671 40 L 671 79 L 496 79 L 496 40 Z Z" stroke-miterlimit="10"></path></g><g transform="translate(-30,-30) scale(1,1)"><g><path fill="none" stroke="none"></path><text fill="#000000" stroke="none" font-family="Arial" font-size="13px" font-style="normal" font-weight="bold" text-decoration="none" x="540.5" y="59.5">CarrelloActivity</text></g></g><g transform="translate(-30,-30) scale(1,1)"><path fill="none" stroke="#000000" d="M 584.5 80 L 584.5 632" stroke-miterlimit="10" stroke-dasharray="3"></path></g><g transform="translate(-30,-30) scale(1,1)"><rect fill="#C0C0C0" stroke="none" x="1095" y="47" width="200" height="39" opacity="0.2"></rect></g><g transform="translate(-30,-30) scale(1,1)"><rect fill="#ffffff" stroke="none" x="1088" y="40" width="200" height="39"></rect></g><g transform="translate(-30,-30) scale(1,1)"><path fill="none" stroke="#000000" d="M 1088 40 L 1288 40 L 1288 79 L 1088 79 L 1088 40 Z Z" stroke-miterlimit="10"></path></g><g transform="translate(-30,-30) scale(1,1)"><g><path fill="none" stroke="none"></path><text fill="#000000" stroke="none" font-family="Arial" font-size="13px" font-style="normal" font-weight="bold" text-decoration="none" x="1118" y="59.5">RecyclerAdapterCarrello</text></g></g><g transform="translate(-30,-30) scale(1,1)"><path fill="none" stroke="#000000" d="M 1189.5 80 L 1189.5 632" stroke-miterlimit="10" stroke-dasharray="3"></path></g><g transform="translate(-30,-30) scale(1,1)"><rect fill="#C0C0C0" stroke="none" x="63" y="47" width="74" height="39" opacity="0.2"></rect></g><g transform="translate(-30,-30) scale(1,1)"><rect fill="#ffffff" stroke="none" x="56" y="40" width="74" height="39"></rect></g><g transform="translate(-30,-30) scale(1,1)"><path fill="none" stroke="#000000" d="M 56 40 L 130 40 L 130 79 L 56 79 L 56 40 Z Z" stroke-miterlimit="10"></path></g><g transform="translate(-30,-30) scale(1,1)"><g><path fill="none" stroke="none"></path><text fill="#000000" stroke="none" font-family="Arial" font-size="13px" font-style="normal" font-weight="bold" text-decoration="none" x="79.5" y="59.5">User</text></g></g><g transform="translate(-30,-30) scale(1,1)"><path fill="none" stroke="#000000" d="M 94.5 80 L 94.5 624" stroke-miterlimit="10" stroke-dasharray="3"></path></g><g transform="translate(-30,-30) scale(1,1)"><rect fill="#C0C0C0" stroke="none" x="743" y="47" width="96" height="39" opacity="0.2"></rect></g><g transform="translate(-30,-30) scale(1,1)"><rect fill="#ffffff" stroke="none" x="736" y="40" width="96" height="39"></rect></g><g transform="translate(-30,-30) scale(1,1)"><path fill="none" stroke="#000000" d="M 736 40 L 832 40 L 832 79 L 736 79 L 736 40 Z Z" stroke-miterlimit="10"></path></g><g transform="translate(-30,-30) scale(1,1)"><g><path fill="none" stroke="none"></path><text fill="#000000" stroke="none" font-family="Arial" font-size="13px" font-style="normal" font-weight="bold" text-decoration="none" x="762" y="59.5">Carrello</text></g></g><g transform="translate(-30,-30) scale(1,1)"><path fill="none" stroke="#000000" d="M 785.5 80 L 785.5 632" stroke-miterlimit="10" stroke-dasharray="3"></path></g><g transform="translate(-30,-30) scale(1,1)"><rect fill="#C0C0C0" stroke="none" x="887" y="47" width="153" height="39" opacity="0.2"></rect></g><g transform="translate(-30,-30) scale(1,1)"><rect fill="#ffffff" stroke="none" x="880" y="40" width="153" height="39"></rect></g><g transform="translate(-30,-30) scale(1,1)"><path fill="none" stroke="#000000" d="M 880 40 L 1033 40 L 1033 79 L 880 79 L 880 40 Z Z" stroke-miterlimit="10"></path></g><g transform="translate(-30,-30) scale(1,1)"><g><path fill="none" stroke="none"></path><text fill="#000000" stroke="none" font-family="Arial" font-size="13px" font-style="normal" font-weight="bold" text-decoration="none" x="896.5" y="59.5">CarrelloListFragment</text></g></g><g transform="translate(-30,-30) scale(1,1)"><path fill="none" stroke="#000000" d="M 957.5 80 L 957.5 632" stroke-miterlimit="10" stroke-dasharray="3"></path></g><g transform="translate(-30,-30) scale(1,1)"><rect fill="#C0C0C0" stroke="none" x="255" y="47" width="157" height="39" opacity="0.2"></rect></g><g transform="translate(-30,-30) scale(1,1)"><rect fill="#ffffff" stroke="none" x="248" y="40" width="157" height="39"></rect></g><g transform="translate(-30,-30) scale(1,1)"><path fill="none" stroke="#000000" d="M 248 40 L 405 40 L 405 79 L 248 79 L 248 40 Z Z" stroke-miterlimit="10"></path></g><g transform="translate(-30,-30) scale(1,1)"><g><path fill="none" stroke="none"></path><text fill="#000000" stroke="none" font-family="Arial" font-size="13px" font-style="normal" font-weight="bold" text-decoration="none" x="290.5" y="59.5">CarrelloView</text></g></g><g transform="translate(-30,-30) scale(1,1)"><path fill="none" stroke="#000000" d="M 327.5 80 L 327.5 632" stroke-miterlimit="10" stroke-dasharray="3"></path></g><g transform="translate(-30,-30) scale(1,1)"><path fill="none" stroke="#000000" d="M 40 400 L 1264 400 L 1264 560 L 40 560 L 40 400" stroke-miterlimit="10"></path></g><g transform="translate(-30,-30) scale(1,1)"><path fill="#ffffff" stroke="none" d="M 40 400 L 40 422 L 247 422 L 258 411 L 258 400 L 40 400"></path></g><g transform="translate(-30,-30) scale(1,1)"><path fill="none" stroke="#000000" d="M 40 400 L 40 422 L 247 422 L 258 411 L 258 400 L 40 400 L 40 400" stroke-miterlimit="10"></path></g><g transform="translate(-30,-30) scale(1,1)"><g><path fill="none" stroke="none"></path><text fill="#000000" stroke="none" font-family="Arial" font-size="13px" font-style="normal" font-weight="normal" text-decoration="none" x="75" y="417.5">[!user ends remove products]</text></g></g><g transform="translate(-30,-30) scale(1,1)"><g><path fill="none" stroke="none"></path><text fill="#000000" stroke="none" font-family="Arial" font-size="13px" font-style="normal" font-weight="bold" text-decoration="none" x="45" y="417.5">loop</text></g></g><g transform="translate(-30,-30) scale(1,1)"><path fill="none" stroke="#000000" d="M 584 152 L 778 152" stroke-miterlimit="10"></path></g><g transform="translate(-30,-30) scale(1,1)"><path fill="#000000" stroke="none" d="M 767.8373251423759 156.209517756016 L 778 152 L 767.8373251423758 147.790482243984"></path></g><g transform="translate(-30,-30) scale(1,1)"><path fill="none" stroke="#000000" d="M 767.8373251423759 156.209517756016 L 778 152 L 767.8373251423758 147.790482243984 L 767.8373251423759 156.209517756016" stroke-miterlimit="10"></path></g><g transform="translate(-30,-30) scale(1,1)"><g><path fill="none" stroke="none"></path><text fill="#000000" stroke="none" font-family="Arial" font-size="13px" font-style="normal" font-weight="normal" text-decoration="none" x="631" y="143.5">2 : getInstance(.)</text></g></g><g transform="translate(-30,-30) scale(1,1)"><rect fill="#ffffff" stroke="none" x="778" y="152" width="13" height="48"></rect></g><g transform="translate(-30,-30) scale(1,1)"><path fill="none" stroke="#000000" d="M 778 152 L 791 152 L 791 200 L 778 200 L 778 152 Z Z" stroke-miterlimit="10"></path></g><g transform="translate(-30,-30) scale(1,1)"><path fill="none" stroke="#000000" d="M 778 192 L 584 192" stroke-miterlimit="10" stroke-dasharray="3"></path></g><g transform="translate(-30,-30) scale(1,1)"><path fill="none" stroke="#000000" d="M 594.1626748576241 187.790482243984 L 584 192 L 594.1626748576241 196.209517756016" stroke-miterlimit="10"></path></g><g transform="translate(-30,-30) scale(1,1)"><g><path fill="none" stroke="none"></path><text fill="#000000" stroke="none" font-family="Arial" font-size="13px" font-style="normal" font-weight="normal" text-decoration="none" x="629.5" y="208.5">3 : return Carrello</text></g></g><g transform="translate(-30,-30) scale(1,1)"><path fill="none" stroke="#000000" d="M 584 272 L 950 272" stroke-miterlimit="10"></path></g><g transform="translate(-30,-30) scale(1,1)"><path fill="#000000" stroke="none" d="M 939.8373251423759 276.209517756016 L 950 272 L 939.8373251423758 267.790482243984"></path></g><g transform="translate(-30,-30) scale(1,1)"><path fill="none" stroke="#000000" d="M 939.8373251423759 276.209517756016 L 950 272 L 939.8373251423758 267.790482243984 L 939.8373251423759 276.209517756016" stroke-miterlimit="10"></path></g><g transform="translate(-30,-30) scale(1,1)"><g><path fill="none" stroke="none"></path><text fill="#000000" stroke="none" font-family="Arial" font-size="13px" font-style="normal" font-weight="normal" text-decoration="none" x="697" y="268.5">4 : CarrelloListFragment</text></g></g><g transform="translate(-30,-30) scale(1,1)"><g><path fill="none" stroke="none"></path><text fill="#000000" stroke="none" font-family="Arial" font-size="13px" font-style="normal" font-weight="normal" text-decoration="none" x="741.5" y="253.5">«create»</text></g></g><g transform="translate(-30,-30) scale(1,1)"><rect fill="#ffffff" stroke="none" x="950" y="272" width="13" height="32"></rect></g><g transform="translate(-30,-30) scale(1,1)"><path fill="none" stroke="#000000" d="M 950 272 L 963 272 L 963 304 L 950 304 L 950 272 Z Z" stroke-miterlimit="10"></path></g><g transform="translate(-30,-30) scale(1,1)"><path fill="none" stroke="#000000" d="M 963 273 L 1182 273" stroke-miterlimit="10"></path></g><g transform="translate(-30,-30) scale(1,1)"><path fill="#000000" stroke="none" d="M 1171.837325142376 277.209517756016 L 1182 273 L 1171.837325142376 268.790482243984"></path></g><g transform="translate(-30,-30) scale(1,1)"><path fill="none" stroke="#000000" d="M 1171.837325142376 277.209517756016 L 1182 273 L 1171.837325142376 268.790482243984 L 1171.837325142376 277.209517756016" stroke-miterlimit="10"></path></g><g transform="translate(-30,-30) scale(1,1)"><g><path fill="none" stroke="none"></path><text fill="#000000" stroke="none" font-family="Arial" font-size="13px" font-style="normal" font-weight="normal" text-decoration="none" x="993.5" y="269.5">5 : setAdapter(new Layout)</text></g></g><g transform="translate(-30,-30) scale(1,1)"><rect fill="#ffffff" stroke="none" x="1182" y="273" width="13" height="31"></rect></g><g transform="translate(-30,-30) scale(1,1)"><path fill="none" stroke="#000000" d="M 1182 273 L 1195 273 L 1195 304 L 1182 304 L 1182 273 Z Z" stroke-miterlimit="10"></path></g><g transform="translate(-30,-30) scale(1,1)"><path fill="none" stroke="#000000" d="M 1182 296 L 963 296" stroke-miterlimit="10" stroke-dasharray="3"></path></g><g transform="translate(-30,-30) scale(1,1)"><path fill="none" stroke="#000000" d="M 973.1626748576241 291.790482243984 L 963 296 L 973.1626748576241 300.209517756016" stroke-miterlimit="10"></path></g><g transform="translate(-30,-30) scale(1,1)"><g><path fill="none" stroke="none"></path><text fill="#000000" stroke="none" font-family="Arial" font-size="13px" font-style="normal" font-weight="normal" text-decoration="none" x="990" y="315.5">6 : new ViewHolderCarrello(.)</text></g></g><g transform="translate(-30,-30) scale(1,1)"><path fill="none" stroke="#000000" d="M 950 299 L 584 299" stroke-miterlimit="10" stroke-dasharray="3"></path></g><g transform="translate(-30,-30) scale(1,1)"><path fill="none" stroke="#000000" d="M 594.1626748576241 294.790482243984 L 584 299 L 594.1626748576241 303.209517756016" stroke-miterlimit="10"></path></g><g transform="translate(-30,-30) scale(1,1)"><g><path fill="none" stroke="none"></path><text fill="#000000" stroke="none" font-family="Arial" font-size="13px" font-style="normal" font-weight="normal" text-decoration="none" x="663.5" y="315.5">7 : new View(fragment_carrello_list)</text></g></g><g transform="translate(-30,-30) scale(1,1)"><path fill="none" stroke="#000000" d="M 584 320 L 327 320" stroke-miterlimit="10" stroke-dasharray="3"></path></g><g transform="translate(-30,-30) scale(1,1)"><path fill="none" stroke="#000000" d="M 337.16267485762415 315.790482243984 L 327 320 L 337.16267485762415 324.209517756016" stroke-miterlimit="10"></path></g><g transform="translate(-30,-30) scale(1,1)"><g><path fill="none" stroke="none"></path><text fill="#000000" stroke="none" font-family="Arial" font-size="13px" font-style="normal" font-weight="normal" text-decoration="none" x="421" y="336.5">8 : inflate(.)</text></g></g><g transform="translate(-30,-30) scale(1,1)"><path fill="none" stroke="#000000" d="M 94 448 L 320 448" stroke-miterlimit="10"></path></g><g transform="translate(-30,-30) scale(1,1)"><path fill="#000000" stroke="none" d="M 309.83732514237585 452.209517756016 L 320 448 L 309.83732514237585 443.790482243984"></path></g><g transform="translate(-30,-30) scale(1,1)"><path fill="none" stroke="#000000" d="M 309.83732514237585 452.209517756016 L 320 448 L 309.83732514237585 443.790482243984 L 309.83732514237585 452.209517756016" stroke-miterlimit="10"></path></g><g transform="translate(-30,-30) scale(1,1)"><g><path fill="none" stroke="none"></path><text fill="#000000" stroke="none" font-family="Arial" font-size="13px" font-style="normal" font-weight="normal" text-decoration="none" x="109" y="444.5">9 : remove product[[press button]]</text></g></g><g transform="translate(-30,-30) scale(1,1)"><rect fill="#ffffff" stroke="none" x="320" y="448" width="13" height="28"></rect></g><g transform="translate(-30,-30) scale(1,1)"><path fill="none" stroke="#000000" d="M 320 448 L 333 448 L 333 476 L 320 476 L 320 448 Z Z" stroke-miterlimit="10"></path></g><g transform="translate(-30,-30) scale(1,1)"><path fill="none" stroke="#000000" d="M 333 464 L 1182 464" stroke-miterlimit="10"></path></g><g transform="translate(-30,-30) scale(1,1)"><path fill="#000000" stroke="none" d="M 1171.837325142376 468.209517756016 L 1182 464 L 1171.837325142376 459.790482243984"></path></g><g transform="translate(-30,-30) scale(1,1)"><path fill="none" stroke="#000000" d="M 1171.837325142376 468.209517756016 L 1182 464 L 1171.837325142376 459.790482243984 L 1171.837325142376 468.209517756016" stroke-miterlimit="10"></path></g><g transform="translate(-30,-30) scale(1,1)"><g><path fill="none" stroke="none"></path><text fill="#000000" stroke="none" font-family="Arial" font-size="13px" font-style="normal" font-weight="normal" text-decoration="none" x="692.5" y="460.5">10 : [[pressed button]]</text></g></g><g transform="translate(-30,-30) scale(1,1)"><rect fill="#ffffff" stroke="none" x="1182" y="464" width="13" height="28"></rect></g><g transform="translate(-30,-30) scale(1,1)"><path fill="none" stroke="#000000" d="M 1182 464 L 1195 464 L 1195 492 L 1182 492 L 1182 464 Z Z" stroke-miterlimit="10"></path></g><g transform="translate(-30,-30) scale(1,1)"><path fill="none" stroke="#000000" d="M 1182 480 L 791 480" stroke-miterlimit="10"></path></g><g transform="translate(-30,-30) scale(1,1)"><path fill="#000000" stroke="none" d="M 801.1626748576241 475.790482243984 L 791 480 L 801.1626748576241 484.209517756016"></path></g><g transform="translate(-30,-30) scale(1,1)"><path fill="none" stroke="#000000" d="M 801.1626748576241 475.790482243984 L 791 480 L 801.1626748576241 484.209517756016 L 801.1626748576241 475.790482243984" stroke-miterlimit="10"></path></g><g transform="translate(-30,-30) scale(1,1)"><g><path fill="none" stroke="none"></path><text fill="#000000" stroke="none" font-family="Arial" font-size="13px" font-style="normal" font-weight="normal" text-decoration="none" x="922.5" y="496.5">11 : removeProduct(.)</text></g></g><g transform="translate(-30,-30) scale(1,1)"><rect fill="#ffffff" stroke="none" x="778" y="480" width="13" height="28"></rect></g><g transform="translate(-30,-30) scale(1,1)"><path fill="none" stroke="#000000" d="M 778 480 L 791 480 L 791 508 L 778 508 L 778 480 Z Z" stroke-miterlimit="10"></path></g><g transform="translate(-30,-30) scale(1,1)"><path fill="none" stroke="#000000" d="M 1189 512 L 584 512" stroke-miterlimit="10" stroke-dasharray="3"></path></g><g transform="translate(-30,-30) scale(1,1)"><path fill="none" stroke="#000000" d="M 594.1626748576241 507.790482243984 L 584 512 L 594.1626748576241 516.209517756016" stroke-miterlimit="10"></path></g><g transform="translate(-30,-30) scale(1,1)"><g><path fill="none" stroke="none"></path><text fill="#000000" stroke="none" font-family="Arial" font-size="13px" font-style="normal" font-weight="normal" text-decoration="none" x="844.5" y="528.5">12 : [[refresh]]</text></g></g><g transform="translate(-30,-30) scale(1,1)"><path fill="none" stroke="#000000" d="M 584 520 L 333 520" stroke-miterlimit="10"></path></g><g transform="translate(-30,-30) scale(1,1)"><path fill="#000000" stroke="none" d="M 343.16267485762415 515.790482243984 L 333 520 L 343.16267485762415 524.209517756016"></path></g><g transform="translate(-30,-30) scale(1,1)"><path fill="none" stroke="#000000" d="M 343.16267485762415 515.790482243984 L 333 520 L 343.16267485762415 524.209517756016 L 343.16267485762415 515.790482243984" stroke-miterlimit="10"></path></g><g transform="translate(-30,-30) scale(1,1)"><g><path fill="none" stroke="none"></path><text fill="#000000" stroke="none" font-family="Arial" font-size="13px" font-style="normal" font-weight="normal" text-decoration="none" x="398" y="536.5">13 : setFragments(.)</text></g></g><g transform="translate(-30,-30) scale(1,1)"><rect fill="#ffffff" stroke="none" x="320" y="520" width="13" height="28"></rect></g><g transform="translate(-30,-30) scale(1,1)"><path fill="none" stroke="#000000" d="M 320 520 L 333 520 L 333 548 L 320 548 L 320 520 Z Z" stroke-miterlimit="10"></path></g><g transform="translate(-30,-30) scale(1,1)"><path fill="none" stroke="#000000" d="M 584 128 L 327 128" stroke-miterlimit="10" stroke-dasharray="3"></path></g><g transform="translate(-30,-30) scale(1,1)"><path fill="none" stroke="#000000" d="M 337.16267485762415 123.79048224398402 L 327 128 L 337.16267485762415 132.209517756016" stroke-miterlimit="10"></path></g><g transform="translate(-30,-30) scale(1,1)"><g><path fill="none" stroke="none"></path><text fill="#000000" stroke="none" font-family="Arial" font-size="13px" font-style="normal" font-weight="normal" text-decoration="none" x="358.5" y="144.5">1 : setContentView(carrello_view)</text></g></g></g></svg>