<svg version="1.1" xmlns="http://www.w3.org/2000/svg" xmlns:xlink="http://www.w3.org/1999/xlink" width="708" height="876"><defs></defs><g><g transform="translate(-38,-30) scale(1,1)"><rect fill="#C0C0C0" stroke="none" x="71" y="47" width="74" height="39" opacity="0.2"></rect></g><g transform="translate(-38,-30) scale(1,1)"><rect fill="#ffffff" stroke="none" x="64" y="40" width="74" height="39"></rect></g><g transform="translate(-38,-30) scale(1,1)"><path fill="none" stroke="#000000" d="M 64 40 L 138 40 L 138 79 L 64 79 L 64 40 Z Z" stroke-miterlimit="10"></path></g><g transform="translate(-38,-30) scale(1,1)"><g><path fill="none" stroke="none"></path><text fill="#000000" stroke="none" font-family="Arial" font-size="13px" font-style="normal" font-weight="bold" text-decoration="none" x="81" y="59.5">Cliente</text></g></g><g transform="translate(-38,-30) scale(1,1)"><path fill="none" stroke="#000000" d="M 102.5 80 L 102.5 896" stroke-miterlimit="10" stroke-dasharray="3"></path></g><g transform="translate(-38,-30) scale(1,1)"><rect fill="#C0C0C0" stroke="none" x="623" y="47" width="119" height="39" opacity="0.2"></rect></g><g transform="translate(-38,-30) scale(1,1)"><rect fill="#ffffff" stroke="none" x="616" y="40" width="119" height="39"></rect></g><g transform="translate(-38,-30) scale(1,1)"><path fill="none" stroke="#000000" d="M 616 40 L 735 40 L 735 79 L 616 79 L 616 40 Z Z" stroke-miterlimit="10"></path></g><g transform="translate(-38,-30) scale(1,1)"><g><path fill="none" stroke="none"></path><text fill="#000000" stroke="none" font-family="Arial" font-size="13px" font-style="normal" font-weight="bold" text-decoration="none" x="651.5" y="59.5">Sistema</text></g></g><g transform="translate(-38,-30) scale(1,1)"><path fill="none" stroke="#000000" d="M 676.5 80 L 676.5 896" stroke-miterlimit="10" stroke-dasharray="3"></path></g><g transform="translate(-38,-30) scale(1,1)"><path fill="none" stroke="#000000" d="M 56 400 L 736 400 L 736 528 L 56 528 L 56 400" stroke-miterlimit="10"></path></g><g transform="translate(-38,-30) scale(1,1)"><path fill="#ffffff" stroke="none" d="M 56 400 L 56 422 L 90 422 L 101 411 L 101 400 L 56 400"></path></g><g transform="translate(-38,-30) scale(1,1)"><path fill="none" stroke="#000000" d="M 56 400 L 56 422 L 90 422 L 101 411 L 101 400 L 56 400 L 56 400" stroke-miterlimit="10"></path></g><g transform="translate(-38,-30) scale(1,1)"><g><path fill="none" stroke="none"></path><text fill="#000000" stroke="none" font-family="Arial" font-size="13px" font-style="normal" font-weight="bold" text-decoration="none" x="61" y="417.5">opt</text></g></g><g transform="translate(-38,-30) scale(1,1)"><g><path fill="none" stroke="none"></path><text fill="#000000" stroke="none" font-family="Arial" font-size="13px" font-style="normal" font-weight="normal" text-decoration="none" x="75.5" y="450.5">[non soddisfatto dei prodotti aggiunti]</text></g></g><g transform="translate(-38,-30) scale(1,1)"><path fill="none" stroke="#000000" d="M 48 600 L 735 600 L 735 728 L 48 728 L 48 600" stroke-miterlimit="10"></path></g><g transform="translate(-38,-30) scale(1,1)"><path fill="#ffffff" stroke="none" d="M 48 600 L 48 622 L 82 622 L 93 611 L 93 600 L 48 600"></path></g><g transform="translate(-38,-30) scale(1,1)"><path fill="none" stroke="#000000" d="M 48 600 L 48 622 L 82 622 L 93 611 L 93 600 L 48 600 L 48 600" stroke-miterlimit="10"></path></g><g transform="translate(-38,-30) scale(1,1)"><g><path fill="none" stroke="none"></path><text fill="#000000" stroke="none" font-family="Arial" font-size="13px" font-style="normal" font-weight="bold" text-decoration="none" x="53" y="617.5">opt</text></g></g><g transform="translate(-38,-30) scale(1,1)"><g><path fill="none" stroke="none"></path><text fill="#000000" stroke="none" font-family="Arial" font-size="13px" font-style="normal" font-weight="normal" text-decoration="none" x="67.5" y="650.5">[utente non autenticato]</text></g></g><g transform="translate(-38,-30) scale(1,1)"><path fill="none" stroke="#000000" d="M 56 128 L 735 128 L 735 256 L 56 256 L 56 128" stroke-miterlimit="10"></path></g><g transform="translate(-38,-30) scale(1,1)"><path fill="#ffffff" stroke="none" d="M 56 128 L 56 150 L 96 150 L 107 139 L 107 128 L 56 128"></path></g><g transform="translate(-38,-30) scale(1,1)"><path fill="none" stroke="#000000" d="M 56 128 L 56 150 L 96 150 L 107 139 L 107 128 L 56 128 L 56 128" stroke-miterlimit="10"></path></g><g transform="translate(-38,-30) scale(1,1)"><g><path fill="none" stroke="none"></path><text fill="#000000" stroke="none" font-family="Arial" font-size="13px" font-style="normal" font-weight="bold" text-decoration="none" x="61" y="145.5">loop</text></g></g><g transform="translate(-38,-30) scale(1,1)"><g><path fill="none" stroke="none"></path><text fill="#000000" stroke="none" font-family="Arial" font-size="13px" font-style="normal" font-weight="normal" text-decoration="none" x="75.5" y="178.5">[while (carrello non contiene tutti i prodotti desiderati)]</text></g></g><g transform="translate(-38,-30) scale(1,1)"><path fill="none" stroke="#000000" d="M 676 96 L 102 96" stroke-miterlimit="10" stroke-dasharray="3"></path></g><g transform="translate(-38,-30) scale(1,1)"><path fill="none" stroke="#000000" d="M 112.16267485762415 91.79048224398402 L 102 96 L 112.16267485762415 100.20951775601598" stroke-miterlimit="10"></path></g><g transform="translate(-38,-30) scale(1,1)"><g><path fill="none" stroke="none"></path><text fill="#000000" stroke="none" font-family="Arial" font-size="13px" font-style="normal" font-weight="normal" text-decoration="none" x="308.5" y="112.5">1 : visualizzazione catalogo</text></g></g><g transform="translate(-38,-30) scale(1,1)"><path fill="none" stroke="#000000" d="M 102 312 L 669 312" stroke-miterlimit="10"></path></g><g transform="translate(-38,-30) scale(1,1)"><path fill="#000000" stroke="none" d="M 658.8373251423759 316.209517756016 L 669 312 L 658.8373251423758 307.790482243984"></path></g><g transform="translate(-38,-30) scale(1,1)"><path fill="none" stroke="#000000" d="M 658.8373251423759 316.209517756016 L 669 312 L 658.8373251423758 307.790482243984 L 658.8373251423759 316.209517756016" stroke-miterlimit="10"></path></g><g transform="translate(-38,-30) scale(1,1)"><g><path fill="none" stroke="none"></path><text fill="#000000" stroke="none" font-family="Arial" font-size="13px" font-style="normal" font-weight="normal" text-decoration="none" x="324.5" y="308.5">3 : seleziona carrello</text></g></g><g transform="translate(-38,-30) scale(1,1)"><rect fill="#ffffff" stroke="none" x="669" y="312" width="13" height="51"></rect></g><g transform="translate(-38,-30) scale(1,1)"><path fill="none" stroke="#000000" d="M 669 312 L 682 312 L 682 363 L 669 363 L 669 312 Z Z" stroke-miterlimit="10"></path></g><g transform="translate(-38,-30) scale(1,1)"><path fill="none" stroke="#000000" d="M 102 216 L 669 216" stroke-miterlimit="10"></path></g><g transform="translate(-38,-30) scale(1,1)"><path fill="#000000" stroke="none" d="M 658.8373251423759 220.209517756016 L 669 216 L 658.8373251423758 211.790482243984"></path></g><g transform="translate(-38,-30) scale(1,1)"><path fill="none" stroke="#000000" d="M 658.8373251423759 220.209517756016 L 669 216 L 658.8373251423758 211.790482243984 L 658.8373251423759 220.209517756016" stroke-miterlimit="10"></path></g><g transform="translate(-38,-30) scale(1,1)"><g><path fill="none" stroke="none"></path><text fill="#000000" stroke="none" font-family="Arial" font-size="13px" font-style="normal" font-weight="normal" text-decoration="none" x="294" y="212.5">2 : aggiunge prodotto al carrello</text></g></g><g transform="translate(-38,-30) scale(1,1)"><rect fill="#ffffff" stroke="none" x="669" y="216" width="13" height="28"></rect></g><g transform="translate(-38,-30) scale(1,1)"><path fill="none" stroke="#000000" d="M 669 216 L 682 216 L 682 244 L 669 244 L 669 216 Z Z" stroke-miterlimit="10"></path></g><g transform="translate(-38,-30) scale(1,1)"><path fill="none" stroke="#000000" d="M 669 352 L 102 352" stroke-miterlimit="10" stroke-dasharray="3"></path></g><g transform="translate(-38,-30) scale(1,1)"><path fill="none" stroke="#000000" d="M 112.16267485762415 347.790482243984 L 102 352 L 112.16267485762415 356.209517756016" stroke-miterlimit="10"></path></g><g transform="translate(-38,-30) scale(1,1)"><g><path fill="none" stroke="none"></path><text fill="#000000" stroke="none" font-family="Arial" font-size="13px" font-style="normal" font-weight="normal" text-decoration="none" x="307.5" y="368.5">4 : visualizzazione carrello</text></g></g><g transform="translate(-38,-30) scale(1,1)"><path fill="none" stroke="#000000" d="M 102 472 L 669 472" stroke-miterlimit="10"></path></g><g transform="translate(-38,-30) scale(1,1)"><path fill="#000000" stroke="none" d="M 658.8373251423759 476.209517756016 L 669 472 L 658.8373251423758 467.790482243984"></path></g><g transform="translate(-38,-30) scale(1,1)"><path fill="none" stroke="#000000" d="M 658.8373251423759 476.209517756016 L 669 472 L 658.8373251423758 467.790482243984 L 658.8373251423759 476.209517756016" stroke-miterlimit="10"></path></g><g transform="translate(-38,-30) scale(1,1)"><g><path fill="none" stroke="none"></path><text fill="#000000" stroke="none" font-family="Arial" font-size="13px" font-style="normal" font-weight="normal" text-decoration="none" x="329.5" y="468.5">5 : rimuove prodotti</text></g></g><g transform="translate(-38,-30) scale(1,1)"><rect fill="#ffffff" stroke="none" x="669" y="472" width="13" height="32"></rect></g><g transform="translate(-38,-30) scale(1,1)"><path fill="none" stroke="#000000" d="M 669 472 L 682 472 L 682 504 L 669 504 L 669 472 Z Z" stroke-miterlimit="10"></path></g><g transform="translate(-38,-30) scale(1,1)"><path fill="none" stroke="#000000" d="M 102 568 L 669 568" stroke-miterlimit="10"></path></g><g transform="translate(-38,-30) scale(1,1)"><path fill="#000000" stroke="none" d="M 658.8373251423759 572.209517756016 L 669 568 L 658.8373251423758 563.790482243984"></path></g><g transform="translate(-38,-30) scale(1,1)"><path fill="none" stroke="#000000" d="M 658.8373251423759 572.209517756016 L 669 568 L 658.8373251423758 563.790482243984 L 658.8373251423759 572.209517756016" stroke-miterlimit="10"></path></g><g transform="translate(-38,-30) scale(1,1)"><g><path fill="none" stroke="none"></path><text fill="#000000" stroke="none" font-family="Arial" font-size="13px" font-style="normal" font-weight="normal" text-decoration="none" x="345" y="563.5">6 : acquista</text></g></g><g transform="translate(-38,-30) scale(1,1)"><rect fill="#ffffff" stroke="none" x="669" y="568" width="13" height="272"></rect></g><g transform="translate(-38,-30) scale(1,1)"><path fill="none" stroke="#000000" d="M 669 568 L 682 568 L 682 840 L 669 840 L 669 568 Z Z" stroke-miterlimit="10"></path></g><g transform="translate(-38,-30) scale(1,1)"><path fill="none" stroke="#000000" d="M 669 688 L 102 688" stroke-miterlimit="10" stroke-dasharray="3"></path></g><g transform="translate(-38,-30) scale(1,1)"><path fill="none" stroke="#000000" d="M 112.16267485762415 683.790482243984 L 102 688 L 112.16267485762415 692.209517756016" stroke-miterlimit="10"></path></g><g transform="translate(-38,-30) scale(1,1)"><g><path fill="none" stroke="none"></path><text fill="#000000" stroke="none" font-family="Arial" font-size="13px" font-style="normal" font-weight="normal" text-decoration="none" x="305.5" y="704.5">7 : richiesta autenticazione</text></g></g><g transform="translate(-38,-30) scale(1,1)"><path fill="none" stroke="#000000" d="M 676 808 L 102 808" stroke-miterlimit="10" stroke-dasharray="3"></path></g><g transform="translate(-38,-30) scale(1,1)"><path fill="none" stroke="#000000" d="M 112.16267485762415 803.790482243984 L 102 808 L 112.16267485762415 812.209517756016" stroke-miterlimit="10"></path></g><g transform="translate(-38,-30) scale(1,1)"><g><path fill="none" stroke="none"></path><text fill="#000000" stroke="none" font-family="Arial" font-size="13px" font-style="normal" font-weight="normal" text-decoration="none" x="321" y="828.5">9 : ordine effettuato</text></g></g><g transform="translate(-38,-30) scale(1,1)"><path fill="none" stroke="#000000" d="M 102 768 L 676 768" stroke-miterlimit="10"></path></g><g transform="translate(-38,-30) scale(1,1)"><path fill="#000000" stroke="none" d="M 665.8373251423759 772.209517756016 L 676 768 L 665.8373251423758 763.790482243984"></path></g><g transform="translate(-38,-30) scale(1,1)"><path fill="none" stroke="#000000" d="M 665.8373251423759 772.209517756016 L 676 768 L 665.8373251423758 763.790482243984 L 665.8373251423759 772.209517756016" stroke-miterlimit="10"></path></g><g transform="translate(-38,-30) scale(1,1)"><g><path fill="none" stroke="none"></path><text fill="#000000" stroke="none" font-family="Arial" font-size="13px" font-style="normal" font-weight="normal" text-decoration="none" x="306.5" y="764.5">8 : conferma dati di acquisto</text></g></g><g transform="translate(-38,-30) scale(1,1)"><rect fill="#ffffff" stroke="none" x="676" y="768" width="13" height="61"></rect></g><g transform="translate(-38,-30) scale(1,1)"><path fill="none" stroke="#000000" d="M 676 768 L 689 768 L 689 829 L 676 829 L 676 768 Z Z" stroke-miterlimit="10"></path></g></g></svg>