<svg version="1.1" xmlns="http://www.w3.org/2000/svg" xmlns:xlink="http://www.w3.org/1999/xlink" width="764" height="1060"><defs></defs><g><g transform="translate(-6,-30) scale(1,1)"><rect fill="#C0C0C0" stroke="none" x="47" y="47" width="79" height="39" opacity="0.2"></rect></g><g transform="translate(-6,-30) scale(1,1)"><rect fill="#ffffff" stroke="none" x="40" y="40" width="79" height="39"></rect></g><g transform="translate(-6,-30) scale(1,1)"><path fill="none" stroke="#000000" d="M 40 40 L 119 40 L 119 79 L 40 79 L 40 40 Z Z" stroke-miterlimit="10"></path></g><g transform="translate(-6,-30) scale(1,1)"><g><path fill="none" stroke="none"></path><text fill="#000000" stroke="none" font-family="Arial" font-size="13px" font-style="normal" font-weight="bold" text-decoration="none" x="59.5" y="59.5">Cliente</text></g></g><g transform="translate(-6,-30) scale(1,1)"><path fill="none" stroke="#000000" d="M 80.5 80 L 80.5 1080" stroke-miterlimit="10" stroke-dasharray="3"></path></g><g transform="translate(-6,-30) scale(1,1)"><rect fill="#C0C0C0" stroke="none" x="335" y="47" width="74" height="39" opacity="0.2"></rect></g><g transform="translate(-6,-30) scale(1,1)"><rect fill="#ffffff" stroke="none" x="328" y="40" width="74" height="39"></rect></g><g transform="translate(-6,-30) scale(1,1)"><path fill="none" stroke="#000000" d="M 328 40 L 402 40 L 402 79 L 328 79 L 328 40 Z Z" stroke-miterlimit="10"></path></g><g transform="translate(-6,-30) scale(1,1)"><g><path fill="none" stroke="none"></path><text fill="#000000" stroke="none" font-family="Arial" font-size="13px" font-style="normal" font-weight="bold" text-decoration="none" x="341" y="59.5">Sistema</text></g></g><g transform="translate(-6,-30) scale(1,1)"><path fill="none" stroke="#000000" d="M 366.5 80 L 366.5 1080" stroke-miterlimit="10" stroke-dasharray="3"></path></g><g transform="translate(-6,-30) scale(1,1)"><rect fill="#C0C0C0" stroke="none" x="663" y="47" width="78" height="39" opacity="0.2"></rect></g><g transform="translate(-6,-30) scale(1,1)"><rect fill="#ffffff" stroke="none" x="656" y="40" width="78" height="39"></rect></g><g transform="translate(-6,-30) scale(1,1)"><path fill="none" stroke="#000000" d="M 656 40 L 734 40 L 734 79 L 656 79 L 656 40 Z Z" stroke-miterlimit="10"></path></g><g transform="translate(-6,-30) scale(1,1)"><g><path fill="none" stroke="none"></path><text fill="#000000" stroke="none" font-family="Arial" font-size="13px" font-style="normal" font-weight="bold" text-decoration="none" x="667.5" y="59.5">Database</text></g></g><g transform="translate(-6,-30) scale(1,1)"><path fill="none" stroke="#000000" d="M 696.5 80 L 696.5 1080" stroke-miterlimit="10" stroke-dasharray="3"></path></g><g transform="translate(-6,-30) scale(1,1)"><path fill="none" stroke="#000000" d="M 16 200 L 440 200 L 440 992 L 16 992 L 16 200" stroke-miterlimit="10"></path></g><g transform="translate(-6,-30) scale(1,1)"><path fill="#ffffff" stroke="none" d="M 16 200 L 16 222 L 46 222 L 57 211 L 57 200 L 16 200"></path></g><g transform="translate(-6,-30) scale(1,1)"><path fill="none" stroke="#000000" d="M 16 200 L 16 222 L 46 222 L 57 211 L 57 200 L 16 200 L 16 200" stroke-miterlimit="10"></path></g><g transform="translate(-6,-30) scale(1,1)"><g><path fill="none" stroke="none"></path><text fill="#000000" stroke="none" font-family="Arial" font-size="13px" font-style="normal" font-weight="bold" text-decoration="none" x="21" y="217.5">alt</text></g></g><g transform="translate(-6,-30) scale(1,1)"><g><path fill="none" stroke="none"></path><text fill="#000000" stroke="none" font-family="Arial" font-size="13px" font-style="normal" font-weight="normal" text-decoration="none" x="35.5" y="250.5">[dati mancanti]</text></g></g><g transform="translate(-6,-30) scale(1,1)"><path fill="none" stroke="#000000" d="M 16 305 L 440 305" stroke-miterlimit="10" stroke-dasharray="10,3"></path></g><g transform="translate(-6,-30) scale(1,1)"><g><path fill="none" stroke="none"></path><text fill="#000000" stroke="none" font-family="Arial" font-size="13px" font-style="normal" font-weight="normal" text-decoration="none" x="35.5" y="332.5">[utente non registrato]</text></g></g><g transform="translate(-6,-30) scale(1,1)"><path fill="none" stroke="#000000" d="M 16 865 L 440 865" stroke-miterlimit="10" stroke-dasharray="10,3"></path></g><g transform="translate(-6,-30) scale(1,1)"><g><path fill="none" stroke="none"></path><text fill="#000000" stroke="none" font-family="Arial" font-size="13px" font-style="normal" font-weight="normal" text-decoration="none" x="35.5" y="892.5">[utente già registrato]</text></g></g><g transform="translate(-6,-30) scale(1,1)"><path fill="none" stroke="#000000" d="M 32 472 L 423 472 L 423 656 L 32 656 L 32 472" stroke-miterlimit="10"></path></g><g transform="translate(-6,-30) scale(1,1)"><path fill="#ffffff" stroke="none" d="M 32 472 L 32 494 L 62 494 L 73 483 L 73 472 L 32 472"></path></g><g transform="translate(-6,-30) scale(1,1)"><path fill="none" stroke="#000000" d="M 32 472 L 32 494 L 62 494 L 73 483 L 73 472 L 32 472 L 32 472" stroke-miterlimit="10"></path></g><g transform="translate(-6,-30) scale(1,1)"><g><path fill="none" stroke="none"></path><text fill="#000000" stroke="none" font-family="Arial" font-size="13px" font-style="normal" font-weight="bold" text-decoration="none" x="37" y="489.5">alt</text></g></g><g transform="translate(-6,-30) scale(1,1)"><g><path fill="none" stroke="none"></path><text fill="#000000" stroke="none" font-family="Arial" font-size="13px" font-style="normal" font-weight="normal" text-decoration="none" x="51.5" y="522.5">[dati di registrazione non validi]</text></g></g><g transform="translate(-6,-30) scale(1,1)"><path fill="none" stroke="#000000" d="M 32 577 L 423 577" stroke-miterlimit="10" stroke-dasharray="10,3"></path></g><g transform="translate(-6,-30) scale(1,1)"><g><path fill="none" stroke="none"></path><text fill="#000000" stroke="none" font-family="Arial" font-size="13px" font-style="normal" font-weight="normal" text-decoration="none" x="51.5" y="604.5">[dati mancanti]</text></g></g><g transform="translate(-6,-30) scale(1,1)"><path fill="none" stroke="#000000" d="M 296 712 L 760 712 L 760 840 L 296 840 L 296 712" stroke-miterlimit="10"></path></g><g transform="translate(-6,-30) scale(1,1)"><path fill="#ffffff" stroke="none" d="M 296 712 L 296 734 L 330 734 L 341 723 L 341 712 L 296 712"></path></g><g transform="translate(-6,-30) scale(1,1)"><path fill="none" stroke="#000000" d="M 296 712 L 296 734 L 330 734 L 341 723 L 341 712 L 296 712 L 296 712" stroke-miterlimit="10"></path></g><g transform="translate(-6,-30) scale(1,1)"><g><path fill="none" stroke="none"></path><text fill="#000000" stroke="none" font-family="Arial" font-size="13px" font-style="normal" font-weight="bold" text-decoration="none" x="301" y="729.5">opt</text></g></g><g transform="translate(-6,-30) scale(1,1)"><g><path fill="none" stroke="none"></path><text fill="#000000" stroke="none" font-family="Arial" font-size="13px" font-style="normal" font-weight="normal" text-decoration="none" x="315.5" y="762.5">[errore]</text></g></g><g transform="translate(-6,-30) scale(1,1)"><path fill="none" stroke="#000000" d="M 366 104 L 689 104" stroke-miterlimit="10"></path></g><g transform="translate(-6,-30) scale(1,1)"><path fill="none" stroke="#000000" d="M 678.8373251423759 108.20951775601598 L 689 104 L 678.8373251423758 99.79048224398402" stroke-miterlimit="10"></path></g><g transform="translate(-6,-30) scale(1,1)"><g><path fill="none" stroke="none"></path><text fill="#000000" stroke="none" font-family="Arial" font-size="13px" font-style="normal" font-weight="normal" text-decoration="none" x="460.5" y="100.5">1 : aggiorna lista utenti</text></g></g><g transform="translate(-6,-30) scale(1,1)"><rect fill="#ffffff" stroke="none" x="689" y="104" width="13" height="28"></rect></g><g transform="translate(-6,-30) scale(1,1)"><path fill="none" stroke="#000000" d="M 689 104 L 702 104 L 702 132 L 689 132 L 689 104 Z Z" stroke-miterlimit="10"></path></g><g transform="translate(-6,-30) scale(1,1)"><path fill="none" stroke="#000000" d="M 689 128 L 366 128" stroke-miterlimit="10" stroke-dasharray="3"></path></g><g transform="translate(-6,-30) scale(1,1)"><path fill="none" stroke="#000000" d="M 376.16267485762415 123.79048224398402 L 366 128 L 376.16267485762415 132.209517756016" stroke-miterlimit="10"></path></g><g transform="translate(-6,-30) scale(1,1)"><g><path fill="none" stroke="none"></path><text fill="#000000" stroke="none" font-family="Arial" font-size="13px" font-style="normal" font-weight="normal" text-decoration="none" x="466.5" y="144.5">2 : ritorna lista utenti</text></g></g><g transform="translate(-6,-30) scale(1,1)"><path fill="none" stroke="#000000" d="M 80 160 L 359 160" stroke-miterlimit="10"></path></g><g transform="translate(-6,-30) scale(1,1)"><path fill="#000000" stroke="none" d="M 348.83732514237585 164.209517756016 L 359 160 L 348.83732514237585 155.790482243984"></path></g><g transform="translate(-6,-30) scale(1,1)"><path fill="none" stroke="#000000" d="M 348.83732514237585 164.209517756016 L 359 160 L 348.83732514237585 155.790482243984 L 348.83732514237585 164.209517756016" stroke-miterlimit="10"></path></g><g transform="translate(-6,-30) scale(1,1)"><g><path fill="none" stroke="none"></path><text fill="#000000" stroke="none" font-family="Arial" font-size="13px" font-style="normal" font-weight="normal" text-decoration="none" x="139.5" y="155.5">3 : inserimento credenziali</text></g></g><g transform="translate(-6,-30) scale(1,1)"><rect fill="#ffffff" stroke="none" x="359" y="160" width="13" height="784"></rect></g><g transform="translate(-6,-30) scale(1,1)"><path fill="none" stroke="#000000" d="M 359 160 L 372 160 L 372 944 L 359 944 L 359 160 Z Z" stroke-miterlimit="10"></path></g><g transform="translate(-6,-30) scale(1,1)"><path fill="none" stroke="#000000" d="M 372 168 L 402 168 L 402 188 L 379 188" stroke-miterlimit="10"></path></g><g transform="translate(-6,-30) scale(1,1)"><path fill="#000000" stroke="none" d="M 389.16267485762415 183.790482243984 L 379 188 L 389.16267485762415 192.209517756016"></path></g><g transform="translate(-6,-30) scale(1,1)"><path fill="none" stroke="#000000" d="M 389.16267485762415 183.790482243984 L 379 188 L 389.16267485762415 192.209517756016 L 389.16267485762415 183.790482243984" stroke-miterlimit="10"></path></g><g transform="translate(-6,-30) scale(1,1)"><g><path fill="none" stroke="none"></path><text fill="#000000" stroke="none" font-family="Arial" font-size="13px" font-style="normal" font-weight="normal" text-decoration="none" x="406" y="188.5">4 : controllo dati di login</text></g></g><g transform="translate(-6,-30) scale(1,1)"><rect fill="#ffffff" stroke="none" x="366" y="188" width="13" height="740"></rect></g><g transform="translate(-6,-30) scale(1,1)"><path fill="none" stroke="#000000" d="M 366 188 L 379 188 L 379 928 L 366 928 L 366 188 Z Z" stroke-miterlimit="10"></path></g><g transform="translate(-6,-30) scale(1,1)"><path fill="none" stroke="#000000" d="M 366 264 L 80 264" stroke-miterlimit="10" stroke-dasharray="3"></path></g><g transform="translate(-6,-30) scale(1,1)"><path fill="none" stroke="#000000" d="M 90.16267485762415 259.790482243984 L 80 264 L 90.16267485762415 268.209517756016" stroke-miterlimit="10"></path></g><g transform="translate(-6,-30) scale(1,1)"><g><path fill="none" stroke="none"></path><text fill="#000000" stroke="none" font-family="Arial" font-size="13px" font-style="normal" font-weight="normal" text-decoration="none" x="162.5" y="280.5">5 : inserire tutti i dati</text></g></g><g transform="translate(-6,-30) scale(1,1)"><path fill="none" stroke="#000000" d="M 366 352 L 80 352" stroke-miterlimit="10" stroke-dasharray="3"></path></g><g transform="translate(-6,-30) scale(1,1)"><path fill="none" stroke="#000000" d="M 90.16267485762415 347.790482243984 L 80 352 L 90.16267485762415 356.209517756016" stroke-miterlimit="10"></path></g><g transform="translate(-6,-30) scale(1,1)"><g><path fill="none" stroke="none"></path><text fill="#000000" stroke="none" font-family="Arial" font-size="13px" font-style="normal" font-weight="normal" text-decoration="none" x="187.5" y="368.5">6 : registrati</text></g></g><g transform="translate(-6,-30) scale(1,1)"><path fill="none" stroke="#000000" d="M 80 400 L 373 400" stroke-miterlimit="10"></path></g><g transform="translate(-6,-30) scale(1,1)"><path fill="#000000" stroke="none" d="M 362.83732514237585 404.209517756016 L 373 400 L 362.83732514237585 395.790482243984"></path></g><g transform="translate(-6,-30) scale(1,1)"><path fill="none" stroke="#000000" d="M 362.83732514237585 404.209517756016 L 373 400 L 362.83732514237585 395.790482243984 L 362.83732514237585 404.209517756016" stroke-miterlimit="10"></path></g><g transform="translate(-6,-30) scale(1,1)"><g><path fill="none" stroke="none"></path><text fill="#000000" stroke="none" font-family="Arial" font-size="13px" font-style="normal" font-weight="normal" text-decoration="none" x="124.5" y="396.5">7 : inserimento dati di registrazione</text></g></g><g transform="translate(-6,-30) scale(1,1)"><rect fill="#ffffff" stroke="none" x="373" y="400" width="13" height="32"></rect></g><g transform="translate(-6,-30) scale(1,1)"><path fill="none" stroke="#000000" d="M 373 400 L 386 400 L 386 432 L 373 432 L 373 400 Z Z" stroke-miterlimit="10"></path></g><g transform="translate(-6,-30) scale(1,1)"><path fill="none" stroke="#000000" d="M 379 448 L 409 448 L 409 468 L 386 468" stroke-miterlimit="10"></path></g><g transform="translate(-6,-30) scale(1,1)"><path fill="#000000" stroke="none" d="M 396.16267485762415 463.790482243984 L 386 468 L 396.16267485762415 472.209517756016"></path></g><g transform="translate(-6,-30) scale(1,1)"><path fill="none" stroke="#000000" d="M 396.16267485762415 463.790482243984 L 386 468 L 396.16267485762415 472.209517756016 L 396.16267485762415 463.790482243984" stroke-miterlimit="10"></path></g><g transform="translate(-6,-30) scale(1,1)"><g><path fill="none" stroke="none"></path><text fill="#000000" stroke="none" font-family="Arial" font-size="13px" font-style="normal" font-weight="normal" text-decoration="none" x="429.5" y="459.5">8 : controllo dati di</text><text fill="#000000" stroke="none" font-family="Arial" font-size="13px" font-style="normal" font-weight="normal" text-decoration="none" x="446" y="472.5">registrazione</text></g></g><g transform="translate(-6,-30) scale(1,1)"><rect fill="#ffffff" stroke="none" x="373" y="468" width="13" height="164"></rect></g><g transform="translate(-6,-30) scale(1,1)"><path fill="none" stroke="#000000" d="M 373 468 L 386 468 L 386 632 L 373 632 L 373 468 Z Z" stroke-miterlimit="10"></path></g><g transform="translate(-6,-30) scale(1,1)"><path fill="none" stroke="#000000" d="M 373 544 L 80 544" stroke-miterlimit="10" stroke-dasharray="3"></path></g><g transform="translate(-6,-30) scale(1,1)"><path fill="none" stroke="#000000" d="M 90.16267485762415 539.790482243984 L 80 544 L 90.16267485762415 548.209517756016" stroke-miterlimit="10"></path></g><g transform="translate(-6,-30) scale(1,1)"><g><path fill="none" stroke="none"></path><text fill="#000000" stroke="none" font-family="Arial" font-size="13px" font-style="normal" font-weight="normal" text-decoration="none" x="141.5" y="560.5">9 : formato dati inseriti errato</text></g></g><g transform="translate(-6,-30) scale(1,1)"><path fill="none" stroke="#000000" d="M 373 616 L 80 616" stroke-miterlimit="10" stroke-dasharray="3"></path></g><g transform="translate(-6,-30) scale(1,1)"><path fill="none" stroke="#000000" d="M 90.16267485762415 611.790482243984 L 80 616 L 90.16267485762415 620.209517756016" stroke-miterlimit="10"></path></g><g transform="translate(-6,-30) scale(1,1)"><g><path fill="none" stroke="none"></path><text fill="#000000" stroke="none" font-family="Arial" font-size="13px" font-style="normal" font-weight="normal" text-decoration="none" x="161.5" y="632.5">10 : inserire tutti i dati</text></g></g><g transform="translate(-6,-30) scale(1,1)"><path fill="none" stroke="#000000" d="M 379 680 L 689 680" stroke-miterlimit="10"></path></g><g transform="translate(-6,-30) scale(1,1)"><path fill="#000000" stroke="none" d="M 678.8373251423759 684.209517756016 L 689 680 L 678.8373251423758 675.790482243984"></path></g><g transform="translate(-6,-30) scale(1,1)"><path fill="none" stroke="#000000" d="M 678.8373251423759 684.209517756016 L 689 680 L 678.8373251423758 675.790482243984 L 678.8373251423759 684.209517756016" stroke-miterlimit="10"></path></g><g transform="translate(-6,-30) scale(1,1)"><g><path fill="none" stroke="none"></path><text fill="#000000" stroke="none" font-family="Arial" font-size="13px" font-style="normal" font-weight="normal" text-decoration="none" x="450.5" y="676.5">11 : salvataggio nuovo utente</text></g></g><g transform="translate(-6,-30) scale(1,1)"><rect fill="#ffffff" stroke="none" x="689" y="680" width="13" height="151"></rect></g><g transform="translate(-6,-30) scale(1,1)"><path fill="none" stroke="#000000" d="M 689 680 L 702 680 L 702 831 L 689 831 L 689 680 Z Z" stroke-miterlimit="10"></path></g><g transform="translate(-6,-30) scale(1,1)"><path fill="none" stroke="#000000" d="M 689 752 L 379 752" stroke-miterlimit="10" stroke-dasharray="3"></path></g><g transform="translate(-6,-30) scale(1,1)"><path fill="none" stroke="#000000" d="M 389.16267485762415 747.790482243984 L 379 752 L 389.16267485762415 756.209517756016" stroke-miterlimit="10"></path></g><g transform="translate(-6,-30) scale(1,1)"><g><path fill="none" stroke="none"></path><text fill="#000000" stroke="none" font-family="Arial" font-size="13px" font-style="normal" font-weight="normal" text-decoration="none" x="497.5" y="768.5">12 : conflitto</text></g></g><g transform="translate(-6,-30) scale(1,1)"><path fill="none" stroke="#000000" d="M 379 800 L 696 800" stroke-miterlimit="10"></path></g><g transform="translate(-6,-30) scale(1,1)"><path fill="#000000" stroke="none" d="M 685.8373251423759 804.209517756016 L 696 800 L 685.8373251423758 795.790482243984"></path></g><g transform="translate(-6,-30) scale(1,1)"><path fill="none" stroke="#000000" d="M 685.8373251423759 804.209517756016 L 696 800 L 685.8373251423758 795.790482243984 L 685.8373251423759 804.209517756016" stroke-miterlimit="10"></path></g><g transform="translate(-6,-30) scale(1,1)"><g><path fill="none" stroke="none"></path><text fill="#000000" stroke="none" font-family="Arial" font-size="13px" font-style="normal" font-weight="normal" text-decoration="none" x="475.5" y="796.5">13 : risolvere conflitto</text></g></g><g transform="translate(-6,-30) scale(1,1)"><rect fill="#ffffff" stroke="none" x="696" y="800" width="13" height="28"></rect></g><g transform="translate(-6,-30) scale(1,1)"><path fill="none" stroke="#000000" d="M 696 800 L 709 800 L 709 828 L 696 828 L 696 800 Z Z" stroke-miterlimit="10"></path></g><g transform="translate(-6,-30) scale(1,1)"><path fill="none" stroke="#000000" d="M 366 912 L 80 912" stroke-miterlimit="10" stroke-dasharray="3"></path></g><g transform="translate(-6,-30) scale(1,1)"><path fill="none" stroke="#000000" d="M 90.16267485762415 907.790482243984 L 80 912 L 90.16267485762415 916.209517756016" stroke-miterlimit="10"></path></g><g transform="translate(-6,-30) scale(1,1)"><g><path fill="none" stroke="none"></path><text fill="#000000" stroke="none" font-family="Arial" font-size="13px" font-style="normal" font-weight="normal" text-decoration="none" x="130.5" y="928.5">14 : inserire credenziali corrette</text></g></g><g transform="translate(-6,-30) scale(1,1)"><path fill="none" stroke="#000000" d="M 366 1016 L 80 1016" stroke-miterlimit="10" stroke-dasharray="3"></path></g><g transform="translate(-6,-30) scale(1,1)"><path fill="none" stroke="#000000" d="M 90.16267485762415 1011.790482243984 L 80 1016 L 90.16267485762415 1020.209517756016" stroke-miterlimit="10"></path></g><g transform="translate(-6,-30) scale(1,1)"><g><path fill="none" stroke="none"></path><text fill="#000000" stroke="none" font-family="Arial" font-size="13px" font-style="normal" font-weight="normal" text-decoration="none" x="155.5" y="1032.5">15 : accesso effettuato</text></g></g></g></svg>