<svg version="1.1" xmlns="http://www.w3.org/2000/svg" xmlns:xlink="http://www.w3.org/1999/xlink" width="714" height="764"><defs></defs><g><g transform="translate(-22,-30) scale(1,1)"><rect fill="#C0C0C0" stroke="none" x="103" y="47" width="74" height="39" opacity="0.2"></rect></g><g transform="translate(-22,-30) scale(1,1)"><rect fill="#ffffff" stroke="none" x="96" y="40" width="74" height="39"></rect></g><g transform="translate(-22,-30) scale(1,1)"><path fill="none" stroke="#000000" d="M 96 40 L 170 40 L 170 79 L 96 79 L 96 40 Z Z" stroke-miterlimit="10"></path></g><g transform="translate(-22,-30) scale(1,1)"><g><path fill="none" stroke="none"></path><text fill="#000000" stroke="none" font-family="Arial" font-size="13px" font-style="normal" font-weight="bold" text-decoration="none" x="113" y="59.5">Cliente</text></g></g><g transform="translate(-22,-30) scale(1,1)"><path fill="none" stroke="#000000" d="M 134.5 80 L 134.5 784" stroke-miterlimit="10" stroke-dasharray="3"></path></g><g transform="translate(-22,-30) scale(1,1)"><rect fill="#C0C0C0" stroke="none" x="383" y="47" width="74" height="39" opacity="0.2"></rect></g><g transform="translate(-22,-30) scale(1,1)"><rect fill="#ffffff" stroke="none" x="376" y="40" width="74" height="39"></rect></g><g transform="translate(-22,-30) scale(1,1)"><path fill="none" stroke="#000000" d="M 376 40 L 450 40 L 450 79 L 376 79 L 376 40 Z Z" stroke-miterlimit="10"></path></g><g transform="translate(-22,-30) scale(1,1)"><g><path fill="none" stroke="none"></path><text fill="#000000" stroke="none" font-family="Arial" font-size="13px" font-style="normal" font-weight="bold" text-decoration="none" x="389" y="59.5">Sistema</text></g></g><g transform="translate(-22,-30) scale(1,1)"><path fill="none" stroke="#000000" d="M 414.5 80 L 414.5 784" stroke-miterlimit="10" stroke-dasharray="3"></path></g><g transform="translate(-22,-30) scale(1,1)"><rect fill="#C0C0C0" stroke="none" x="655" y="47" width="78" height="39" opacity="0.2"></rect></g><g transform="translate(-22,-30) scale(1,1)"><rect fill="#ffffff" stroke="none" x="648" y="40" width="78" height="39"></rect></g><g transform="translate(-22,-30) scale(1,1)"><path fill="none" stroke="#000000" d="M 648 40 L 726 40 L 726 79 L 648 79 L 648 40 Z Z" stroke-miterlimit="10"></path></g><g transform="translate(-22,-30) scale(1,1)"><g><path fill="none" stroke="none"></path><text fill="#000000" stroke="none" font-family="Arial" font-size="13px" font-style="normal" font-weight="bold" text-decoration="none" x="659.5" y="59.5">Database</text></g></g><g transform="translate(-22,-30) scale(1,1)"><path fill="none" stroke="#000000" d="M 688.5 80 L 688.5 784" stroke-miterlimit="10" stroke-dasharray="3"></path></g><g transform="translate(-22,-30) scale(1,1)"><path fill="none" stroke="#000000" d="M 32 192 L 503 192 L 503 720 L 32 720 L 32 192" stroke-miterlimit="10"></path></g><g transform="translate(-22,-30) scale(1,1)"><path fill="#ffffff" stroke="none" d="M 32 192 L 32 214 L 62 214 L 73 203 L 73 192 L 32 192"></path></g><g transform="translate(-22,-30) scale(1,1)"><path fill="none" stroke="#000000" d="M 32 192 L 32 214 L 62 214 L 73 203 L 73 192 L 32 192 L 32 192" stroke-miterlimit="10"></path></g><g transform="translate(-22,-30) scale(1,1)"><g><path fill="none" stroke="none"></path><text fill="#000000" stroke="none" font-family="Arial" font-size="13px" font-style="normal" font-weight="bold" text-decoration="none" x="37" y="209.5">alt</text></g></g><g transform="translate(-22,-30) scale(1,1)"><g><path fill="none" stroke="none"></path><text fill="#000000" stroke="none" font-family="Arial" font-size="13px" font-style="normal" font-weight="normal" text-decoration="none" x="51.5" y="242.5">[ricerca prodotto]</text></g></g><g transform="translate(-22,-30) scale(1,1)"><path fill="none" stroke="#000000" d="M 32 473 L 503 473" stroke-miterlimit="10" stroke-dasharray="10,3"></path></g><g transform="translate(-22,-30) scale(1,1)"><g><path fill="none" stroke="none"></path><text fill="#000000" stroke="none" font-family="Arial" font-size="13px" font-style="normal" font-weight="normal" text-decoration="none" x="51.5" y="500.5">[filtra prodotti]</text></g></g><g transform="translate(-22,-30) scale(1,1)"><path fill="none" stroke="#000000" d="M 32 593 L 503 593" stroke-miterlimit="10" stroke-dasharray="10,3"></path></g><g transform="translate(-22,-30) scale(1,1)"><g><path fill="none" stroke="none"></path><text fill="#000000" stroke="none" font-family="Arial" font-size="13px" font-style="normal" font-weight="normal" text-decoration="none" x="51.5" y="620.5">[prodotto trovato]</text></g></g><g transform="translate(-22,-30) scale(1,1)"><path fill="none" stroke="#000000" d="M 96 280 L 448 280 L 448 457 L 96 457 L 96 280" stroke-miterlimit="10"></path></g><g transform="translate(-22,-30) scale(1,1)"><path fill="#ffffff" stroke="none" d="M 96 280 L 96 302 L 133 302 L 144 291 L 144 280 L 96 280"></path></g><g transform="translate(-22,-30) scale(1,1)"><path fill="none" stroke="#000000" d="M 96 280 L 96 302 L 133 302 L 144 291 L 144 280 L 96 280 L 96 280" stroke-miterlimit="10"></path></g><g transform="translate(-22,-30) scale(1,1)"><g><path fill="none" stroke="none"></path><text fill="#000000" stroke="none" font-family="Arial" font-size="13px" font-style="normal" font-weight="bold" text-decoration="none" x="101" y="297.5">seq</text></g></g><g transform="translate(-22,-30) scale(1,1)"><g><path fill="none" stroke="none"></path><text fill="#000000" stroke="none" font-family="Arial" font-size="13px" font-style="normal" font-weight="normal" text-decoration="none" x="115.5" y="330.5">[prodotto esistente]</text></g></g><g transform="translate(-22,-30) scale(1,1)"><path fill="none" stroke="#000000" d="M 96 377 L 448 377" stroke-miterlimit="10" stroke-dasharray="10,3"></path></g><g transform="translate(-22,-30) scale(1,1)"><g><path fill="none" stroke="none"></path><text fill="#000000" stroke="none" font-family="Arial" font-size="13px" font-style="normal" font-weight="normal" text-decoration="none" x="115.5" y="404.5">[prodotto non esistente]</text></g></g><g transform="translate(-22,-30) scale(1,1)"><path fill="none" stroke="#000000" d="M 414 104 L 681 104" stroke-miterlimit="10"></path></g><g transform="translate(-22,-30) scale(1,1)"><path fill="#000000" stroke="none" d="M 670.8373251423759 108.20951775601598 L 681 104 L 670.8373251423758 99.79048224398402"></path></g><g transform="translate(-22,-30) scale(1,1)"><path fill="none" stroke="#000000" d="M 670.8373251423759 108.20951775601598 L 681 104 L 670.8373251423758 99.79048224398402 L 670.8373251423759 108.20951775601598" stroke-miterlimit="10"></path></g><g transform="translate(-22,-30) scale(1,1)"><g><path fill="none" stroke="none"></path><text fill="#000000" stroke="none" font-family="Arial" font-size="13px" font-style="normal" font-weight="normal" text-decoration="none" x="486.5" y="100.5">1 : aggiorna catalogo</text></g></g><g transform="translate(-22,-30) scale(1,1)"><rect fill="#ffffff" stroke="none" x="681" y="104" width="13" height="28"></rect></g><g transform="translate(-22,-30) scale(1,1)"><path fill="none" stroke="#000000" d="M 681 104 L 694 104 L 694 132 L 681 132 L 681 104 Z Z" stroke-miterlimit="10"></path></g><g transform="translate(-22,-30) scale(1,1)"><path fill="none" stroke="#000000" d="M 681 128 L 414 128" stroke-miterlimit="10" stroke-dasharray="3"></path></g><g transform="translate(-22,-30) scale(1,1)"><path fill="none" stroke="#000000" d="M 424.16267485762415 123.79048224398402 L 414 128 L 424.16267485762415 132.209517756016" stroke-miterlimit="10"></path></g><g transform="translate(-22,-30) scale(1,1)"><g><path fill="none" stroke="none"></path><text fill="#000000" stroke="none" font-family="Arial" font-size="13px" font-style="normal" font-weight="normal" text-decoration="none" x="459.5" y="144.5">2 : ritorna catalogo aggiornato</text></g></g><g transform="translate(-22,-30) scale(1,1)"><path fill="none" stroke="#000000" d="M 134 248 L 407 248" stroke-miterlimit="10"></path></g><g transform="translate(-22,-30) scale(1,1)"><path fill="#000000" stroke="none" d="M 396.83732514237585 252.209517756016 L 407 248 L 396.83732514237585 243.790482243984"></path></g><g transform="translate(-22,-30) scale(1,1)"><path fill="none" stroke="#000000" d="M 396.83732514237585 252.209517756016 L 407 248 L 396.83732514237585 243.790482243984 L 396.83732514237585 252.209517756016" stroke-miterlimit="10"></path></g><g transform="translate(-22,-30) scale(1,1)"><g><path fill="none" stroke="none"></path><text fill="#000000" stroke="none" font-family="Arial" font-size="13px" font-style="normal" font-weight="normal" text-decoration="none" x="169.5" y="244.5">3 : inserimento parametri di ricerca</text></g></g><g transform="translate(-22,-30) scale(1,1)"><rect fill="#ffffff" stroke="none" x="407" y="248" width="13" height="200"></rect></g><g transform="translate(-22,-30) scale(1,1)"><path fill="none" stroke="#000000" d="M 407 248 L 420 248 L 420 448 L 407 448 L 407 248 Z Z" stroke-miterlimit="10"></path></g><g transform="translate(-22,-30) scale(1,1)"><path fill="none" stroke="#000000" d="M 407 347 L 134 347" stroke-miterlimit="10" stroke-dasharray="3"></path></g><g transform="translate(-22,-30) scale(1,1)"><path fill="none" stroke="#000000" d="M 144.16267485762415 342.790482243984 L 134 347 L 144.16267485762415 351.209517756016" stroke-miterlimit="10"></path></g><g transform="translate(-22,-30) scale(1,1)"><g><path fill="none" stroke="none"></path><text fill="#000000" stroke="none" font-family="Arial" font-size="13px" font-style="normal" font-weight="normal" text-decoration="none" x="215.5" y="363.5">4 : ritorna prodotto</text></g></g><g transform="translate(-22,-30) scale(1,1)"><path fill="none" stroke="#000000" d="M 407 424 L 134 424" stroke-miterlimit="10" stroke-dasharray="3"></path></g><g transform="translate(-22,-30) scale(1,1)"><path fill="none" stroke="#000000" d="M 144.16267485762415 419.790482243984 L 134 424 L 144.16267485762415 428.209517756016" stroke-miterlimit="10"></path></g><g transform="translate(-22,-30) scale(1,1)"><g><path fill="none" stroke="none"></path><text fill="#000000" stroke="none" font-family="Arial" font-size="13px" font-style="normal" font-weight="normal" text-decoration="none" x="187.5" y="440.5">5 : nessun prodotto ritornato</text></g></g><g transform="translate(-22,-30) scale(1,1)"><path fill="none" stroke="#000000" d="M 134 513 L 407 513" stroke-miterlimit="10"></path></g><g transform="translate(-22,-30) scale(1,1)"><path fill="#000000" stroke="none" d="M 396.83732514237585 517.209517756016 L 407 513 L 396.83732514237585 508.790482243984"></path></g><g transform="translate(-22,-30) scale(1,1)"><path fill="none" stroke="#000000" d="M 396.83732514237585 517.209517756016 L 407 513 L 396.83732514237585 508.790482243984 L 396.83732514237585 517.209517756016" stroke-miterlimit="10"></path></g><g transform="translate(-22,-30) scale(1,1)"><g><path fill="none" stroke="none"></path><text fill="#000000" stroke="none" font-family="Arial" font-size="13px" font-style="normal" font-weight="normal" text-decoration="none" x="220.5" y="509.5">6 : seleziona filtri</text></g></g><g transform="translate(-22,-30) scale(1,1)"><rect fill="#ffffff" stroke="none" x="407" y="513" width="13" height="55"></rect></g><g transform="translate(-22,-30) scale(1,1)"><path fill="none" stroke="#000000" d="M 407 513 L 420 513 L 420 568 L 407 568 L 407 513 Z Z" stroke-miterlimit="10"></path></g><g transform="translate(-22,-30) scale(1,1)"><path fill="none" stroke="#000000" d="M 407 552 L 134 552" stroke-miterlimit="10" stroke-dasharray="3"></path></g><g transform="translate(-22,-30) scale(1,1)"><path fill="none" stroke="#000000" d="M 144.16267485762415 547.790482243984 L 134 552 L 144.16267485762415 556.209517756016" stroke-miterlimit="10"></path></g><g transform="translate(-22,-30) scale(1,1)"><g><path fill="none" stroke="none"></path><text fill="#000000" stroke="none" font-family="Arial" font-size="13px" font-style="normal" font-weight="normal" text-decoration="none" x="177.5" y="568.5">7 : nuova visualizzazione filtrata</text></g></g><g transform="translate(-22,-30) scale(1,1)"><path fill="none" stroke="#000000" d="M 134 640 L 407 640" stroke-miterlimit="10"></path></g><g transform="translate(-22,-30) scale(1,1)"><path fill="#000000" stroke="none" d="M 396.83732514237585 644.209517756016 L 407 640 L 396.83732514237585 635.790482243984"></path></g><g transform="translate(-22,-30) scale(1,1)"><path fill="none" stroke="#000000" d="M 396.83732514237585 644.209517756016 L 407 640 L 396.83732514237585 635.790482243984 L 396.83732514237585 644.209517756016" stroke-miterlimit="10"></path></g><g transform="translate(-22,-30) scale(1,1)"><g><path fill="none" stroke="none"></path><text fill="#000000" stroke="none" font-family="Arial" font-size="13px" font-style="normal" font-weight="normal" text-decoration="none" x="189.5" y="636.5">8 : richiede dettagli prodotto</text></g></g><g transform="translate(-22,-30) scale(1,1)"><rect fill="#ffffff" stroke="none" x="407" y="640" width="13" height="48"></rect></g><g transform="translate(-22,-30) scale(1,1)"><path fill="none" stroke="#000000" d="M 407 640 L 420 640 L 420 688 L 407 688 L 407 640 Z Z" stroke-miterlimit="10"></path></g><g transform="translate(-22,-30) scale(1,1)"><path fill="none" stroke="#000000" d="M 407 680 L 134 680" stroke-miterlimit="10" stroke-dasharray="3"></path></g><g transform="translate(-22,-30) scale(1,1)"><path fill="none" stroke="#000000" d="M 144.16267485762415 675.790482243984 L 134 680 L 144.16267485762415 684.209517756016" stroke-miterlimit="10"></path></g><g transform="translate(-22,-30) scale(1,1)"><g><path fill="none" stroke="none"></path><text fill="#000000" stroke="none" font-family="Arial" font-size="13px" font-style="normal" font-weight="normal" text-decoration="none" x="215.5" y="696.5">9 : ritorna prodotto</text></g></g></g></svg>