<svg version="1.1" xmlns="http://www.w3.org/2000/svg" xmlns:xlink="http://www.w3.org/1999/xlink" width="725" height="865"><defs></defs><g><g transform="translate(-238,-74) scale(1,1)"><path fill="#C0C0C0" stroke="none" d="M 361 207 L 524 207 Q 534 207 534 217 L 534 237 Q 534 247 524 247 L 361 247 Q 351 247 351 237 L 351 217 Q 351 207 361 207 Z" opacity="0.2"></path></g><g transform="translate(-238,-74) scale(1,1)"><path fill="#ffffff" stroke="none" d="M 354 200 L 517 200 Q 527 200 527 210 L 527 230 Q 527 240 517 240 L 354 240 Q 344 240 344 230 L 344 210 Q 344 200 354 200 Z"></path></g><g transform="translate(-238,-74) scale(1,1)"><path fill="none" stroke="#000000" d="M 354 200 L 517 200 Q 527 200 527 210 L 527 230 Q 527 240 517 240 L 354 240 Q 344 240 344 230 L 344 210 Q 344 200 354 200 Z" stroke-miterlimit="10"></path></g><g transform="translate(-238,-74) scale(1,1)"><g><path fill="none" stroke="none"></path><text fill="#000000" stroke="none" font-family="Arial" font-size="13px" font-style="normal" font-weight="bold" text-decoration="none" x="410" y="219.5">Acquista</text></g></g><g transform="translate(-238,-74) scale(1,1)"><path fill="#C0C0C0" stroke="none" d="M 431 100.5 C 431 95.2532944 435.2532944 91 440.5 91 C 445.7467056 91 450 95.2532944 450 100.5 C 450 105.7467056 445.7467056 110 440.5 110 C 435.2532944 110 431 105.7467056 431 100.5 Z" opacity="0.2"></path></g><g transform="translate(-238,-74) scale(1,1)"><path fill="#000000" stroke="none" d="M 424 93.5 C 424 88.2532944 428.2532944 84 433.5 84 C 438.7467056 84 443 88.2532944 443 93.5 C 443 98.7467056 438.7467056 103 433.5 103 C 428.2532944 103 424 98.7467056 424 93.5 Z"></path></g><g transform="translate(-238,-74) scale(1,1)"><path fill="none" stroke="#000000" d="M 433 104 L 435 199" stroke-miterlimit="10"></path></g><g transform="translate(-238,-74) scale(1,1)"><path fill="none" stroke="#000000" d="M 430.577511138714 188.92817830420924 L 435 199 L 438.99468155645815 188.75097471646728" stroke-miterlimit="10"></path></g><g transform="translate(-238,-74) scale(1,1)"><path fill="#C0C0C0" stroke="none" d="M 431 295.5 L 447.5 279 L 463 295.5 L 447.5 311 L 431 295.5" opacity="0.2"></path></g><g transform="translate(-238,-74) scale(1,1)"><path fill="#ffffff" stroke="none" d="M 424 288 L 440 272 L 456 288 L 440 304 L 424 288"></path></g><g transform="translate(-238,-74) scale(1,1)"><path fill="none" stroke="#000000" d="M 424 288 L 440 272 L 456 288 L 440 304 L 424 288 L 424 288" stroke-miterlimit="10"></path></g><g transform="translate(-238,-74) scale(1,1)"><path fill="none" stroke="#000000" d="M 437 241 L 439 271" stroke-miterlimit="10"></path></g><g transform="translate(-238,-74) scale(1,1)"><path fill="none" stroke="#000000" d="M 434.1237945855094 261.13984681885256 L 439 271 L 442.5241832628826 260.5798209070277" stroke-miterlimit="10"></path></g><g transform="translate(-238,-74) scale(1,1)"><path fill="#C0C0C0" stroke="none" d="M 361 391 L 525 391 Q 535 391 535 401 L 535 421 Q 535 431 525 431 L 361 431 Q 351 431 351 421 L 351 401 Q 351 391 361 391 Z" opacity="0.2"></path></g><g transform="translate(-238,-74) scale(1,1)"><path fill="#ffffff" stroke="none" d="M 354 384 L 518 384 Q 528 384 528 394 L 528 414 Q 528 424 518 424 L 354 424 Q 344 424 344 414 L 344 394 Q 344 384 354 384 Z"></path></g><g transform="translate(-238,-74) scale(1,1)"><path fill="none" stroke="#000000" d="M 354 384 L 518 384 Q 528 384 528 394 L 528 414 Q 528 424 518 424 L 354 424 Q 344 424 344 414 L 344 394 Q 344 384 354 384 Z" stroke-miterlimit="10"></path></g><g transform="translate(-238,-74) scale(1,1)"><g><path fill="none" stroke="none"></path><text fill="#000000" stroke="none" font-family="Arial" font-size="13px" font-style="normal" font-weight="bold" text-decoration="none" x="373.5" y="403.5">Selezione Spedizione</text></g></g><g transform="translate(-238,-74) scale(1,1)"><path fill="none" stroke="#000000" d="M 439 305 L 437 383" stroke-miterlimit="10"></path></g><g transform="translate(-238,-74) scale(1,1)"><path fill="none" stroke="#000000" d="M 433.0523611490146 372.73276339504196 L 437 383 L 441.4686304262053 372.94856517138015" stroke-miterlimit="10"></path></g><g transform="translate(-238,-74) scale(1,1)"><g><path fill="none" stroke="none"></path><text fill="#000000" stroke="none" font-family="Arial" font-size="13px" font-style="normal" font-weight="normal" text-decoration="none" x="446.5" y="350.5">si</text></g></g><g transform="translate(-238,-74) scale(1,1)"><path fill="#C0C0C0" stroke="none" d="M 649 271 L 799 271 Q 809 271 809 281 L 809 301 Q 809 311 799 311 L 649 311 Q 639 311 639 301 L 639 281 Q 639 271 649 271 Z" opacity="0.2"></path></g><g transform="translate(-238,-74) scale(1,1)"><path fill="#ffffff" stroke="none" d="M 642 264 L 792 264 Q 802 264 802 274 L 802 294 Q 802 304 792 304 L 642 304 Q 632 304 632 294 L 632 274 Q 632 264 642 264 Z"></path></g><g transform="translate(-238,-74) scale(1,1)"><path fill="none" stroke="#000000" d="M 642 264 L 792 264 Q 802 264 802 274 L 802 294 Q 802 304 792 304 L 642 304 Q 632 304 632 294 L 632 274 Q 632 264 642 264 Z" stroke-miterlimit="10"></path></g><g transform="translate(-238,-74) scale(1,1)"><g><path fill="none" stroke="none"></path><text fill="#000000" stroke="none" font-family="Arial" font-size="13px" font-style="normal" font-weight="bold" text-decoration="none" x="701.5" y="283.5">Login</text></g></g><g transform="translate(-238,-74) scale(1,1)"><path fill="none" stroke="#000000" d="M 457 288 L 631 285" stroke-miterlimit="10"></path></g><g transform="translate(-238,-74) scale(1,1)"><path fill="none" stroke="#000000" d="M 620.9114024175906 289.3840847186388 L 631 285 L 620.7662682029703 280.96630027066186" stroke-miterlimit="10"></path></g><g transform="translate(-238,-74) scale(1,1)"><g><path fill="none" stroke="none"></path><text fill="#000000" stroke="none" font-family="Arial" font-size="13px" font-style="normal" font-weight="normal" text-decoration="none" x="535.5" y="277.5">no</text></g></g><g transform="translate(-238,-74) scale(1,1)"><path fill="#C0C0C0" stroke="none" d="M 935 291.5 C 935 284.59644 940.59644 279 947.5 279 C 954.40356 279 960 284.59644 960 291.5 C 960 298.40356 954.40356 304 947.5 304 C 940.59644 304 935 298.40356 935 291.5 Z" opacity="0.2"></path></g><g transform="translate(-238,-74) scale(1,1)"><path fill="none" stroke="#000000" d="M 928 284.5 C 928 277.59644 933.59644 272 940.5 272 C 947.40356 272 953 277.59644 953 284.5 C 953 291.40356 947.40356 297 940.5 297 C 933.59644 297 928 291.40356 928 284.5 Z" stroke-miterlimit="10"></path></g><g transform="translate(-238,-74) scale(1,1)"><path fill="#000000" stroke="none" d="M 933 284.5 C 933 280.357864 936.357864 277 940.5 277 C 944.642136 277 948 280.357864 948 284.5 C 948 288.642136 944.642136 292 940.5 292 C 936.357864 292 933 288.642136 933 284.5 Z"></path></g><g transform="translate(-238,-74) scale(1,1)"><path fill="none" stroke="#000000" d="M 803 284 L 927 284" stroke-miterlimit="10"></path></g><g transform="translate(-238,-74) scale(1,1)"><path fill="none" stroke="#000000" d="M 916.8373251423759 288.209517756016 L 927 284 L 916.8373251423758 279.790482243984" stroke-miterlimit="10"></path></g><g transform="translate(-238,-74) scale(1,1)"><path fill="#C0C0C0" stroke="none" d="M 423 503.5 L 439.5 487 L 455 503.5 L 439.5 519 L 423 503.5" opacity="0.2"></path></g><g transform="translate(-238,-74) scale(1,1)"><path fill="#ffffff" stroke="none" d="M 416 496 L 432 480 L 448 496 L 432 512 L 416 496"></path></g><g transform="translate(-238,-74) scale(1,1)"><path fill="none" stroke="#000000" d="M 416 496 L 432 480 L 448 496 L 432 512 L 416 496 L 416 496" stroke-miterlimit="10"></path></g><g transform="translate(-238,-74) scale(1,1)"><path fill="none" stroke="#000000" d="M 435 425 L 433 479" stroke-miterlimit="10"></path></g><g transform="translate(-238,-74) scale(1,1)"><path fill="none" stroke="#000000" d="M 429.1695039351113 468.6884870219316 L 433 479 L 437.58277100829406 469.0000895061236" stroke-miterlimit="10"></path></g><g transform="translate(-238,-74) scale(1,1)"><path fill="#C0C0C0" stroke="none" d="M 361 623 L 525 623 Q 535 623 535 633 L 535 653 Q 535 663 525 663 L 361 663 Q 351 663 351 653 L 351 633 Q 351 623 361 623 Z" opacity="0.2"></path></g><g transform="translate(-238,-74) scale(1,1)"><path fill="#ffffff" stroke="none" d="M 354 616 L 518 616 Q 528 616 528 626 L 528 646 Q 528 656 518 656 L 354 656 Q 344 656 344 646 L 344 626 Q 344 616 354 616 Z"></path></g><g transform="translate(-238,-74) scale(1,1)"><path fill="none" stroke="#000000" d="M 354 616 L 518 616 Q 528 616 528 626 L 528 646 Q 528 656 518 656 L 354 656 Q 344 656 344 646 L 344 626 Q 344 616 354 616 Z" stroke-miterlimit="10"></path></g><g transform="translate(-238,-74) scale(1,1)"><g><path fill="none" stroke="none"></path><text fill="#000000" stroke="none" font-family="Arial" font-size="13px" font-style="normal" font-weight="bold" text-decoration="none" x="403" y="635.5">Pagamento</text></g></g><g transform="translate(-238,-74) scale(1,1)"><path fill="none" stroke="#000000" d="M 432 513 L 435 615" stroke-miterlimit="10"></path></g><g transform="translate(-238,-74) scale(1,1)"><path fill="none" stroke="#000000" d="M 430.4935287866887 604.9654737429415 L 435 615 L 438.9089252082062 604.7179620834851" stroke-miterlimit="10"></path></g><g transform="translate(-238,-74) scale(1,1)"><path fill="#C0C0C0" stroke="none" d="M 255 507.5 C 255 500.59644 260.59644 495 267.5 495 C 274.40356 495 280 500.59644 280 507.5 C 280 514.40356 274.40356 520 267.5 520 C 260.59644 520 255 514.40356 255 507.5 Z" opacity="0.2"></path></g><g transform="translate(-238,-74) scale(1,1)"><path fill="none" stroke="#000000" d="M 248 500.5 C 248 493.59644 253.59644 488 260.5 488 C 267.40356 488 273 493.59644 273 500.5 C 273 507.40356 267.40356 513 260.5 513 C 253.59644 513 248 507.40356 248 500.5 Z" stroke-miterlimit="10"></path></g><g transform="translate(-238,-74) scale(1,1)"><path fill="#000000" stroke="none" d="M 253 500.5 C 253 496.357864 256.357864 493 260.5 493 C 264.642136 493 268 496.357864 268 500.5 C 268 504.642136 264.642136 508 260.5 508 C 256.357864 508 253 504.642136 253 500.5 Z"></path></g><g transform="translate(-238,-74) scale(1,1)"><path fill="none" stroke="#000000" d="M 415 496 L 274 500" stroke-miterlimit="10"></path></g><g transform="translate(-238,-74) scale(1,1)"><path fill="none" stroke="#000000" d="M 284.0392170034907 495.5039882165609 L 274 500 L 284.277958841336 503.91963800060716" stroke-miterlimit="10"></path></g><g transform="translate(-238,-74) scale(1,1)"><g><path fill="none" stroke="none"></path><text fill="#000000" stroke="none" font-family="Arial" font-size="13px" font-style="normal" font-weight="normal" text-decoration="none" x="295.5" y="518.5">ritorno al carrello</text></g></g><g transform="translate(-238,-74) scale(1,1)"><path fill="#C0C0C0" stroke="none" d="M 423 779.5 L 443.5 759 L 463 779.5 L 443.5 799 L 423 779.5" opacity="0.2"></path></g><g transform="translate(-238,-74) scale(1,1)"><path fill="#ffffff" stroke="none" d="M 416 772 L 436 752 L 456 772 L 436 792 L 416 772"></path></g><g transform="translate(-238,-74) scale(1,1)"><path fill="none" stroke="#000000" d="M 416 772 L 436 752 L 456 772 L 436 792 L 416 772 L 416 772" stroke-miterlimit="10"></path></g><g transform="translate(-238,-74) scale(1,1)"><path fill="none" stroke="#000000" d="M 436 657 L 436 751" stroke-miterlimit="10"></path></g><g transform="translate(-238,-74) scale(1,1)"><path fill="none" stroke="#000000" d="M 431.790482243984 740.8373251423759 L 436 751 L 440.209517756016 740.8373251423759" stroke-miterlimit="10"></path></g><g transform="translate(-238,-74) scale(1,1)"><path fill="none" stroke="#000000" d="M 457 772 L 656 768 L 656 400 L 529 402" stroke-miterlimit="10"></path></g><g transform="translate(-238,-74) scale(1,1)"><path fill="none" stroke="#000000" d="M 539.0951315182094 397.6309818459915 L 529 402 L 539.2276983173224 406.0489735896694" stroke-miterlimit="10"></path></g><g transform="translate(-238,-74) scale(1,1)"><g><path fill="none" stroke="none"></path><text fill="#000000" stroke="none" font-family="Arial" font-size="13px" font-style="normal" font-weight="normal" text-decoration="none" x="678.5" y="564.5">indietro</text></g></g><g transform="translate(-238,-74) scale(1,1)"><path fill="#C0C0C0" stroke="none" d="M 431 923.5 C 431 916.59644 436.59644 911 443.5 911 C 450.40356 911 456 916.59644 456 923.5 C 456 930.40356 450.40356 936 443.5 936 C 436.59644 936 431 930.40356 431 923.5 Z" opacity="0.2"></path></g><g transform="translate(-238,-74) scale(1,1)"><path fill="none" stroke="#000000" d="M 424 916.5 C 424 909.59644 429.59644 904 436.5 904 C 443.40356 904 449 909.59644 449 916.5 C 449 923.40356 443.40356 929 436.5 929 C 429.59644 929 424 923.40356 424 916.5 Z" stroke-miterlimit="10"></path></g><g transform="translate(-238,-74) scale(1,1)"><path fill="#000000" stroke="none" d="M 429 916.5 C 429 912.357864 432.357864 909 436.5 909 C 440.642136 909 444 912.357864 444 916.5 C 444 920.642136 440.642136 924 436.5 924 C 432.357864 924 429 920.642136 429 916.5 Z"></path></g><g transform="translate(-238,-74) scale(1,1)"><path fill="none" stroke="#000000" d="M 436 793 L 436 903" stroke-miterlimit="10"></path></g><g transform="translate(-238,-74) scale(1,1)"><path fill="none" stroke="#000000" d="M 431.790482243984 892.8373251423759 L 436 903 L 440.209517756016 892.8373251423759" stroke-miterlimit="10"></path></g><g transform="translate(-238,-74) scale(1,1)"><g><path fill="none" stroke="none"></path><text fill="#000000" stroke="none" font-family="Arial" font-size="13px" font-style="normal" font-weight="normal" text-decoration="none" x="464" y="853.5">conferma ordine</text></g></g></g></svg>