<svg version="1.1" xmlns="http://www.w3.org/2000/svg" xmlns:xlink="http://www.w3.org/1999/xlink" width="419" height="413"><defs></defs><g><g transform="translate(-62,-30) scale(1,1)"><path fill="#C0C0C0" stroke="none" d="M 161 135 L 285 135 Q 295 135 295 145 L 295 165 Q 295 175 285 175 L 161 175 Q 151 175 151 165 L 151 145 Q 151 135 161 135 Z" opacity="0.2"></path></g><g transform="translate(-62,-30) scale(1,1)"><path fill="#ffffff" stroke="none" d="M 154 128 L 278 128 Q 288 128 288 138 L 288 158 Q 288 168 278 168 L 154 168 Q 144 168 144 158 L 144 138 Q 144 128 154 128 Z"></path></g><g transform="translate(-62,-30) scale(1,1)"><path fill="none" stroke="#000000" d="M 154 128 L 278 128 Q 288 128 288 138 L 288 158 Q 288 168 278 168 L 154 168 Q 144 168 144 158 L 144 138 Q 144 128 154 128 Z" stroke-miterlimit="10"></path></g><g transform="translate(-62,-30) scale(1,1)"><g><path fill="none" stroke="none"></path><text fill="#000000" stroke="none" font-family="Arial" font-size="13px" font-style="normal" font-weight="bold" text-decoration="none" x="162" y="147.5">Visualizza Carrello</text></g></g><g transform="translate(-62,-30) scale(1,1)"><path fill="#C0C0C0" stroke="none" d="M 215 56.5 C 215 51.2532944 219.2532944 47 224.5 47 C 229.7467056 47 234 51.2532944 234 56.5 C 234 61.7467056 229.7467056 66 224.5 66 C 219.2532944 66 215 61.7467056 215 56.5 Z" opacity="0.2"></path></g><g transform="translate(-62,-30) scale(1,1)"><path fill="#000000" stroke="none" d="M 208 49.5 C 208 44.2532944 212.2532944 40 217.5 40 C 222.7467056 40 227 44.2532944 227 49.5 C 227 54.7467056 222.7467056 59 217.5 59 C 212.2532944 59 208 54.7467056 208 49.5 Z"></path></g><g transform="translate(-62,-30) scale(1,1)"><path fill="none" stroke="#000000" d="M 217 60 L 216 127" stroke-miterlimit="10"></path></g><g transform="translate(-62,-30) scale(1,1)"><path fill="none" stroke="#000000" d="M 211.94261585827738 116.77563528005295 L 216 127 L 220.36071378630822 116.90127853271014" stroke-miterlimit="10"></path></g><g transform="translate(-62,-30) scale(1,1)"><path fill="#C0C0C0" stroke="none" d="M 207 311.5 L 223.5 295 L 239 311.5 L 223.5 327 L 207 311.5" opacity="0.2"></path></g><g transform="translate(-62,-30) scale(1,1)"><path fill="#ffffff" stroke="none" d="M 200 304 L 216 288 L 232 304 L 216 320 L 200 304"></path></g><g transform="translate(-62,-30) scale(1,1)"><path fill="none" stroke="#000000" d="M 200 304 L 216 288 L 232 304 L 216 320 L 200 304 L 200 304" stroke-miterlimit="10"></path></g><g transform="translate(-62,-30) scale(1,1)"><path fill="none" stroke="#000000" d="M 216 169 L 216 287" stroke-miterlimit="10"></path></g><g transform="translate(-62,-30) scale(1,1)"><path fill="none" stroke="#000000" d="M 211.790482243984 276.83732514237585 L 216 287 L 220.209517756016 276.83732514237585" stroke-miterlimit="10"></path></g><g transform="translate(-62,-30) scale(1,1)"><g><path fill="none" stroke="none"></path><text fill="#000000" stroke="none" font-family="Arial" font-size="13px" font-style="normal" font-weight="normal" text-decoration="none" x="187.5" y="233.5">hai fatto login?</text></g></g><g transform="translate(-62,-30) scale(1,1)"><path fill="#C0C0C0" stroke="none" d="M 79 315.5 C 79 308.59644 84.59644 303 91.5 303 C 98.40356 303 104 308.59644 104 315.5 C 104 322.40356 98.40356 328 91.5 328 C 84.59644 328 79 322.40356 79 315.5 Z" opacity="0.2"></path></g><g transform="translate(-62,-30) scale(1,1)"><path fill="none" stroke="#000000" d="M 72 308.5 C 72 301.59644 77.59644 296 84.5 296 C 91.40356 296 97 301.59644 97 308.5 C 97 315.40356 91.40356 321 84.5 321 C 77.59644 321 72 315.40356 72 308.5 Z" stroke-miterlimit="10"></path></g><g transform="translate(-62,-30) scale(1,1)"><path fill="#000000" stroke="none" d="M 77 308.5 C 77 304.357864 80.357864 301 84.5 301 C 88.642136 301 92 304.357864 92 308.5 C 92 312.642136 88.642136 316 84.5 316 C 80.357864 316 77 312.642136 77 308.5 Z"></path></g><g transform="translate(-62,-30) scale(1,1)"><path fill="none" stroke="#000000" d="M 199 305 L 98 308" stroke-miterlimit="10"></path></g><g transform="translate(-62,-30) scale(1,1)"><path fill="none" stroke="#000000" d="M 108.03321466823039 303.49060941798047 L 98 308 L 108.28317478857082 311.90593346944127" stroke-miterlimit="10"></path></g><g transform="translate(-62,-30) scale(1,1)"><g><path fill="none" stroke="none"></path><text fill="#000000" stroke="none" font-family="Arial" font-size="13px" font-style="normal" font-weight="normal" text-decoration="none" x="133.5" y="326.5">esce</text></g></g><g transform="translate(-62,-30) scale(1,1)"><path fill="#C0C0C0" stroke="none" d="M 207 427.5 C 207 420.59644 212.59644 415 219.5 415 C 226.40356 415 232 420.59644 232 427.5 C 232 434.40356 226.40356 440 219.5 440 C 212.59644 440 207 434.40356 207 427.5 Z" opacity="0.2"></path></g><g transform="translate(-62,-30) scale(1,1)"><path fill="none" stroke="#000000" d="M 200 420.5 C 200 413.59644 205.59644 408 212.5 408 C 219.40356 408 225 413.59644 225 420.5 C 225 427.40356 219.40356 433 212.5 433 C 205.59644 433 200 427.40356 200 420.5 Z" stroke-miterlimit="10"></path></g><g transform="translate(-62,-30) scale(1,1)"><path fill="#000000" stroke="none" d="M 205 420.5 C 205 416.357864 208.357864 413 212.5 413 C 216.642136 413 220 416.357864 220 420.5 C 220 424.642136 216.642136 428 212.5 428 C 208.357864 428 205 424.642136 205 420.5 Z"></path></g><g transform="translate(-62,-30) scale(1,1)"><path fill="none" stroke="#000000" d="M 215 321 L 212 407" stroke-miterlimit="10"></path></g><g transform="translate(-62,-30) scale(1,1)"><path fill="none" stroke="#000000" d="M 208.14733754729397 396.69674847315133 L 212 407 L 216.56125527697412 396.9902572311634" stroke-miterlimit="10"></path></g><g transform="translate(-62,-30) scale(1,1)"><g><path fill="none" stroke="none"></path><text fill="#000000" stroke="none" font-family="Arial" font-size="13px" font-style="normal" font-weight="normal" text-decoration="none" x="229.5" y="367.5">acquista</text></g></g><g transform="translate(-62,-30) scale(1,1)"><path fill="none" stroke="#000000" d="M 233 304 L 376 304 L 376 144 L 289 146" stroke-miterlimit="10"></path></g><g transform="translate(-62,-30) scale(1,1)"><path fill="none" stroke="#000000" d="M 299.0632456169828 141.55803110633624 L 289 146 L 299.2567355430437 149.97484288998498" stroke-miterlimit="10"></path></g><g transform="translate(-62,-30) scale(1,1)"><g><path fill="none" stroke="none"></path><text fill="#000000" stroke="none" font-family="Arial" font-size="13px" font-style="normal" font-weight="normal" text-decoration="none" x="383.5" y="203.5">rimuovi prodotti</text></g></g><g transform="translate(-62,-30) scale(1,1)"><path fill="none" stroke="#000000" d="M 216 169 L 216 287" stroke-miterlimit="10"></path></g><g transform="translate(-62,-30) scale(1,1)"><path fill="none" stroke="#000000" d="M 211.790482243984 276.83732514237585 L 216 287 L 220.209517756016 276.83732514237585" stroke-miterlimit="10"></path></g></g></svg>