<svg version="1.1" xmlns="http://www.w3.org/2000/svg" xmlns:xlink="http://www.w3.org/1999/xlink" width="702" height="605"><defs></defs><g><g transform="translate(-109,-278) scale(1,1)"><path fill="#C0C0C0" stroke="none" d="M 279 307 C 279 300.3725824 284.3725824 295 291 295 C 297.6274176 295 303 300.3725824 303 307 C 303 313.6274176 297.6274176 319 291 319 C 284.3725824 319 279 313.6274176 279 307 Z" opacity="0.2"></path></g><g transform="translate(-109,-278) scale(1,1)"><path fill="#000000" stroke="none" d="M 272 300 C 272 293.3725824 277.3725824 288 284 288 C 290.6274176 288 296 293.3725824 296 300 C 296 306.6274176 290.6274176 312 284 312 C 277.3725824 312 272 306.6274176 272 300 Z"></path></g><g transform="translate(-109,-278) scale(1,1)"><path fill="#C0C0C0" stroke="none" d="M 231 399 L 355 399 Q 365 399 365 409 L 365 429 Q 365 439 355 439 L 231 439 Q 221 439 221 429 L 221 409 Q 221 399 231 399 Z" opacity="0.2"></path></g><g transform="translate(-109,-278) scale(1,1)"><path fill="#ffffff" stroke="none" d="M 224 392 L 348 392 Q 358 392 358 402 L 358 422 Q 358 432 348 432 L 224 432 Q 214 432 214 422 L 214 402 Q 214 392 224 392 Z"></path></g><g transform="translate(-109,-278) scale(1,1)"><path fill="none" stroke="#000000" d="M 224 392 L 348 392 Q 358 392 358 402 L 358 422 Q 358 432 348 432 L 224 432 Q 214 432 214 422 L 214 402 Q 214 392 224 392 Z" stroke-miterlimit="10"></path></g><g transform="translate(-109,-278) scale(1,1)"><g><path fill="none" stroke="none"></path><text fill="#000000" stroke="none" font-family="Arial" font-size="13px" font-style="normal" font-weight="bold" text-decoration="none" x="270.5" y="411.5">Login</text></g></g><g transform="translate(-109,-278) scale(1,1)"><path fill="none" stroke="#000000" d="M 284 313 L 286 391" stroke-miterlimit="10"></path></g><g transform="translate(-109,-278) scale(1,1)"><path fill="none" stroke="#000000" d="M 281.5313695737947 380.94856517138015 L 286 391 L 289.9476388509854 380.73276339504196" stroke-miterlimit="10"></path></g><g transform="translate(-109,-278) scale(1,1)"><path fill="#C0C0C0" stroke="none" d="M 271 550.5 L 291.5 527 L 311 550.5 L 291.5 573 L 271 550.5" opacity="0.2"></path></g><g transform="translate(-109,-278) scale(1,1)"><path fill="#ffffff" stroke="none" d="M 264 543 L 284 520 L 304 543 L 284 566 L 264 543"></path></g><g transform="translate(-109,-278) scale(1,1)"><path fill="none" stroke="#000000" d="M 264 543 L 284 520 L 304 543 L 284 566 L 264 543 L 264 543" stroke-miterlimit="10"></path></g><g transform="translate(-109,-278) scale(1,1)"><path fill="none" stroke="#000000" d="M 286 433 L 284 519" stroke-miterlimit="10"></path></g><g transform="translate(-109,-278) scale(1,1)"><path fill="none" stroke="#000000" d="M 280.0278974963755 508.7422028826507 L 284 519 L 288.44465728583253 508.9379414824055" stroke-miterlimit="10"></path></g><g transform="translate(-109,-278) scale(1,1)"><path fill="none" stroke="#000000" d="M 263 543 Q 168 544 168 484 Q 168 424 213 419" stroke-miterlimit="10"></path></g><g transform="translate(-109,-278) scale(1,1)"><path fill="none" stroke="#000000" d="M 203.36434622806684 424.306050922054 L 213 419 L 202.4346192883948 415.93850846500584" stroke-miterlimit="10"></path></g><g transform="translate(-109,-278) scale(1,1)"><g><path fill="none" stroke="none"></path><text fill="#000000" stroke="none" font-family="Arial" font-size="13px" font-style="normal" font-weight="normal" text-decoration="none" x="145" y="546.5">username</text><text fill="#000000" stroke="none" font-family="Arial" font-size="13px" font-style="normal" font-weight="normal" text-decoration="none" x="129.5" y="559.5">password errati</text></g></g><g transform="translate(-109,-278) scale(1,1)"><path fill="none" stroke="#000000" d="M 284 567 L 286 695" stroke-miterlimit="10"></path></g><g transform="translate(-109,-278) scale(1,1)"><path fill="none" stroke="#000000" d="M 281.63222359262613 684.9043311635539 L 286 695 L 290.050231578504 684.7727997887746" stroke-miterlimit="10"></path></g><g transform="translate(-109,-278) scale(1,1)"><g><path fill="none" stroke="none"></path><text fill="#000000" stroke="none" font-family="Arial" font-size="13px" font-style="normal" font-weight="normal" text-decoration="none" x="321" y="619.5">username</text><text fill="#000000" stroke="none" font-family="Arial" font-size="13px" font-style="normal" font-weight="normal" text-decoration="none" x="300" y="632.5">password corretti</text></g></g><g transform="translate(-109,-278) scale(1,1)"><path fill="#C0C0C0" stroke="none" d="M 279 867.5 C 279 860.59644 284.59644 855 291.5 855 C 298.40356 855 304 860.59644 304 867.5 C 304 874.40356 298.40356 880 291.5 880 C 284.59644 880 279 874.40356 279 867.5 Z" opacity="0.2"></path></g><g transform="translate(-109,-278) scale(1,1)"><path fill="none" stroke="#000000" d="M 272 860.5 C 272 853.59644 277.59644 848 284.5 848 C 291.40356 848 297 853.59644 297 860.5 C 297 867.40356 291.40356 873 284.5 873 C 277.59644 873 272 867.40356 272 860.5 Z" stroke-miterlimit="10"></path></g><g transform="translate(-109,-278) scale(1,1)"><path fill="#000000" stroke="none" d="M 277 860.5 C 277 856.357864 280.357864 853 284.5 853 C 288.642136 853 292 856.357864 292 860.5 C 292 864.642136 288.642136 868 284.5 868 C 280.357864 868 277 864.642136 277 860.5 Z"></path></g><g transform="translate(-109,-278) scale(1,1)"><path fill="none" stroke="#000000" d="M 286 737 L 284 847" stroke-miterlimit="10"></path></g><g transform="translate(-109,-278) scale(1,1)"><path fill="none" stroke="#000000" d="M 279.97592323218123 836.7624804680675 L 284 847 L 288.3935675130194 836.9155285459009" stroke-miterlimit="10"></path></g><g transform="translate(-109,-278) scale(1,1)"><path fill="#C0C0C0" stroke="none" d="M 593 399 L 741 399 Q 751 399 751 409 L 751 429 Q 751 439 741 439 L 593 439 Q 583 439 583 429 L 583 409 Q 583 399 593 399 Z" opacity="0.2"></path></g><g transform="translate(-109,-278) scale(1,1)"><path fill="#ffffff" stroke="none" d="M 586 392 L 734 392 Q 744 392 744 402 L 744 422 Q 744 432 734 432 L 586 432 Q 576 432 576 422 L 576 402 Q 576 392 586 392 Z"></path></g><g transform="translate(-109,-278) scale(1,1)"><path fill="none" stroke="#000000" d="M 586 392 L 734 392 Q 744 392 744 402 L 744 422 Q 744 432 734 432 L 586 432 Q 576 432 576 422 L 576 402 Q 576 392 586 392 Z" stroke-miterlimit="10"></path></g><g transform="translate(-109,-278) scale(1,1)"><g><path fill="none" stroke="none"></path><text fill="#000000" stroke="none" font-family="Arial" font-size="13px" font-style="normal" font-weight="bold" text-decoration="none" x="636" y="411.5">Registra</text></g></g><g transform="translate(-109,-278) scale(1,1)"><path fill="none" stroke="#000000" d="M 359 412 L 575 412" stroke-miterlimit="10"></path></g><g transform="translate(-109,-278) scale(1,1)"><path fill="none" stroke="#000000" d="M 564.8373251423759 416.209517756016 L 575 412 L 564.8373251423758 407.790482243984" stroke-miterlimit="10"></path></g><g transform="translate(-109,-278) scale(1,1)"><path fill="#C0C0C0" stroke="none" d="M 647 583.5 L 667.5 559 L 687 583.5 L 667.5 607 L 647 583.5" opacity="0.2"></path></g><g transform="translate(-109,-278) scale(1,1)"><path fill="#ffffff" stroke="none" d="M 640 576 L 660 552 L 680 576 L 660 600 L 640 576"></path></g><g transform="translate(-109,-278) scale(1,1)"><path fill="none" stroke="#000000" d="M 640 576 L 660 552 L 680 576 L 660 600 L 640 576 L 640 576" stroke-miterlimit="10"></path></g><g transform="translate(-109,-278) scale(1,1)"><path fill="none" stroke="#000000" d="M 660 433 L 660 551" stroke-miterlimit="10"></path></g><g transform="translate(-109,-278) scale(1,1)"><path fill="none" stroke="#000000" d="M 655.790482243984 540.8373251423759 L 660 551 L 664.209517756016 540.8373251423759" stroke-miterlimit="10"></path></g><g transform="translate(-109,-278) scale(1,1)"><path fill="#C0C0C0" stroke="none" d="M 585 701 L 749 701 Q 759 701 759 711 L 759 731 Q 759 741 749 741 L 585 741 Q 575 741 575 731 L 575 711 Q 575 701 585 701 Z" opacity="0.2"></path></g><g transform="translate(-109,-278) scale(1,1)"><path fill="#ffffff" stroke="none" d="M 578 694 L 742 694 Q 752 694 752 704 L 752 724 Q 752 734 742 734 L 578 734 Q 568 734 568 724 L 568 704 Q 568 694 578 694 Z"></path></g><g transform="translate(-109,-278) scale(1,1)"><path fill="none" stroke="#000000" d="M 578 694 L 742 694 Q 752 694 752 704 L 752 724 Q 752 734 742 734 L 578 734 Q 568 734 568 724 L 568 704 Q 568 694 578 694 Z" stroke-miterlimit="10"></path></g><g transform="translate(-109,-278) scale(1,1)"><g><path fill="none" stroke="none"></path><text fill="#000000" stroke="none" font-family="Arial" font-size="13px" font-style="normal" font-weight="bold" text-decoration="none" x="623" y="713.5">Salvo nel DB</text></g></g><g transform="translate(-109,-278) scale(1,1)"><path fill="none" stroke="#000000" d="M 660 601 L 660 693" stroke-miterlimit="10"></path></g><g transform="translate(-109,-278) scale(1,1)"><path fill="none" stroke="#000000" d="M 655.790482243984 682.8373251423759 L 660 693 L 664.209517756016 682.8373251423759" stroke-miterlimit="10"></path></g><g transform="translate(-109,-278) scale(1,1)"><g><path fill="none" stroke="none"></path><text fill="#000000" stroke="none" font-family="Arial" font-size="13px" font-style="normal" font-weight="normal" text-decoration="none" x="588.5" y="611.5">dati corretti</text></g></g><g transform="translate(-109,-278) scale(1,1)"><path fill="none" stroke="#000000" d="M 681 575 Q 800 568 800 484 Q 800 400 745 405" stroke-miterlimit="10"></path></g><g transform="translate(-109,-278) scale(1,1)"><path fill="none" stroke="#000000" d="M 754.739827019728 399.88768451425597 L 745 405 L 755.5020506807682 408.27214478569897" stroke-miterlimit="10"></path></g><g transform="translate(-109,-278) scale(1,1)"><g><path fill="none" stroke="none"></path><text fill="#000000" stroke="none" font-family="Arial" font-size="13px" font-style="normal" font-weight="normal" text-decoration="none" x="696.5" y="554.5">Dati errati</text></g></g><g transform="translate(-109,-278) scale(1,1)"><path fill="#C0C0C0" stroke="none" d="M 585 772 L 749 772 Q 759 772 759 782 L 759 802 Q 759 812 749 812 L 585 812 Q 575 812 575 802 L 575 782 Q 575 772 585 772 Z" opacity="0.2"></path></g><g transform="translate(-109,-278) scale(1,1)"><path fill="#ffffff" stroke="none" d="M 578 765 L 742 765 Q 752 765 752 775 L 752 795 Q 752 805 742 805 L 578 805 Q 568 805 568 795 L 568 775 Q 568 765 578 765 Z"></path></g><g transform="translate(-109,-278) scale(1,1)"><path fill="none" stroke="#000000" d="M 578 765 L 742 765 Q 752 765 752 775 L 752 795 Q 752 805 742 805 L 578 805 Q 568 805 568 795 L 568 775 Q 568 765 578 765 Z" stroke-miterlimit="10"></path></g><g transform="translate(-109,-278) scale(1,1)"><g><path fill="none" stroke="none"></path><text fill="#000000" stroke="none" font-family="Arial" font-size="13px" font-style="normal" font-weight="bold" text-decoration="none" x="591" y="784.5">Registrazione Effettuata</text></g></g><g transform="translate(-109,-278) scale(1,1)"><path fill="none" stroke="#000000" d="M 660 735 L 660 764" stroke-miterlimit="10"></path></g><g transform="translate(-109,-278) scale(1,1)"><path fill="none" stroke="#000000" d="M 655.790482243984 753.8373251423759 L 660 764 L 664.209517756016 753.8373251423759" stroke-miterlimit="10"></path></g><g transform="translate(-109,-278) scale(1,1)"><path fill="none" stroke="#000000" d="M 662 806 Q 664 840 620 852 Q 576 864 298 860" stroke-miterlimit="10"></path></g><g transform="translate(-109,-278) scale(1,1)"><path fill="none" stroke="#000000" d="M 308.22218537071683 855.9371283251003 L 298 860 L 308.10106070659214 864.3552924817675" stroke-miterlimit="10"></path></g><g transform="translate(-109,-278) scale(1,1)"><g><path fill="none" stroke="none"></path><text fill="#000000" stroke="none" font-family="Arial" font-size="13px" font-style="normal" font-weight="normal" text-decoration="none" x="533.5" y="842.5">utente loggato</text></g></g><g transform="translate(-109,-278) scale(1,1)"><path fill="#C0C0C0" stroke="none" d="M 241 703 L 345 703 Q 355 703 355 713 L 355 733 Q 355 743 345 743 L 241 743 Q 231 743 231 733 L 231 713 Q 231 703 241 703 Z" opacity="0.2"></path></g><g transform="translate(-109,-278) scale(1,1)"><path fill="#ffffff" stroke="none" d="M 234 696 L 338 696 Q 348 696 348 706 L 348 726 Q 348 736 338 736 L 234 736 Q 224 736 224 726 L 224 706 Q 224 696 234 696 Z"></path></g><g transform="translate(-109,-278) scale(1,1)"><path fill="none" stroke="#000000" d="M 234 696 L 338 696 Q 348 696 348 706 L 348 726 Q 348 736 338 736 L 234 736 Q 224 736 224 726 L 224 706 Q 224 696 234 696 Z" stroke-miterlimit="10"></path></g><g transform="translate(-109,-278) scale(1,1)"><g><path fill="none" stroke="none"></path><text fill="#000000" stroke="none" font-family="Arial" font-size="13px" font-style="normal" font-weight="bold" text-decoration="none" x="232" y="715.5">Accesso effettuato</text></g></g></g></svg>