<svg version="1.1" xmlns="http://www.w3.org/2000/svg" xmlns:xlink="http://www.w3.org/1999/xlink" width="693" height="565"><defs></defs><g><g transform="translate(-325,2) scale(1,1)"><path fill="#C0C0C0" stroke="none" d="M 361 87 L 460 87 Q 470 87 470 97 L 470 124 Q 470 134 460 134 L 361 134 Q 351 134 351 124 L 351 97 Q 351 87 361 87 Z" opacity="0.2"></path></g><g transform="translate(-325,2) scale(1,1)"><path fill="#ffffff" stroke="none" d="M 354 80 L 453 80 Q 463 80 463 90 L 463 117 Q 463 127 453 127 L 354 127 Q 344 127 344 117 L 344 90 Q 344 80 354 80 Z"></path></g><g transform="translate(-325,2) scale(1,1)"><path fill="none" stroke="#000000" d="M 354 80 L 453 80 Q 463 80 463 90 L 463 117 Q 463 127 453 127 L 354 127 Q 344 127 344 117 L 344 90 Q 344 80 354 80 Z" stroke-miterlimit="10"></path></g><g transform="translate(-325,2) scale(1,1)"><g><path fill="none" stroke="none"></path><text fill="#000000" stroke="none" font-family="Arial" font-size="13px" font-style="normal" font-weight="bold" text-decoration="none" x="388" y="99.5">Login</text></g></g><g transform="translate(-325,2) scale(1,1)"><path fill="#C0C0C0" stroke="none" d="M 631 24.5 C 631 19.2532944 635.2532944 15 640.5 15 C 645.7467056 15 650 19.2532944 650 24.5 C 650 29.7467056 645.7467056 34 640.5 34 C 635.2532944 34 631 29.7467056 631 24.5 Z" opacity="0.2"></path></g><g transform="translate(-325,2) scale(1,1)"><path fill="#000000" stroke="none" d="M 624 17.5 C 624 12.2532944 628.2532944 8 633.5 8 C 638.7467056 8 643 12.2532944 643 17.5 C 643 22.7467056 638.7467056 27 633.5 27 C 628.2532944 27 624 22.7467056 624 17.5 Z"></path></g><g transform="translate(-325,2) scale(1,1)"><path fill="#C0C0C0" stroke="none" d="M 849 87 L 932 87 Q 942 87 942 97 L 942 125 Q 942 135 932 135 L 849 135 Q 839 135 839 125 L 839 97 Q 839 87 849 87 Z" opacity="0.2"></path></g><g transform="translate(-325,2) scale(1,1)"><path fill="#ffffff" stroke="none" d="M 842 80 L 925 80 Q 935 80 935 90 L 935 118 Q 935 128 925 128 L 842 128 Q 832 128 832 118 L 832 90 Q 832 80 842 80 Z"></path></g><g transform="translate(-325,2) scale(1,1)"><path fill="none" stroke="#000000" d="M 842 80 L 925 80 Q 935 80 935 90 L 935 118 Q 935 128 925 128 L 842 128 Q 832 128 832 118 L 832 90 Q 832 80 842 80 Z" stroke-miterlimit="10"></path></g><g transform="translate(-325,2) scale(1,1)"><g><path fill="none" stroke="none"></path><text fill="#000000" stroke="none" font-family="Arial" font-size="13px" font-style="normal" font-weight="bold" text-decoration="none" x="856" y="99.5">Registrati</text></g></g><g transform="translate(-325,2) scale(1,1)"><path fill="#C0C0C0" stroke="none" d="M 361 423 L 469 423 Q 479 423 479 433 L 479 461 Q 479 471 469 471 L 361 471 Q 351 471 351 461 L 351 433 Q 351 423 361 423 Z" opacity="0.2"></path></g><g transform="translate(-325,2) scale(1,1)"><path fill="#ffffff" stroke="none" d="M 354 416 L 462 416 Q 472 416 472 426 L 472 454 Q 472 464 462 464 L 354 464 Q 344 464 344 454 L 344 426 Q 344 416 354 416 Z"></path></g><g transform="translate(-325,2) scale(1,1)"><path fill="none" stroke="#000000" d="M 354 416 L 462 416 Q 472 416 472 426 L 472 454 Q 472 464 462 464 L 354 464 Q 344 464 344 454 L 344 426 Q 344 416 354 416 Z" stroke-miterlimit="10"></path></g><g transform="translate(-325,2) scale(1,1)"><g><path fill="none" stroke="none"></path><text fill="#000000" stroke="none" font-family="Arial" font-size="13px" font-style="normal" font-weight="bold" text-decoration="none" x="356" y="435.5">Accesso avvenuto</text></g></g><g transform="translate(-325,2) scale(1,1)"><path fill="#C0C0C0" stroke="none" d="M 383 287.5 L 411.5 263 L 439 287.5 L 411.5 311 L 383 287.5" opacity="0.2"></path></g><g transform="translate(-325,2) scale(1,1)"><path fill="#ffffff" stroke="none" d="M 376 280 L 404 256 L 432 280 L 404 304 L 376 280"></path></g><g transform="translate(-325,2) scale(1,1)"><path fill="none" stroke="#000000" d="M 376 280 L 404 256 L 432 280 L 404 304 L 376 280 L 376 280" stroke-miterlimit="10"></path></g><g transform="translate(-325,2) scale(1,1)"><path fill="none" stroke="#000000" d="M 405 305 L 407 415" stroke-miterlimit="10"></path></g><g transform="translate(-325,2) scale(1,1)"><path fill="none" stroke="#000000" d="M 402.6064324869806 404.9155285459008 L 407 415 L 411.02407676781877 404.7624804680674" stroke-miterlimit="10"></path></g><g transform="translate(-325,2) scale(1,1)"><g><path fill="none" stroke="none"></path><text fill="#000000" stroke="none" font-family="Arial" font-size="13px" font-style="normal" font-weight="normal" text-decoration="none" x="356.5" y="356.5">user &amp; password</text><text fill="#000000" stroke="none" font-family="Arial" font-size="13px" font-style="normal" font-weight="normal" text-decoration="none" x="385" y="369.5">corretti</text></g></g><g transform="translate(-325,2) scale(1,1)"><path fill="#C0C0C0" stroke="none" d="M 481 271 L 621 271 Q 631 271 631 281 L 631 301 Q 631 311 621 311 L 481 311 Q 471 311 471 301 L 471 281 Q 471 271 481 271 Z" opacity="0.2"></path></g><g transform="translate(-325,2) scale(1,1)"><path fill="#ffffff" stroke="none" d="M 474 264 L 614 264 Q 624 264 624 274 L 624 294 Q 624 304 614 304 L 474 304 Q 464 304 464 294 L 464 274 Q 464 264 474 264 Z"></path></g><g transform="translate(-325,2) scale(1,1)"><path fill="none" stroke="#000000" d="M 474 264 L 614 264 Q 624 264 624 274 L 624 294 Q 624 304 614 304 L 474 304 Q 464 304 464 294 L 464 274 Q 464 264 474 264 Z" stroke-miterlimit="10"></path></g><g transform="translate(-325,2) scale(1,1)"><g><path fill="none" stroke="none"></path><text fill="#000000" stroke="none" font-family="Arial" font-size="13px" font-style="normal" font-weight="bold" text-decoration="none" x="478" y="283.5">Registrazione avvenuta</text></g></g><g transform="translate(-325,2) scale(1,1)"><path fill="none" stroke="#000000" d="M 544 305 L 544 440 L 473 440" stroke-miterlimit="10"></path></g><g transform="translate(-325,2) scale(1,1)"><path fill="none" stroke="#000000" d="M 483.16267485762415 435.790482243984 L 473 440 L 483.16267485762415 444.209517756016" stroke-miterlimit="10"></path></g><g transform="translate(-325,2) scale(1,1)"><path fill="#C0C0C0" stroke="none" d="M 697 271 L 768 271 Q 778 271 778 281 L 778 301 Q 778 311 768 311 L 697 311 Q 687 311 687 301 L 687 281 Q 687 271 697 271 Z" opacity="0.2"></path></g><g transform="translate(-325,2) scale(1,1)"><path fill="#ffffff" stroke="none" d="M 690 264 L 761 264 Q 771 264 771 274 L 771 294 Q 771 304 761 304 L 690 304 Q 680 304 680 294 L 680 274 Q 680 264 690 264 Z"></path></g><g transform="translate(-325,2) scale(1,1)"><path fill="none" stroke="#000000" d="M 690 264 L 761 264 Q 771 264 771 274 L 771 294 Q 771 304 761 304 L 690 304 Q 680 304 680 294 L 680 274 Q 680 264 690 264 Z" stroke-miterlimit="10"></path></g><g transform="translate(-325,2) scale(1,1)"><g><path fill="none" stroke="none"></path><text fill="#000000" stroke="none" font-family="Arial" font-size="13px" font-style="normal" font-weight="bold" text-decoration="none" x="688.5" y="283.5">Salvo nel DB</text></g></g><g transform="translate(-325,2) scale(1,1)"><path fill="#C0C0C0" stroke="none" d="M 871 295.5 L 891.5 271 L 911 295.5 L 891.5 319 L 871 295.5" opacity="0.2"></path></g><g transform="translate(-325,2) scale(1,1)"><path fill="#ffffff" stroke="none" d="M 864 288 L 884 264 L 904 288 L 884 312 L 864 288"></path></g><g transform="translate(-325,2) scale(1,1)"><path fill="none" stroke="#000000" d="M 864 288 L 884 264 L 904 288 L 884 312 L 864 288 L 864 288" stroke-miterlimit="10"></path></g><g transform="translate(-325,2) scale(1,1)"><path fill="none" stroke="#000000" d="M 883 129 L 884 263" stroke-miterlimit="10"></path></g><g transform="translate(-325,2) scale(1,1)"><path fill="none" stroke="#000000" d="M 879.714760711287 252.8690215557198 L 884 263 L 888.1335617979493 252.80619468193873" stroke-miterlimit="10"></path></g><g transform="translate(-325,2) scale(1,1)"><path fill="none" stroke="#000000" d="M 863 287 L 772 285" stroke-miterlimit="10"></path></g><g transform="translate(-325,2) scale(1,1)"><path fill="none" stroke="#000000" d="M 782.2527158279833 281.0148001115851 L 772 285 L 782.0677267530276 289.4318030220635" stroke-miterlimit="10"></path></g><g transform="translate(-325,2) scale(1,1)"><g><path fill="none" stroke="none"></path><text fill="#000000" stroke="none" font-family="Arial" font-size="13px" font-style="normal" font-weight="normal" text-decoration="none" x="789.5" y="306.5">dati validi</text></g></g><g transform="translate(-325,2) scale(1,1)"><path fill="none" stroke="#000000" d="M 905 288 L 984 288 L 984 104 L 936 104" stroke-miterlimit="10"></path></g><g transform="translate(-325,2) scale(1,1)"><path fill="none" stroke="#000000" d="M 946.1626748576241 99.79048224398402 L 936 104 L 946.1626748576241 108.20951775601598" stroke-miterlimit="10"></path></g><g transform="translate(-325,2) scale(1,1)"><g><path fill="none" stroke="none"></path><text fill="#000000" stroke="none" font-family="Arial" font-size="13px" font-style="normal" font-weight="normal" text-decoration="none" x="929.5" y="201.5">dati non validi</text></g></g><g transform="translate(-325,2) scale(1,1)"><path fill="none" stroke="#000000" d="M 679 284 L 625 284" stroke-miterlimit="10"></path></g><g transform="translate(-325,2) scale(1,1)"><path fill="none" stroke="#000000" d="M 635.1626748576241 279.790482243984 L 625 284 L 635.1626748576241 288.209517756016" stroke-miterlimit="10"></path></g><g transform="translate(-325,2) scale(1,1)"><path fill="#C0C0C0" stroke="none" d="M 399 547.5 C 399 540.59644 406.1634432 535 415 535 C 423.8365568 535 431 540.59644 431 547.5 C 431 554.40356 423.8365568 560 415 560 C 406.1634432 560 399 554.40356 399 547.5 Z" opacity="0.2"></path></g><g transform="translate(-325,2) scale(1,1)"><path fill="none" stroke="#000000" d="M 392 540.5 C 392 533.59644 399.1634432 528 408 528 C 416.8365568 528 424 533.59644 424 540.5 C 424 547.40356 416.8365568 553 408 553 C 399.1634432 553 392 547.40356 392 540.5 Z" stroke-miterlimit="10"></path></g><g transform="translate(-325,2) scale(1,1)"><path fill="#000000" stroke="none" d="M 397 540.5 C 397 536.357864 401.9248672 533 408 533 C 414.0751328 533 419 536.357864 419 540.5 C 419 544.642136 414.0751328 548 408 548 C 401.9248672 548 397 544.642136 397 540.5 Z"></path></g><g transform="translate(-325,2) scale(1,1)"><path fill="none" stroke="#000000" d="M 408 465 L 408 527" stroke-miterlimit="10"></path></g><g transform="translate(-325,2) scale(1,1)"><path fill="none" stroke="#000000" d="M 403.790482243984 516.8373251423759 L 408 527 L 412.209517756016 516.8373251423759" stroke-miterlimit="10"></path></g><g transform="translate(-325,2) scale(1,1)"><path fill="#C0C0C0" stroke="none" d="M 607 111.5 L 639.5 79 L 671 111.5 L 639.5 143 L 607 111.5" opacity="0.2"></path></g><g transform="translate(-325,2) scale(1,1)"><path fill="#ffffff" stroke="none" d="M 600 104 L 632 72 L 664 104 L 632 136 L 600 104"></path></g><g transform="translate(-325,2) scale(1,1)"><path fill="none" stroke="#000000" d="M 600 104 L 632 72 L 664 104 L 632 136 L 600 104 L 600 104" stroke-miterlimit="10"></path></g><g transform="translate(-325,2) scale(1,1)"><path fill="none" stroke="#000000" d="M 665 104 L 831 104" stroke-miterlimit="10"></path></g><g transform="translate(-325,2) scale(1,1)"><path fill="none" stroke="#000000" d="M 820.8373251423759 108.20951775601598 L 831 104 L 820.8373251423758 99.79048224398402" stroke-miterlimit="10"></path></g><g transform="translate(-325,2) scale(1,1)"><g><path fill="none" stroke="none"></path><text fill="#000000" stroke="none" font-family="Arial" font-size="13px" font-style="normal" font-weight="normal" text-decoration="none" x="750.5" y="100.5">no</text></g></g><g transform="translate(-325,2) scale(1,1)"><path fill="none" stroke="#000000" d="M 633 28 L 632 71" stroke-miterlimit="10"></path></g><g transform="translate(-325,2) scale(1,1)"><path fill="none" stroke="#000000" d="M 628.0278974963754 60.7422028826507 L 632 71 L 636.4446572858326 60.93794148240551" stroke-miterlimit="10"></path></g><g transform="translate(-325,2) scale(1,1)"><path fill="none" stroke="#000000" d="M 599 104 L 464 103" stroke-miterlimit="10"></path></g><g transform="translate(-325,2) scale(1,1)"><path fill="none" stroke="#000000" d="M 474.1935768152959 98.86587473452218 L 464 103 L 474.1312153001357 107.28467928114769" stroke-miterlimit="10"></path></g><g transform="translate(-325,2) scale(1,1)"><path fill="none" stroke="#000000" d="M 403 128 L 404 255" stroke-miterlimit="10"></path></g><g transform="translate(-325,2) scale(1,1)"><path fill="none" stroke="#000000" d="M 399.7105941518992 244.87078495290584 L 404 255 L 408.12936868544375 244.8044953896496" stroke-miterlimit="10"></path></g></g></svg>